<?xml version="1.0" encoding="UTF-8" standalone="no"?>
<svg xmlns:rdf="http://www.w3.org/1999/02/22-rdf-syntax-ns#" xmlns="http://www.w3.org/2000/svg" xml:space="preserve" viewBox="0 0 125 125" height="125" width="125" version="1.1" y="0px" x="0px" xmlns:cc="http://creativecommons.org/ns#" xmlns:dc="http://purl.org/dc/elements/1.1/"><g transform="translate(-253.7 10.21)"><circle style="color-rendering:auto;color:#000000;isolation:auto;mix-blend-mode:normal;shape-rendering:auto;solid-color:#000000;image-rendering:auto" cy="52.29" cx="316.2" r="62.5" fill="#d6d6d6"/><g transform="matrix(1.168 0 0 1.168 281.2 15.26)" stroke="#828282" fill="#828282"><path d="m50.25 11c-1.56-0.84-11.28-6.07-16.62-9.421-0.91-0.967-2.2-1.579-3.63-1.579s-2.72 0.612-3.63 1.579c-5.34 3.35-15.06 8.581-16.62 9.421h-9.75v49h60v-49h-9.75zm-18.03-7.996c0.004 0.005 0.005 0.011 0.01 0.016 0.243 0.273 0.511 0.686 0.657 1.216 0.012 0.045 0.032 0.087 0.042 0.134 0.04 0.194 0.07 0.404 0.07 0.63 0 1.654-1.35 3-3 3s-3-1.346-3-3c0-0.226 0.03-0.436 0.07-0.63 0.01-0.046 0.03-0.087 0.04-0.132 0.15-0.532 0.41-0.944 0.66-1.218 0-0.005 0-0.011 0.01-0.016 0.55-0.611 1.34-1.004 2.22-1.004 0.885 0 1.673 0.393 2.223 1.004zm-7.217 1.75v0.246c0 2.757 2.243 5 5 5s5-2.243 5-5c0-0.082 0-0.164-0.01-0.246 3.6 2.136 8.04 4.597 11.06 6.246h-32.1c3.02-1.649 7.46-4.11 11.06-6.246zm-15 8.246h40 8v5h-56v-5h8zm-8 45v-38h56v38h-56z"/><circle cy="28" cx="23" r="1"/><circle cy="28" cx="30" r="1"/><circle cy="28" cx="37" r="1"/><circle cy="28" cx="44" r="1"/><circle cy="28" cx="51" r="1"/><circle cy="36" cx="9" r="1"/><circle cy="36" cx="16" r="1"/><circle cy="36" cx="23" r="1"/><circle cy="36" cx="30" r="1"/><circle cy="36" cx="37" r="1"/><g transform="matrix(.9374 0 0 .9374 8.712 3.782)" stroke-width=".1827"><rect transform="rotate(45)" style="color-rendering:auto;color:#000000;isolation:auto;mix-blend-mode:normal;shape-rendering:auto;solid-color:#000000;image-rendering:auto" ry=".8513" width="1.703" height="7.12" y="-5.876" x="50.07"/><rect transform="rotate(-45)" style="color-rendering:auto;color:#000000;isolation:auto;mix-blend-mode:normal;shape-rendering:auto;solid-color:#000000;image-rendering:auto" ry=".8513" width="1.703" height="7.12" y="47.36" x="1.465"/><rect ry=".8513" style="color-rendering:auto;color:#000000;isolation:auto;mix-blend-mode:normal;shape-rendering:auto;solid-color:#000000;image-rendering:auto" transform="rotate(-45)" width="1.703" height="7.12" y="47.36" x="1.465"/></g><circle cy="36" cx="51" r="1"/><circle cy="43" cx="9" r="1"/><circle cy="43" cx="16" r="1"/><circle cy="43" cx="23" r="1"/><circle cy="43" cx="30" r="1"/><circle cy="43" cx="37" r="1"/><circle cy="43" cx="44" r="1"/><circle cy="43" cx="51" r="1"/><circle cy="51" cx="9" r="1"/><circle cy="51" cx="16" r="1"/><circle cy="51" cx="23" r="1"/><circle cy="51" cx="30" r="1"/><circle cy="51" cx="37" r="1"/></g></g></svg>
