<svg width="15" height="14" viewBox="0 0 15 14" fill="none" xmlns="http://www.w3.org/2000/svg">
<path d="M14.7015 0.299714C14.3109 -0.0908104 13.6778 -0.0908104 13.2873 0.299714L7.9964 5.59058L2.70554 0.299715C2.31501 -0.0908088 1.68185 -0.0908088 1.29132 0.299715C0.900797 0.69024 0.900797 1.3234 1.29132 1.71393L6.58218 7.00479L1.29569 12.2913C0.905161 12.6818 0.905161 13.315 1.29569 13.7055C1.68621 14.096 2.31937 14.096 2.7099 13.7055L7.99639 8.419L13.2853 13.7079C13.6758 14.0984 14.309 14.0984 14.6995 13.7079C15.0901 13.3174 15.0901 12.6842 14.6995 12.2937L9.41061 7.00479L14.7015 1.71393C15.092 1.3234 15.092 0.690238 14.7015 0.299714Z" fill="white"/>
</svg>
