<svg width="90" height="73" viewBox="0 0 90 73" fill="none" xmlns="http://www.w3.org/2000/svg">
<g clip-path="url(#clip0)">
<path d="M19.5039 35.2814L20.3893 33.3311L23.1196 34.5717L22.2335 36.5213L19.5039 35.2814Z" fill="white"/>
<path d="M16.2266 42.5016L18.5467 37.3948L21.277 38.6347L18.9569 43.7423L16.2266 42.5016Z" fill="white"/>
<path d="M10.5059 55.002H13.5057V58.0018H10.5059V55.002Z" fill="white"/>
<path d="M15.0049 64.0015H18.0047V67.0013H15.0049V64.0015Z" fill="white"/>
<path d="M38.1872 40.1529L36.8191 37.4827C35.7762 38.0173 34.7883 38.6515 33.8691 39.3773L35.7286 41.7304C36.4947 41.1262 37.3186 40.5975 38.1872 40.1529Z" fill="white"/>
<path d="M27.0049 53.5019H30.0047C30.0098 49.8986 31.3142 46.4184 33.6783 43.6984L31.4101 41.7349C28.5744 44.9998 27.01 49.1773 27.0049 53.5019Z" fill="white"/>
<path d="M34.5039 64.0015H37.5037V67.0013H34.5039V64.0015Z" fill="white"/>
<path d="M81 14H83.9998V16.9998H81V14Z" fill="white"/>
<path d="M78 3H80.9998V5.99981H78V3Z" fill="white"/>
<path d="M70 0H72.9998V2.99981H70V0Z" fill="white"/>
<path d="M75 10H77.9998V12.9998H75V10Z" fill="white"/>
<path d="M85.5002 64.2146V22.0042C85.5002 21.1758 84.8286 20.5043 84.0003 20.5043H72.0011C71.1728 20.5043 70.5012 21.1758 70.5012 22.0042V37.0032H62.4018C59.6686 34.1293 56.2682 31.9754 52.5023 30.7319V8.50503C52.5023 7.67671 51.8307 7.00513 51.0024 7.00513H39.0032C38.1749 7.00513 37.5033 7.67671 37.5033 8.50503V30.7319C35.3399 31.4511 33.2885 32.472 31.4107 33.7646L30.0038 30.6784V8.50503C30.0038 7.67671 29.3322 7.00513 28.5039 7.00513H16.5047C15.6764 7.00513 15.0048 7.67671 15.0048 8.50503V30.6784L7.64294 46.8771L0.69417 62.1668C-0.391208 64.5383 -0.1942 67.3 1.21782 69.4928C2.62984 71.6855 5.06205 73.0082 7.67004 73.0008H88.5C89.3283 73.0008 89.9999 72.3293 89.9999 71.5009V70.001C89.9896 67.2737 88.1411 64.8964 85.5002 64.2146ZM73.501 61.0016H76.5008V58.0018H73.501V55.002H78.0007V52.0022H73.501V49.0024H82.5004V64.0014H73.501V61.0016ZM82.5004 23.5041V46.0026H73.501V43.0028H78.0007V40.003H73.501V37.0032H76.5008V34.0034H73.501V31.0036H78.0007V28.0038H73.501V23.5041H82.5004ZM70.5012 47.5025V52.0022H52.5023V49.0024H57.002V46.0026H52.5023V44.5027C52.5023 44.1783 52.3969 43.8626 52.2021 43.6026L49.5025 40.003H70.5012V47.5025ZM39.4053 33.2893C40.0542 33.1091 40.5038 32.5174 40.5031 31.8436V10.0049H49.5025V31.8436C49.5025 32.5167 49.9507 33.1069 50.5989 33.2878C53.2655 34.0334 55.7599 35.296 57.9395 37.0032H46.5027C45.9344 37.0032 45.4151 37.324 45.161 37.8322C44.9069 38.3405 44.9618 38.9484 45.3031 39.4032L49.5025 45.0022V58.0018H24.4949C24.1668 56.5246 24.002 55.0152 24.0042 53.5021C24.002 51.6104 24.2547 49.726 24.7541 47.9016C25.9127 43.6993 28.3625 39.9678 31.7571 37.2339C34.0077 35.4066 36.6113 34.0642 39.4053 33.2893ZM17.8698 31.6246C17.9592 31.4298 18.0053 31.2182 18.0046 31.0036V10.0049H27.004V31.0036C27.0033 31.2182 27.0494 31.4305 27.1387 31.6261L28.9865 35.6761C25.8578 38.4599 23.523 42.0229 22.2194 46.0026H11.3363L17.8698 31.6246ZM4.37069 68.6469C3.4955 67.7673 3.00481 66.5772 3.00554 65.3365C3.00774 64.6694 3.15129 64.0095 3.42519 63.4016L9.97262 49.0024H21.4365C21.1516 50.4855 21.0066 51.992 21.0044 53.5021C20.9919 56.9545 21.7507 60.3667 23.2257 63.4888C23.4029 63.8725 23.5779 64.2387 23.7383 64.5383L23.764 64.5895C23.8811 64.8188 24.01 65.029 24.1331 65.2465C24.2561 65.464 24.3433 65.6588 24.4751 65.8631C24.5205 65.9473 24.5703 66.0301 24.6252 66.1085L24.6509 66.1451L24.6897 66.2044L25.2536 67.0525C25.6227 67.5981 26.0036 68.1144 26.41 68.6059L26.4188 68.6183L26.4283 68.63L26.4459 68.6498C26.8143 69.12 27.2076 69.5704 27.6236 69.9996H7.67004C6.43672 70.0025 5.25174 69.5177 4.37362 68.6513L4.37069 68.6469ZM32.0574 69.9966C31.2876 69.3939 30.5619 68.737 29.8866 68.0302C29.4941 67.6084 29.1147 67.1887 28.75 66.742C28.3852 66.2945 28.0542 65.8507 27.7283 65.371L27.2061 64.5851L27.1468 64.4877C27.1241 64.4409 27.097 64.3976 27.0714 64.3522C26.8392 63.9846 26.6349 63.6162 26.4261 63.2127C26.2599 62.8933 26.1068 62.5733 25.9464 62.2254C25.9193 62.1639 25.8988 62.1053 25.8717 62.0438C25.7128 61.7003 25.5839 61.3466 25.4455 60.9943H49.5025V66.9939C49.5084 68.05 49.7969 69.0856 50.3367 69.9937H32.0603L32.0574 69.9966ZM55.5021 70.001C53.8455 70.001 52.5023 68.6579 52.5023 67.0012H55.5021V64.0014H52.5023V61.0016H57.002V58.0018H52.5023V55.002H70.5012V64.2146C67.8602 64.8964 66.0117 67.2737 66.0015 70.001H55.5021ZM73.501 70.001H69.0013C69.0013 68.3444 70.3444 67.0012 72.0011 67.0012H84.0003C85.6569 67.0012 87.0001 68.3444 87.0001 70.001H73.501Z" fill="#2DA965"/>
</g>
<defs>
<clipPath id="clip0">
<rect width="89.9999" height="73.0008" fill="white"/>
</clipPath>
</defs>
</svg>
