<?xml version="1.0" encoding="UTF-8" standalone="no"?>
<!-- Creator: CorelDRAW -->

<svg
   xmlns:dc="http://purl.org/dc/elements/1.1/"
   xmlns:cc="http://creativecommons.org/ns#"
   xmlns:rdf="http://www.w3.org/1999/02/22-rdf-syntax-ns#"
   xmlns:svg="http://www.w3.org/2000/svg"
   xmlns="http://www.w3.org/2000/svg"
   xmlns:sodipodi="http://sodipodi.sourceforge.net/DTD/sodipodi-0.dtd"
   xmlns:inkscape="http://www.inkscape.org/namespaces/inkscape"
   xml:space="preserve"
   width="114.3mm"
   height="103.01111mm"
   style="clip-rule:evenodd;fill-rule:evenodd;image-rendering:optimizeQuality;shape-rendering:geometricPrecision;text-rendering:geometricPrecision"
   viewBox="0 0 32.234369 29.050698"
   id="svg2"
   version="1.1"
   inkscape:version="0.91 r13725"
   sodipodi:docname="logo-expressao.svg"><metadata
     id="metadata36"><rdf:RDF><cc:Work
         rdf:about=""><dc:format>image/svg+xml</dc:format><dc:type
           rdf:resource="http://purl.org/dc/dcmitype/StillImage" /><dc:title></dc:title></cc:Work></rdf:RDF></metadata><sodipodi:namedview
     pagecolor="#ffffff"
     bordercolor="#666666"
     borderopacity="1"
     objecttolerance="10"
     gridtolerance="10"
     guidetolerance="10"
     inkscape:pageopacity="0"
     inkscape:pageshadow="2"
     inkscape:window-width="1865"
     inkscape:window-height="1053"
     id="namedview34"
     showgrid="false"
     fit-margin-top="0"
     fit-margin-left="0"
     fit-margin-right="0"
     fit-margin-bottom="0"
     inkscape:zoom="0.71033125"
     inkscape:cx="298.16544"
     inkscape:cy="109.35355"
     inkscape:window-x="1975"
     inkscape:window-y="27"
     inkscape:window-maximized="1"
     inkscape:current-layer="svg2" /><defs
     id="defs4"><style
       type="text/css"
       id="style6"><![CDATA[
    .fil3 {fill:#204695}
    .fil2 {fill:#5DCBEE}
    .fil5 {fill:#706BA5}
    .fil4 {fill:#82C76E}
    .fil7 {fill:#EF4C5D}
    .fil1 {fill:#F58557}
    .fil6 {fill:#FCDA06}
    .fil8 {fill:#72706F;fill-rule:nonzero}
    .fil0 {fill:#C2C1C1;fill-rule:nonzero}
   ]]></style></defs><g
     id="g4200"
     transform="matrix(2.4927613,0,0,2.4881479,-7.2629592,-4.7863087)"><g
       transform="matrix(0.60909189,0,0,0.60909189,4.9709668,1.9236395)"
       id="g4187"><polygon
         style="fill:#d9d8dd;fill-opacity:1;fill-rule:nonzero"
         id="polygon10"
         points="6.64725,8.04091 6.50111,7.63131 12.2934,5.55867 12.4395,5.96827 "
         class="fil0" /><polygon
         style="fill:#d9d8dd;fill-opacity:1;fill-rule:nonzero"
         id="polygon12"
         points="6.35832,7.81231 6.79003,7.85991 6.27298,12.4302 5.84127,12.3826 "
         class="fil0" /><polygon
         style="fill:#d9d8dd;fill-opacity:1;fill-rule:nonzero"
         id="polygon14"
         points="6.75517,7.71628 6.39318,7.95594 2.90146,2.71369 3.26346,2.47404 "
         class="fil0" /><path
         style="fill:#d9d8dd;fill-opacity:1;fill-rule:nonzero"
         inkscape:connector-curvature="0"
         id="path16"
         d="m 8.88552,1.24025 2.06303,2.063 2.06308,2.06303 0.08861,0.088609 -0.03252,0.121295 -0.755153,2.81818 -0.755125,2.81818 -0.03249,0.121323 -0.121323,0.03249 -2.8181803,0.755096 -2.81812,0.755125 -0.121295,0.03252 -0.088609,-0.08861 -2.06303,-2.06303 -2.06308,-2.0630007 -0.088581,-0.088581 0.032488,-0.121323 0.755153,-2.81821 0.755125,-2.81818 0.032516,-0.121295 0.121295,-0.032516 2.81818,-0.755096 2.81812,-0.755096 0.121323,-0.032488 0.088581,0.088581 z M 10.64093,3.61087 8.66651,1.63648 5.96968,2.35906 3.27279,3.08164 2.550182,5.77853 1.827546,8.47542 l 1.97448,1.97442 1.97442,1.97442 2.69683,-0.722608 2.69689,-0.72258 0.722608,-2.69689 0.722636,-2.69689 -1.97448,-1.97442 z"
         class="fil0" /><path
         style="fill:#ed8e4c;fill-opacity:1"
         inkscape:connector-curvature="0"
         id="path18"
         d="m 1.71807,1.73868 2.68606,0 c 0.248427,0 0.45162,0.203249 0.45162,0.45162 l 0,1.90166 c 0,0.812064 -0.68338,1.03463 -1.15285,1.03463 l 0,-0.583011 -1.98483,0 c -0.248399,0 -0.451648,-0.203192 -0.451648,-0.45162 l 0,-1.90166 c 0,-0.248427 0.203192,-0.45162 0.451648,-0.45162 z"
         class="fil1" /><path
         style="fill:#83cbe4;fill-opacity:1"
         inkscape:connector-curvature="0"
         id="path20"
         d="m 7.04311,0 3.1943,0 c 0.255111,0 0.46369,0.208579 0.46369,0.46369 l 0,1.98356 c 0,0.255111 -0.208579,0.46369 -0.46369,0.46369 l -1.44623,0 -1.05657,0.816942 0,-0.816942 -0.691502,0 c -0.255111,0 -0.46369,-0.208579 -0.46369,-0.46369 l 0,-1.98356 C 6.579418,0.208579 6.787997,0 7.043108,0 Z"
         class="fil2" /><path
         style="fill:#005ca7;fill-opacity:1"
         inkscape:connector-curvature="0"
         id="path22"
         d="m 2.65788,7.03208 c 0.815391,0.507261 1.06531,1.57996 0.558024,2.39538 -0.477706,0.7679 -2.00578,1.2779 -2.77813,1.45779 l 0.513832,-0.825911 c -0.0443046,-0.02256 -0.0880734,-0.0471 -0.131081,-0.07386 -0.81542,-0.507261 -1.06531,-1.57996 -0.558052,-2.39538 0.507289,-0.81542 1.57999,-1.06531 2.39541,-0.558024 z"
         class="fil3" /><path
         style="fill:#a7c764;fill-opacity:1"
         inkscape:connector-curvature="0"
         id="path24"
         d="m 4.85907,10.5697 2.24386,0 c 0.219803,0 0.399588,0.179926 0.399588,0.399588 l 0,2.45903 c 0,0.219662 -0.179898,0.399588 -0.399588,0.399588 l -1.99904,0 -0.644405,0.383062 0,-3.24168 c 0,-0.219775 0.179813,-0.399588 0.399588,-0.399588 z"
         class="fil4" /><path
         style="fill:#7a81b5;fill-opacity:1"
         inkscape:connector-curvature="0"
         id="path26"
         d="m 12.7852,9.43407 -3.07857,0 c -0.301559,0 -0.548238,0.246933 -0.548238,0.548238 l 0,1.8606 c 0,0.301334 0.246905,0.548238 0.548238,0.548238 l 2.74269,0 0.884119,0.525592 0,-2.93443 c 0,-0.301559 -0.246679,-0.548238 -0.548238,-0.548238 z"
         class="fil5" /><path
         style="fill:#fcdb00;fill-opacity:1"
         inkscape:connector-curvature="0"
         id="path28"
         d="m 13.9842,4.20888 -2.75569,0 c -0.269917,0 -0.490735,0.221016 -0.490735,0.490735 l 0,1.66544 c 0,0.26972 0.221016,0.490735 0.490735,0.490735 l 2.45503,0 0.791392,0.470458 0,-2.62664 c 0,-0.269917 -0.220818,-0.490735 -0.490735,-0.490735 z"
         class="fil6" /><path
         style="fill:#e14c4e;fill-opacity:1"
         inkscape:connector-curvature="0"
         id="path30"
         d="m 4.96359,5.98459 3.1236,0 c 0.249471,0 0.453453,0.203954 0.453453,0.453425 l 0,1.93967 c 0,0.249471 -0.203982,0.453425 -0.453453,0.453425 l -1.41422,0 -1.03319,0.798893 0,-0.798893 -0.676189,0 c -0.249471,0 -0.453425,-0.203954 -0.453425,-0.453425 l 0,-1.93967 c 0,-0.249471 0.203954,-0.453425 0.453425,-0.453425 z"
         class="fil7" /></g><path
       class="fil8"
       d="m 2.91362,12.075624 c 0,-0.01459 0.0042,-0.02641 0.01217,-0.03509 0.008,-0.0087 0.01911,-0.01286 0.03371,-0.01286 l 1.035617,0 c 0.01531,0 0.02711,0.0045 0.03545,0.01354 0.0083,0.009 0.01253,0.02121 0.01253,0.03652 l 0,0.258638 c 0,0.01183 -0.0042,0.02295 -0.01253,0.03371 -0.0083,0.01079 -0.02051,0.01635 -0.0365,0.01635 l -0.675812,0 0,0.257598 0.521461,0 c 0.01321,0 0.02433,0.0031 0.03304,0.0094 0.0087,0.0063 0.01285,0.01669 0.01285,0.03129 l 0,0.225262 c 0,0.0097 -0.0039,0.01913 -0.01147,0.02815 -0.0076,0.009 -0.01876,0.01357 -0.03338,0.01357 l -0.522501,0 0,0.265942 0.700844,0 c 0.03129,0 0.04692,0.01599 0.04692,0.04798 l 0,0.262798 c 0,0.0069 -0.0027,0.01323 -0.0083,0.01879 -0.0027,0.01947 -0.01702,0.02919 -0.04276,0.02919 l -1.055427,0 c -0.01391,0 -0.02503,-0.0039 -0.03338,-0.01112 -0.0083,-0.0073 -0.0125,-0.01843 -0.0125,-0.03371 l 0,-1.45594 z m 1.256721,1.473666 c 0.0056,-0.01042 0.01147,-0.02121 0.01739,-0.032 0.0059,-0.01076 0.0125,-0.02155 0.02014,-0.03267 L 4.677188,12.783776 C 4.597238,12.663503 4.518314,12.544607 4.440099,12.427115 4.361889,12.309599 4.282628,12.190703 4.20267,12.07043 c -0.0042,-0.0056 -0.0073,-0.01079 -0.0097,-0.01565 -0.0024,-0.0049 -0.0042,-0.01009 -0.0049,-0.01565 0.0014,-0.0056 0.0056,-0.0083 0.01217,-0.008 0.0066,3.39e-4 0.01321,-10e-4 0.02017,-0.0045 l 0.362925,0 c 0.02574,0 0.04591,0.01321 0.06049,0.03961 l 0.255518,0.383797 0.258638,-0.383797 c 0.0146,-0.02641 0.03477,-0.03961 0.06051,-0.03961 l 0.32747,0 c 0.0056,0 0.01216,0 0.01981,0 0.0076,0 0.01495,0 0.02155,3.38e-4 0.0066,3.39e-4 0.01217,0.0017 0.01705,0.0039 0.0049,0.0021 0.0073,0.0052 0.0073,0.0094 0,0.0083 -0.0039,0.01739 -0.01149,0.02711 L 5.12044,12.78387 5.609564,13.513929 c 0.0069,0.0097 0.01253,0.01843 0.01635,0.02641 0.0039,0.008 0.0052,0.01495 0.0045,0.0205 0,0.01042 -0.0063,0.01565 -0.01876,0.01565 l -0.373374,0 c -0.01183,0 -0.02259,-0.0035 -0.03234,-0.01042 -0.0097,-0.0069 -0.01739,-0.01634 -0.02295,-0.02817 L 4.89932,13.117605 4.61877,13.537899 c -0.0056,0.01183 -0.01321,0.02121 -0.02293,0.02817 -0.0097,0.0069 -0.0205,0.01042 -0.03233,0.01042 l -0.355646,0 -0.01876,0 c -0.0056,0 -0.01042,-0.0017 -0.0146,-0.0049 -0.0042,-0.0032 -0.0063,-0.0073 -0.0063,-0.01286 0,-0.0035 6.78e-4,-0.0066 0.0021,-0.0094 z m 1.6478,-1.473666 c 0,-0.01459 0.0039,-0.02641 0.01149,-0.03509 0.0076,-0.0087 0.01911,-0.01286 0.03441,-0.01286 l 0.666428,0 c 0.04796,0 0.09316,0.0066 0.135584,0.01981 0.0424,0.01321 0.08133,0.03129 0.116791,0.05458 0.03545,0.02329 0.06745,0.0511 0.09594,0.08344 0.02852,0.03231 0.05285,0.06743 0.07268,0.104989 0.01981,0.03754 0.03476,0.07681 0.04518,0.118194 0.01042,0.04135 0.01565,0.08342 0.01565,0.125836 0,0.06257 -0.01112,0.123757 -0.03371,0.183567 -0.02261,0.05978 -0.05493,0.11297 -0.09664,0.159552 -0.04172,0.04658 -0.09178,0.08414 -0.150192,0.112994 -0.05841,0.02885 -0.123054,0.0438 -0.193966,0.0445 l -0.316006,0 0,0.496429 c 0,0.0299 -0.01601,0.04484 -0.04798,0.04484 l -0.309742,0 c -0.01391,0 -0.02503,-0.0039 -0.03338,-0.01112 -0.0083,-0.0073 -0.01253,-0.01843 -0.01253,-0.03371 l 0,-1.455939 z m 0.785323,0.456813 c 0,-0.02087 -0.0035,-0.04172 -0.01076,-0.06257 -0.0073,-0.02087 -0.01809,-0.03964 -0.032,-0.05599 -0.01391,-0.01633 -0.0306,-0.02953 -0.0504,-0.03998 -0.01981,-0.01042 -0.04242,-0.01563 -0.06745,-0.01563 l -0.221079,0 0,0.348318 0.221079,0 c 0.02503,0 0.04765,-0.0052 0.06779,-0.01528 0.02017,-0.01009 0.03719,-0.02295 0.05076,-0.03894 0.01357,-0.01599 0.02399,-0.03442 0.03129,-0.05529 0.0073,-0.02085 0.01076,-0.0424 0.01076,-0.06465 z M 7.2407,12.075624 c 0,-0.01459 0.0039,-0.02641 0.01147,-0.03509 0.0076,-0.0087 0.01913,-0.01286 0.03441,-0.01286 l 0.673732,0 c 0.07162,0 0.138703,0.01321 0.201295,0.03998 0.06257,0.02677 0.117153,0.06327 0.163734,0.109149 0.04658,0.04591 0.08343,0.09943 0.110188,0.160954 0.02677,0.06155 0.03998,0.127238 0.03998,0.196772 0,0.04728 -0.0063,0.09212 -0.01911,0.134882 -0.01286,0.04276 -0.03096,0.08274 -0.05388,0.119935 -0.02295,0.03719 -0.05007,0.07094 -0.08169,0.101167 -0.03164,0.03026 -0.06641,0.05633 -0.103949,0.07788 l 0.268023,0.504773 c 0.0049,0.0097 0.01112,0.02121 0.01879,0.03441 0.0076,0.01321 0.01147,0.02469 0.01147,0.03442 0,0.01112 -0.0035,0.01947 -0.01079,0.02537 -0.0073,0.0059 -0.01737,0.009 -0.0299,0.009 l -0.357726,0 c -0.0118,0 -0.02225,-0.0035 -0.03164,-0.01042 -0.0094,-0.0069 -0.01563,-0.01634 -0.0184,-0.02818 l -0.253438,-0.476597 -0.168959,0 0,0.470357 c 0,0.0299 -0.01598,0.04484 -0.04798,0.04484 l -0.309742,0 c -0.01391,0 -0.02503,-0.0039 -0.03338,-0.01112 -0.0083,-0.0073 -0.0125,-0.01843 -0.0125,-0.03371 l 0,-1.45594 z m 0.816595,0.463077 c 0,-0.02087 -0.0039,-0.04172 -0.01147,-0.06259 -0.0076,-0.02085 -0.01843,-0.03998 -0.03234,-0.05735 -0.01391,-0.01739 -0.03059,-0.032 -0.05007,-0.04382 -0.01947,-0.0118 -0.04102,-0.01944 -0.06464,-0.02292 -0.01947,-0.0014 -0.03756,-0.0027 -0.05459,-0.0039 -0.01702,-0.001 -0.0358,-0.0014 -0.05597,-0.0014 l -0.143927,0 0,0.382758 0.191911,0 c 0.0125,0 0.02363,-3.39e-4 0.03335,-10e-4 0.0098,-7.02e-4 0.02053,-0.0017 0.03234,-0.0032 0.02433,-0.0027 0.04624,-0.01006 0.06571,-0.02155 0.01947,-0.01147 0.03579,-0.02571 0.04903,-0.04276 0.01321,-0.01702 0.02329,-0.03616 0.03023,-0.05735 0.0069,-0.02121 0.01042,-0.04276 0.01042,-0.06501 z m 0.648724,-0.463077 c 0,-0.01459 0.0042,-0.02641 0.01217,-0.03509 0.008,-0.0087 0.01911,-0.01286 0.03371,-0.01286 l 1.035617,0 c 0.01531,0 0.02711,0.0045 0.03545,0.01354 0.0083,0.009 0.01253,0.02121 0.01253,0.03652 l 0,0.258638 c 0,0.01183 -0.0042,0.02295 -0.01253,0.03371 -0.0083,0.01079 -0.0205,0.01635 -0.0365,0.01635 l -0.675812,0 0,0.257598 0.521461,0 c 0.01321,0 0.02433,0.0031 0.03303,0.0094 0.0087,0.0063 0.01284,0.01669 0.01284,0.03129 l 0,0.225262 c 0,0.0097 -0.0039,0.01913 -0.01147,0.02815 -0.0076,0.009 -0.01876,0.01357 -0.03338,0.01357 l -0.5225,0 0,0.265942 0.700843,0 c 0.03129,0 0.04692,0.01599 0.04692,0.04798 l 0,0.262798 c 0,0.0069 -0.0027,0.01323 -0.0083,0.01879 -0.0027,0.01947 -0.01702,0.02919 -0.04276,0.02919 l -1.055427,0 c -0.01391,0 -0.02503,-0.0039 -0.03338,-0.01112 -0.0083,-0.0073 -0.0125,-0.01843 -0.0125,-0.03371 l 0,-1.45594 z m 1.602956,1.001228 c 0.01183,0.0097 0.02713,0.02259 0.04554,0.03892 0.01843,0.01635 0.0393,0.0327 0.06293,0.04869 0.03545,0.02363 0.07057,0.04206 0.105327,0.05526 0.03477,0.01321 0.07127,0.01984 0.109512,0.01984 0.03545,0 0.06537,-0.0042 0.08934,-0.01217 0.024,-0.008 0.04276,-0.01843 0.05667,-0.03166 0.01391,-0.01321 0.02399,-0.02849 0.02991,-0.04588 0.0059,-0.01739 0.0087,-0.0358 0.0087,-0.05526 0,-0.02158 -0.008,-0.04102 -0.02433,-0.05807 -0.01635,-0.01702 -0.03652,-0.03197 -0.06015,-0.04518 -0.02363,-0.01323 -0.04832,-0.02469 -0.07405,-0.03408 -0.02571,-0.0094 -0.04796,-0.01702 -0.06673,-0.02329 -0.08344,-0.02922 -0.156455,-0.06085 -0.219023,-0.09456 -0.06257,-0.03371 -0.114735,-0.07127 -0.156431,-0.112631 -0.04172,-0.04138 -0.07302,-0.08692 -0.09386,-0.136624 -0.02087,-0.04972 -0.03129,-0.104989 -0.03129,-0.166178 0,-0.06465 0.01321,-0.123418 0.03928,-0.176239 0.02607,-0.05284 0.06327,-0.09805 0.111591,-0.135583 0.04833,-0.03756 0.106392,-0.06676 0.174522,-0.08726 0.06813,-0.02051 0.144265,-0.0306 0.228406,-0.0306 0.06326,0 0.124095,0.0069 0.182164,0.02121 0.05804,0.01424 0.115074,0.03719 0.171377,0.06847 0.02365,0.01391 0.04624,0.02817 0.06745,0.04312 0.02118,0.01495 0.03961,0.02955 0.0556,0.04346 0.01601,0.01391 0.02888,0.02711 0.03827,0.03961 0.0094,0.01253 0.01391,0.02329 0.01391,0.03234 0,0.009 -0.0021,0.01739 -0.0066,0.02503 -0.0045,0.0076 -0.01147,0.01633 -0.02051,0.02607 l -0.159551,0.169999 c -0.01183,0.01183 -0.02365,0.01773 -0.03545,0.01773 -0.0098,0 -0.01843,-0.0027 -0.02643,-0.0083 -0.008,-0.0056 -0.01702,-0.01253 -0.02677,-0.02087 l -0.0094,-0.0083 c -0.01391,-0.01183 -0.02919,-0.024 -0.04621,-0.03652 -0.01705,-0.0125 -0.03548,-0.024 -0.05495,-0.03406 -0.01944,-0.01009 -0.03998,-0.01843 -0.06152,-0.02503 -0.02155,-0.0066 -0.04344,-0.0097 -0.06569,-0.0097 -0.02295,0 -0.0445,0.0017 -0.06467,0.0056 -0.02017,0.0039 -0.0379,0.01009 -0.05319,0.01843 -0.01531,0.0083 -0.02748,0.01913 -0.0365,0.03267 -0.009,0.01357 -0.01357,0.03026 -0.01357,0.04972 0,0.01947 0.0049,0.03616 0.0146,0.0504 0.0097,0.01424 0.02433,0.02745 0.0438,0.03961 0.01947,0.01219 0.0438,0.02365 0.07265,0.03444 0.02885,0.01076 0.06223,0.02259 0.100466,0.03509 0.07369,0.02433 0.141847,0.04972 0.204077,0.0765 0.0622,0.02675 0.115751,0.05838 0.160953,0.0949 0.04518,0.0365 0.08063,0.0803 0.106029,0.13106 0.02537,0.05074 0.0379,0.112269 0.0379,0.184583 0,0.0765 -0.01565,0.145668 -0.04695,0.207897 -0.03129,0.06223 -0.07405,0.115413 -0.128618,0.159213 -0.05458,0.0438 -0.118895,0.07753 -0.192612,0.101506 -0.07369,0.02399 -0.152948,0.03616 -0.237766,0.03616 -0.07995,0 -0.158535,-0.01425 -0.23571,-0.04276 -0.07718,-0.02849 -0.149127,-0.06673 -0.215879,-0.114712 -0.02781,-0.02017 -0.0511,-0.03998 -0.07024,-0.05945 -0.01911,-0.01947 -0.03441,-0.03512 -0.04554,-0.04694 l -0.0031,-0.0031 c -7.01e-4,-0.0014 -0.0014,-0.0024 -0.0021,-0.0027 -7.01e-4,-3.39e-4 -0.0014,-7.01e-4 -0.0021,-0.0014 -6.77e-4,-0.0014 -0.0014,-0.0024 -0.0021,-0.0027 -7.02e-4,-3.63e-4 -0.0014,-7.02e-4 -0.0021,-0.0014 -0.01599,-0.01739 -0.024,-0.03129 -0.024,-0.04172 0,-0.0118 0.008,-0.02503 0.024,-0.03961 l 0.180423,-0.172103 c 0.0146,-0.01042 0.02641,-0.01563 0.03545,-0.01563 0.0063,0 0.01286,0.0021 0.01984,0.0063 0.0069,0.0042 0.01528,0.01045 0.02501,0.01879 z m 1.36831,0 c 0.01183,0.0097 0.02714,0.02259 0.04554,0.03892 0.01843,0.01635 0.0393,0.0327 0.06293,0.04869 0.03545,0.02363 0.07057,0.04206 0.105328,0.05526 0.03477,0.01321 0.07127,0.01984 0.109512,0.01984 0.03545,0 0.06537,-0.0042 0.08934,-0.01217 0.02399,-0.008 0.04276,-0.01843 0.05667,-0.03166 0.01391,-0.01321 0.024,-0.02849 0.02991,-0.04588 0.0059,-0.01739 0.0087,-0.0358 0.0087,-0.05526 0,-0.02158 -0.008,-0.04102 -0.02433,-0.05807 -0.01635,-0.01702 -0.03652,-0.03197 -0.06015,-0.04518 -0.02363,-0.01323 -0.04832,-0.02469 -0.07405,-0.03408 -0.02571,-0.0094 -0.04796,-0.01702 -0.06673,-0.02329 -0.08344,-0.02922 -0.156454,-0.06085 -0.219022,-0.09456 -0.06257,-0.03371 -0.114735,-0.07127 -0.156432,-0.112631 -0.04172,-0.04138 -0.07301,-0.08692 -0.09386,-0.136624 -0.02087,-0.04972 -0.03129,-0.104989 -0.03129,-0.166178 0,-0.06465 0.01321,-0.123418 0.03928,-0.176239 0.02607,-0.05284 0.06326,-0.09805 0.111592,-0.135583 0.04833,-0.03756 0.106391,-0.06676 0.174521,-0.08726 0.06813,-0.02051 0.144265,-0.0306 0.228406,-0.0306 0.06326,0 0.124095,0.0069 0.182164,0.02121 0.05804,0.01424 0.115074,0.03719 0.171378,0.06847 0.02365,0.01391 0.04624,0.02817 0.06745,0.04312 0.02119,0.01495 0.03961,0.02955 0.05561,0.04346 0.01601,0.01391 0.02887,0.02711 0.03827,0.03961 0.0094,0.01253 0.01391,0.02329 0.01391,0.03234 0,0.009 -0.0021,0.01739 -0.0066,0.02503 -0.0045,0.0076 -0.01147,0.01633 -0.02051,0.02607 l -0.159551,0.169999 c -0.01183,0.01183 -0.02365,0.01773 -0.03545,0.01773 -0.0098,0 -0.01843,-0.0027 -0.02644,-0.0083 -0.008,-0.0056 -0.01702,-0.01253 -0.02677,-0.02087 l -0.0094,-0.0083 c -0.01391,-0.01183 -0.02919,-0.024 -0.04622,-0.03652 -0.01705,-0.0125 -0.03548,-0.024 -0.05495,-0.03406 -0.01944,-0.01009 -0.03998,-0.01843 -0.06152,-0.02503 -0.02155,-0.0066 -0.04344,-0.0097 -0.06568,-0.0097 -0.02295,0 -0.0445,0.0017 -0.06467,0.0056 -0.02017,0.0039 -0.0379,0.01009 -0.05318,0.01843 -0.01531,0.0083 -0.02748,0.01913 -0.0365,0.03267 -0.009,0.01357 -0.01357,0.03026 -0.01357,0.04972 0,0.01947 0.0049,0.03616 0.0146,0.0504 0.0097,0.01424 0.02433,0.02745 0.0438,0.03961 0.01947,0.01219 0.0438,0.02365 0.07266,0.03444 0.02885,0.01076 0.06223,0.02259 0.100466,0.03509 0.07369,0.02433 0.141847,0.04972 0.204076,0.0765 0.0622,0.02675 0.115752,0.05838 0.160953,0.0949 0.04518,0.0365 0.08063,0.0803 0.106029,0.13106 0.02537,0.05074 0.0379,0.112269 0.0379,0.184583 0,0.0765 -0.01565,0.145668 -0.04694,0.207897 -0.03129,0.06223 -0.07405,0.115413 -0.128618,0.159213 -0.05459,0.0438 -0.118896,0.07753 -0.192612,0.101506 -0.07369,0.02399 -0.152949,0.03616 -0.237766,0.03616 -0.07995,0 -0.158535,-0.01425 -0.235711,-0.04276 -0.07717,-0.02849 -0.149127,-0.06673 -0.215878,-0.114712 -0.02781,-0.02017 -0.0511,-0.03998 -0.07024,-0.05945 -0.01911,-0.01947 -0.03441,-0.03512 -0.04554,-0.04694 l -0.0031,-0.0031 c -7.02e-4,-0.0014 -0.0014,-0.0024 -0.0021,-0.0027 -7.02e-4,-3.39e-4 -0.0014,-7.01e-4 -0.0021,-0.0014 -6.78e-4,-0.0014 -0.0014,-0.0024 -0.0021,-0.0027 -7e-4,-3.63e-4 -0.0014,-7.02e-4 -0.0021,-0.0014 -0.01599,-0.01739 -0.024,-0.03129 -0.024,-0.04172 0,-0.0118 0.008,-0.02503 0.024,-0.03961 l 0.180423,-0.172103 c 0.0146,-0.01042 0.02641,-0.01563 0.03545,-0.01563 0.0063,0 0.01286,0.0021 0.01984,0.0063 0.0069,0.0042 0.01528,0.01045 0.02501,0.01879 z m 1.616523,-1.008509 c 7.02e-4,-0.0042 0.0032,-0.0087 0.0069,-0.01357 0.0039,-0.0049 0.0083,-0.0094 0.01391,-0.01357 0.0056,-0.0042 0.01147,-0.0076 0.01773,-0.01006 0.0063,-0.0024 0.01217,-0.0035 0.01773,-0.0035 l 0.266982,0 c 0.01183,0 0.02191,0.0035 0.03026,0.01076 0.0083,0.0073 0.01461,0.01391 0.01876,0.01947 l 0.02607,0.05945 0.547532,1.412134 c 0.0056,0.01388 0.0045,0.02501 -0.0031,0.03371 -0.0076,0.0087 -0.02087,0.01321 -0.03964,0.01321 l -0.299317,0 c -0.01599,0 -0.02816,-0.0031 -0.03686,-0.009 -0.0087,-0.0059 -0.01563,-0.01565 -0.02051,-0.02955 -0.01391,-0.03545 -0.02745,-0.07091 -0.04066,-0.106029 -0.01323,-0.03509 -0.02643,-0.07021 -0.03964,-0.105667 l -0.553797,0 c -0.01321,0.03545 -0.02641,0.07057 -0.03998,0.105667 -0.01354,0.03512 -0.02711,0.07057 -0.04031,0.106029 -0.009,0.02574 -0.02677,0.0386 -0.05319,0.0386 l -0.307662,0 c -0.01323,0 -0.024,-0.0035 -0.0327,-0.01042 -0.0087,-0.0069 -0.01042,-0.01739 -0.0049,-0.03129 l 0.5663,-1.466333 z m 0.189831,0.446365 c -0.01323,0.03545 -0.02643,0.07369 -0.03998,0.114712 -0.01357,0.04102 -0.02711,0.0824 -0.04034,0.124119 -0.01321,0.04172 -0.02641,0.08274 -0.03998,0.123418 -0.01354,0.04066 -0.02711,0.07889 -0.04032,0.114372 l 0.320166,0 -0.159551,-0.476621 z M 13.11965,11.69809 c 0.01321,-0.01877 0.02885,-0.0358 0.04694,-0.0511 0.01807,-0.01528 0.03754,-0.02849 0.05839,-0.03928 0.02087,-0.01079 0.04242,-0.01876 0.06467,-0.02433 0.02225,-0.0056 0.0445,-0.0083 0.06676,-0.0083 0.0125,0 0.02607,0.0014 0.04068,0.0042 0.01458,0.0027 0.03057,0.0076 0.04796,0.0146 0.01739,0.0069 0.03686,0.01599 0.05841,0.02748 0.02155,0.01147 0.04554,0.02607 0.07195,0.04344 0.0076,0.0049 0.01531,0.0087 0.02261,0.01149 0.0073,0.0027 0.01528,0.0042 0.02433,0.0042 0.01461,0 0.02677,-0.0031 0.0365,-0.009 0.0097,-0.0059 0.01876,-0.01321 0.02711,-0.02223 l 0.03442,-0.04172 c 0.0063,-0.009 0.01323,-0.01391 0.02051,-0.01427 0.0073,-3.38e-4 0.01391,0.0027 0.02017,0.009 l 0.107431,0.09386 c 0.0076,0.0076 0.01286,0.01425 0.01528,0.01981 0.0024,0.0056 0,0.01286 -0.0069,0.02191 l -0.03129,0.04068 c -0.02781,0.03824 -0.06223,0.06813 -0.103247,0.08968 -0.04102,0.02155 -0.08448,0.03234 -0.130359,0.03234 -0.02711,0 -0.05459,-0.0049 -0.0824,-0.01425 -0.02781,-0.0094 -0.05459,-0.02191 -0.0803,-0.0379 l -0.05736,-0.0365 c -0.0076,-0.0049 -0.01495,-0.0087 -0.02191,-0.01149 -0.0069,-0.0027 -0.01528,-0.0042 -0.02503,-0.0042 -0.01388,0 -0.02571,0.0027 -0.0358,0.0083 -0.01008,0.0056 -0.01913,0.01286 -0.02677,0.02189 l -0.03234,0.04172 c -0.0042,0.0069 -0.01147,0.01079 -0.02189,0.01183 -0.01042,0.001 -0.01876,-0.0014 -0.02503,-0.0076 l -0.107431,-0.09074 c -0.0034,-0.0035 -0.0063,-0.0069 -0.0087,-0.01009 -0.0024,-0.0031 -0.0039,-0.0076 -0.0039,-0.01391 0,-7.01e-4 3.39e-4,-0.0021 7.01e-4,-0.0042 3.39e-4,-0.0021 0.0017,-0.0052 0.0042,-0.0094 0.0024,-0.0042 0.0059,-0.01009 0.01079,-0.01739 0.0049,-0.0073 0.0118,-0.01669 0.02085,-0.02852 z m 1.533088,1.104447 c 0,0.05773 0.0098,0.111615 0.02922,0.161655 0.01947,0.05007 0.04692,0.09352 0.08204,0.130721 0.03512,0.03719 0.07647,0.06639 0.124458,0.0876 0.04796,0.02121 0.100805,0.032 0.158511,0.032 0.05773,0 0.110914,-0.01079 0.159236,-0.032 0.04833,-0.02121 0.09004,-0.0504 0.125136,-0.0876 0.03512,-0.03719 0.06223,-0.08066 0.08169,-0.130721 0.01947,-0.05004 0.02922,-0.103925 0.02922,-0.161655 0,-0.057 -0.0098,-0.11089 -0.02922,-0.161292 -0.01947,-0.0504 -0.04659,-0.0942 -0.08169,-0.131762 -0.03509,-0.03754 -0.07682,-0.06709 -0.125136,-0.08864 -0.04832,-0.02155 -0.101506,-0.03233 -0.159236,-0.03233 -0.05771,0 -0.110551,0.01079 -0.158511,0.03233 -0.04798,0.02155 -0.08934,0.0511 -0.124458,0.08864 -0.03512,0.03756 -0.06257,0.08136 -0.08204,0.131762 -0.01947,0.0504 -0.02922,0.104287 -0.02922,0.161292 z m -0.402566,0.001 c 0,-0.07372 0.0094,-0.144628 0.02817,-0.21242 0.01876,-0.06779 0.04554,-0.131399 0.0803,-0.190846 0.03476,-0.05945 0.07647,-0.113332 0.124797,-0.162018 0.04832,-0.04866 0.101869,-0.09038 0.160953,-0.124796 0.05911,-0.03442 0.122717,-0.06119 0.190509,-0.0803 0.06779,-0.01913 0.138364,-0.02851 0.212057,-0.02851 0.07301,0 0.143589,0.0094 0.211718,0.02851 0.06815,0.01911 0.131762,0.04588 0.190872,0.0803 0.05909,0.03441 0.112969,0.07614 0.16163,0.124796 0.04869,0.04869 0.09041,0.10257 0.124821,0.162018 0.03441,0.05945 0.06119,0.123054 0.0803,0.190846 0.01913,0.06779 0.02851,0.138703 0.02851,0.21242 0,0.07369 -0.0094,0.144266 -0.02851,0.212057 -0.01911,0.06779 -0.04588,0.131061 -0.0803,0.189807 -0.03442,0.05875 -0.07614,0.112293 -0.124821,0.160615 -0.04866,0.04833 -0.102546,0.09004 -0.16163,0.124796 -0.05911,0.03475 -0.122717,0.06152 -0.190872,0.0803 -0.06813,0.01879 -0.138703,0.02817 -0.211718,0.02817 -0.07369,0 -0.144266,-0.0094 -0.212057,-0.02817 -0.06779,-0.01877 -0.131399,-0.04554 -0.190509,-0.0803 -0.05909,-0.03476 -0.112631,-0.07647 -0.160953,-0.124796 -0.04832,-0.04833 -0.09004,-0.101869 -0.124797,-0.160615 -0.03476,-0.05875 -0.06152,-0.122015 -0.0803,-0.189807 -0.01879,-0.06779 -0.02817,-0.138364 -0.02817,-0.212057 z"
       id="path32"
       inkscape:connector-curvature="0"
       style="fill:#88878c;fill-opacity:1;fill-rule:nonzero" /></g></svg>