<?xml version="1.0" encoding="UTF-8" standalone="no"?>
<svg
   xmlns:dc="http://purl.org/dc/elements/1.1/"
   xmlns:cc="http://creativecommons.org/ns#"
   xmlns:rdf="http://www.w3.org/1999/02/22-rdf-syntax-ns#"
   xmlns:svg="http://www.w3.org/2000/svg"
   xmlns="http://www.w3.org/2000/svg"
   xmlns:sodipodi="http://sodipodi.sourceforge.net/DTD/sodipodi-0.dtd"
   xmlns:inkscape="http://www.inkscape.org/namespaces/inkscape"
   style="clip-rule:evenodd;fill-rule:evenodd;image-rendering:optimizeQuality;shape-rendering:geometricPrecision;text-rendering:geometricPrecision"
   xml:space="preserve"
   height="338"
   width="320"
   version="1.1"
   viewBox="0 0 12.814392 13.535135"
   id="svg3428"
   inkscape:version="0.91 r13725"
   sodipodi:docname="logo-audiencias-publicas.svg"><metadata
     id="metadata3480"><rdf:RDF><cc:Work
         rdf:about=""><dc:format>image/svg+xml</dc:format><dc:type
           rdf:resource="http://purl.org/dc/dcmitype/StillImage" /><dc:title></dc:title></cc:Work></rdf:RDF></metadata><sodipodi:namedview
     pagecolor="#ffffff"
     bordercolor="#666666"
     borderopacity="1"
     objecttolerance="10"
     gridtolerance="10"
     guidetolerance="10"
     inkscape:pageopacity="0"
     inkscape:pageshadow="2"
     inkscape:window-width="1920"
     inkscape:window-height="1016"
     id="namedview3478"
     showgrid="false"
     fit-margin-top="0"
     fit-margin-left="0"
     fit-margin-right="0"
     fit-margin-bottom="0"
     inkscape:zoom="2.3694444"
     inkscape:cx="75.945771"
     inkscape:cy="146.26253"
     inkscape:window-x="0"
     inkscape:window-y="27"
     inkscape:window-maximized="1"
     inkscape:current-layer="svg3428" /><defs
     id="defs3430"><style
       type="text/css"
       id="style3432"><![CDATA[
    .fil4 {fill:#DEDEDD}
    .fil0 {fill:#F8C300}
    .fil3 {fill:white}
    .fil5 {fill:#293554}
    .fil1 {fill:#3D9BCA}
    .fil2 {fill:#47C7FF}
    .fil7 {fill:#F8C300;fill-rule:nonzero}
    .fil6 {fill:white;fill-rule:nonzero}
   ]]></style></defs><g
     transform="matrix(1.3786107,0,0,1.3754239,0.00228712,-5.1974783e-4)"
     id="g3434"
     inkscape:export-xdpi="90"
     inkscape:export-ydpi="90"><path
       class="fil0"
       d="m 1.928,0.09904 c 1.811,1.134 3.469,2.19 5.279,3.324 0.1295,0.08109 0.1979,0.1527 0.179,0.2269 0.01886,0.07425 -0.04948,0.1458 -0.179,0.2269 -1.811,1.134 -3.469,2.19 -5.279,3.324 -0.1957,0.1225 -0.2746,0.1712 -0.2746,-0.09272 l 0,-6.916 c 0,-0.2639 0.07894,-0.2153 0.2746,-0.09272 z"
       id="path3436"
       inkscape:connector-curvature="0"
       style="fill:#f8c300" /><path
       d="m 1.611,2.438 c 0.6913,0 1.252,0.5606 1.252,1.252 0,0.5631 -0.3719,1.039 -0.8834,1.197 l -0.738,0 C 0.7302,4.729 0.3583,4.253 0.3583,3.69 c 0,-0.6913 0.5606,-1.252 1.252,-1.252 z"
       class="fil1"
       id="path3438"
       inkscape:connector-curvature="0"
       style="fill:#3d9bca" /><path
       d="M 1.242,4.887 C 0.7307,4.729 0.3587,4.253 0.3587,3.69 c 0,-0.6588 0.5091,-1.199 1.155,-1.248 0.4503,0.2346 0.7578,0.7056 0.7578,1.248 0,0.03687 -0.00147,0.0734 -0.00425,0.1096 l -1.41,-0.021 0.0251,0.01 1.183,0.251 c 0.06849,0.01452 0.1537,0.04236 0.1233,0.1268 -0.1084,0.3008 -0.3165,0.5539 -0.5844,0.7198 l -0.3622,0 z"
       class="fil2"
       id="path3440"
       inkscape:connector-curvature="0"
       style="fill:#47c7ff" /><path
       class="fil3"
       d="m 1.242,4.887 -0.241,0 c -0.05305,0 -0.09646,0.03578 -0.09646,0.07949 l 0,0.2208 c 0,0.04371 0.04341,0.07949 0.09646,0.07949 l 1.222,0 c 0.05303,0 0.09647,-0.03578 0.09647,-0.07949 l 0,-0.221 C 2.31947,4.92259 2.27606,4.8868 2.223,4.8868 l -0.981,0 z"
       id="path3442"
       inkscape:connector-curvature="0"
       style="fill:#ffffff" /><path
       class="fil3"
       d="m 2.096,5.379 -0.977,0 0.1905,2.793 c 0.00242,0.03573 0.02933,0.06516 0.06516,0.06516 l 0.4654,0 c 0.0358,0 0.0627,-0.02942 0.06514,-0.06516 z"
       id="path3444"
       inkscape:connector-curvature="0"
       style="fill:#ffffff" /><path
       class="fil4"
       d="m 2.192,4.966 0,0.2208 c 0,0.04371 -0.04342,0.07949 -0.09647,0.07949 l 0.1281,0 c 0.05303,0 0.09647,-0.03578 0.09647,-0.07949 l 0,-0.221 c 0,-0.0437 -0.04341,-0.07949 -0.09647,-0.07949 l -0.129,0 c 0.05306,0 0.09647,0.0358 0.09647,0.07949 z"
       id="path3446"
       inkscape:connector-curvature="0"
       style="fill:#dededd" /><path
       class="fil4"
       d="M 1.67,5.379 1.661,8.172 c 0,0.036 -0.029,0.065 -0.065,0.065 l 0.244,0 c 0.0358,0 0.0627,-0.02942 0.06514,-0.06516 l 0.1905,-2.793 z"
       id="path3448"
       inkscape:connector-curvature="0"
       style="fill:#dededd" /><path
       class="fil5"
       d="m 0.9536,3.136 c -0.01856,0.01856 -0.04866,0.01856 -0.06722,0 -0.01854,-0.01856 -0.01854,-0.04866 0,-0.06722 0.0926,-0.093 0.2016,-0.166 0.3216,-0.215 0.119,-0.049 0.248,-0.076 0.378,-0.076 0.02624,0 0.04752,0.02126 0.04752,0.04752 0,0.02624 -0.02128,0.04751 -0.04752,0.04751 -0.118,0 -0.235,0.024 -0.342,0.068 -0.107,0.045 -0.206,0.111 -0.2904,0.195 z m 0.03089,1.639 1.252,0 c 0.3434,-0.1988 0.5837,-0.556 0.6208,-0.9717 l -2.494,0 C 0.40034,4.219 0.64059,4.5762 0.98409,4.775 Z M 0.60569,3.634 c 0.0057,-0.041 0.0139,-0.082 0.0246,-0.122 0.0222,-0.083 0.0554,-0.163 0.0989,-0.238 0.013,-0.023 0.0419,-0.031 0.0646,-0.018 0.0226,0.013 0.0305,0.042 0.0174,0.065 -0.039,0.068 -0.069,0.14 -0.0892,0.216 -0.0086,0.032 -0.0153,0.064 -0.0203,0.097 l 2.16,0 C 2.83225,2.9688 2.28349,2.438 1.61069,2.438 c -0.6725,0 -1.221,0.5305 -1.251,1.196 z m 0.395,1.253 1.222,0 c 0.05306,0 0.09646,0.03579 0.09646,0.0795 l 0,0.2208 c 0,0.04371 -0.04341,0.07949 -0.09646,0.07949 l -1.222,0 c -0.05303,0 -0.09646,-0.03576 -0.09646,-0.07949 l 0,-0.221 c 0,-0.04372 0.04341,-0.0795 0.09646,-0.0795 z m 1.465,-0.07999 c 0.0258,0.02322 0.04209,0.05683 0.04209,0.09405 l 0,0.351 c 0,0.06964 -0.05697,0.1266 -0.1266,0.1266 l -0.03642,0 -0.2871,2.94 C 2.05239,8.37257 2.01333,8.41713 1.95919,8.41713 l -0.7034,0 c -0.05414,0 -0.0932,-0.04456 -0.09847,-0.09847 l -0.2871,-2.94 -0.008279,0 c -0.06964,0 -0.1266,-0.05697 -0.1266,-0.1266 l 0,-0.351 c 0,-0.03243 0.01237,-0.06211 0.0326,-0.08458 -0.3158,-0.235 -0.5283,-0.599 -0.5611,-1.014 l -0.1241,0 c -0.04643,0 -0.0844,-0.038 -0.0844,-0.084 0,-0.04642 0.03797,-0.08439 0.08439,-0.08439 l 0.1208,0 c 0.02956,-0.7507 0.6476,-1.35 1.405,-1.35 0.7579,0 1.376,0.5998 1.405,1.35 l 0.1208,0 c 0.04642,0 0.08439,0.03797 0.08439,0.08439 0,0.04642 -0.03797,0.08441 -0.08439,0.08441 l -0.1241,0 c -0.03237,0.4089 -0.2397,0.7685 -0.5471,1.004 z m -0.3698,0.5723 -0.9767,0 0.1905,2.793 c 0.00242,0.03575 0.02935,0.06516 0.06516,0.06516 l 0.4654,0 c 0.03582,0 0.06274,-0.02941 0.06516,-0.06516 l 0.1905,-2.793 z"
       id="path3450"
       inkscape:connector-curvature="0"
       style="fill:#293554" /><path
       d="M 2.65,7.596 C 2.6503727,7.59376 2.65167,7.59135 2.65372,7.58874 2.65575,7.58613 2.65818,7.58371 2.66117,7.58148 2.66414,7.57924 2.66731,7.57738 2.67067,7.57608 2.674,7.57478 2.67718,7.57423 2.68017,7.57423 l 0.1429,0 c 0.00632,0 0.01171,0.00185 0.01619,0.00577 0.00446,0.0039 0.00781,0.00745 0.01005,0.01042 l 0.01395,0.03182 0.2931,0.7559 C 3.15935,8.38559 3.15878,8.39153 3.15469,8.39619 3.15061,8.40084 3.14352,8.40326 3.13349,8.40326 l -0.16,0 C 2.96493,8.40326 2.95841,8.40159 2.95376,8.39842 2.9491,8.39524 2.94539,8.39004 2.94278,8.38259 2.93533,8.36361 2.92808,8.34464 2.92102,8.32584 2.91393,8.30704 2.90687,8.28825 2.8998,8.26926 l -0.296,0 C 2.59673,8.28824 2.58966,8.30704 2.58241,8.32584 2.57515,8.34464 2.56789,8.3636 2.56082,8.38259 2.55598,8.39637 2.5465,8.40325 2.53234,8.40325 l -0.165,0 C 2.36027,8.40325 2.35449,8.40138 2.34985,8.39768 2.3452,8.39396 2.34428,8.38837 2.34724,8.38093 l 0.303,-0.785 z M 2.7516,7.8349 C 2.74452,7.85388 2.73745,7.87436 2.73019,7.89631 2.72293,7.91828 2.71568,7.94041 2.7086,7.96275 2.70153,7.98507 2.69446,8.00704 2.68721,8.02881 2.67995,8.05059 2.6727,8.07105 2.66562,8.09003 l 0.1714,0 z m 1.151,0.5588 C 3.89776,8.3978 3.89274,8.40039 3.88734,8.40151 3.88194,8.40262 3.87673,8.40318 3.8719,8.40318 l -0.08431,0 C 3.7809,8.40318 3.77513,8.40188 3.77029,8.39946 3.76545,8.39705 3.76136,8.39389 3.758,8.3898 3.75467,8.3857 3.75186,8.38103 3.74963,8.37584 3.74741,8.37063 3.74555,8.36523 3.74406,8.35965 L 3.72676,8.28819 C 3.72119,8.29973 3.71318,8.31275 3.70257,8.32746 3.69196,8.34216 3.67837,8.35592 3.66199,8.36877 3.64562,8.3816 3.62607,8.3924 3.60338,8.40115 3.58067,8.4099 3.55462,8.41437 3.52522,8.41437 3.48279,8.41437 3.44427,8.40618 3.40962,8.38981 3.37501,8.37342 3.3456,8.3511 3.32123,8.32281 3.29686,8.29452 3.27787,8.2614 3.26447,8.22362 3.25108,8.18586 3.24437,8.14565 3.24437,8.10282 l 0,-0.366 c 0,-0.01414 0.00318,-0.02493 0.00931,-0.03219 0.00615,-0.00726 0.01583,-0.0108 0.02922,-0.0108 l 0.129,0 c 0.016,0 0.02697,0.00261 0.03293,0.00799 0.00595,0.00539 0.00893,0.016 0.00893,0.03164 l 0,0.3634 c 0,0.016 0.00371,0.03107 0.01098,0.04539 0.00726,0.01434 0.01675,0.02698 0.02865,0.03797 0.01192,0.01098 0.02549,0.01973 0.04058,0.02605 0.01507,0.00632 0.03032,0.0095 0.04597,0.0095 0.01339,0 0.02734,-0.00318 0.04168,-0.0095 C 3.63594,8.19995 3.64916,8.19139 3.66125,8.18078 3.67335,8.17017 3.68322,8.15771 3.69103,8.14337 3.69884,8.12905 3.70276,8.11398 3.70276,8.09796 l 0,-0.363 c 0,-0.00632 0.0013,-0.01264 0.00371,-0.01898 C 3.70889,7.70966 3.71243,7.70483 3.71727,7.70147 3.72212,7.69848 3.72677,7.69645 3.73105,7.69533 3.73532,7.69422 3.74016,7.69366 3.74575,7.69366 l 0.1262,0 c 0.016,0 0.02754,0.00391 0.03461,0.01173 0.00707,0.00781 0.01061,0.01824 0.01061,0.03126 l 0,0.6247 c 0,0.00707 -0.00149,0.01358 -0.00466,0.01953 C 3.90933,8.38684 3.90489,8.39149 3.89931,8.39484 L 3.90264,8.39317 Z M 4.5508,8.31666 C 4.54075,8.32671 4.52976,8.33749 4.51768,8.34904 4.50558,8.36058 4.49219,8.37138 4.47766,8.38142 4.46315,8.39147 4.44752,8.39966 4.43078,8.40618 4.41402,8.41269 4.39598,8.41604 4.37662,8.41604 c -0.05063,0 -0.09714,-0.0095 -0.1398,-0.02848 -0.042,-0.02 -0.079,-0.046 -0.11,-0.079 -0.031,-0.033 -0.055,-0.071 -0.072,-0.116 -0.017,-0.045 -0.026,-0.093 -0.026,-0.144 0,-0.05173 0.00875,-0.09994 0.02605,-0.1444 0.01731,-0.04448 0.04131,-0.08317 0.07202,-0.1161 0.0307,-0.03293 0.06736,-0.0588 0.11,-0.0776 0.04263,-0.0188 0.08914,-0.0281 0.1398,-0.0281 0.02046,0 0.03926,0.00299 0.05619,0.00893 0.01693,0.00596 0.03239,0.01359 0.04634,0.0229 0.01397,0.00931 0.0268,0.01971 0.03853,0.03144 0.01171,0.01173 0.0227,0.02327 0.03312,0.03442 l 0,-0.255 C 4.55087,7.51313 4.55459,7.5031 4.56185,7.4949 4.56911,7.48671 4.5799,7.48263 4.59441,7.48263 l 0.1256,0 c 0.00484,0 0.01005,9.32e-4 0.01544,0.00297 0.0054,0.00205 0.01023,0.00503 0.01471,0.00875 0.00446,0.00372 0.00819,0.0082 0.01097,0.01341 0.00279,0.00521 0.0041,0.01098 0.0041,0.0173 l 0,0.8346 c 0,0.02866 -0.01507,0.04298 -0.04522,0.04298 l -0.11,0 c -0.00745,0 -0.0132,-9.322e-4 -0.0173,-0.00279 C 4.58863,8.398 4.58526,8.3952 4.58248,8.39166 4.5797,8.38813 4.57709,8.38367 4.57486,8.37827 4.57264,8.37287 4.56984,8.36673 4.56649,8.35966 L 4.55028,8.31611 Z m -0.321,-0.268 c 0,0.02456 0.00391,0.04746 0.01154,0.06885 0.00762,0.02141 0.01842,0.04002 0.03256,0.05565 0.01415,0.01563 0.03127,0.02792 0.05119,0.03704 0.0199,0.00912 0.04187,0.01376 0.06605,0.01376 0.02382,0 0.04634,-0.00427 0.06736,-0.01283 C 4.47954,8.20257 4.49777,8.19065 4.5134,8.17559 4.52904,8.16051 4.54169,8.14283 4.55118,8.12237 4.56068,8.10189 4.56588,8.07993 4.567,8.05649 l 0,-0.008 c 0,-0.02382 -0.00446,-0.04653 -0.01339,-0.0681 -0.009,-0.022 -0.021,-0.041 -0.037,-0.057 -0.016,-0.016 -0.035,-0.029 -0.056,-0.039 -0.021,-0.009 -0.045,-0.014 -0.07,-0.014 -0.02419,0 -0.04615,0.00466 -0.06606,0.01414 C 4.30463,7.89403 4.28751,7.90706 4.27336,7.92343 4.25922,7.9398 4.24843,7.95879 4.2408,7.98038 4.23318,8.00196 4.22926,8.02467 4.22926,8.04848 Z m 0.683,-0.311 c 0,-0.01192 0.00333,-0.02214 0.01004,-0.0307 C 4.92955,7.6984 4.93996,7.69411 4.95411,7.69411 l 0.1278,0 c 0.00448,0 0.00931,9.321e-4 0.01452,0.00299 0.00521,0.00203 0.01005,0.00502 0.01451,0.00893 0.00448,0.0039 0.00837,0.00856 0.01154,0.01376 0.00316,0.00523 0.00465,0.01117 0.00465,0.01786 l 0,0.6225 c 0,0.01414 -0.0039,0.02475 -0.01171,0.032 C 5.10761,8.39941 5.09644,8.40313 5.08191,8.40313 l -0.127,0 C 4.92737,8.40313 4.9136,8.38881 4.9136,8.36015 l 0,-0.622 z m 0,-0.2825 c 0,-0.01563 0.00333,-0.0268 0.01004,-0.03331 C 4.92955,7.41532 4.93996,7.41217 4.95411,7.41217 l 0.1295,0 c 0.01303,0 0.02364,0.00316 0.03164,0.00968 0.00799,0.00651 0.0119,0.01768 0.0119,0.03331 l 0,0.1089 c 0,0.00446 -9.321e-4,0.00931 -0.00297,0.01451 C 5.12213,7.58378 5.11915,7.5888 5.11543,7.59364 5.11171,7.59849 5.10724,7.60239 5.10184,7.60556 5.09645,7.60874 5.0903,7.6104 5.0836,7.6104 l -0.129,0 c -0.02754,0 -0.04131,-0.01544 -0.04131,-0.04632 l 0,-0.11 z m 0.9563,0.8631 C 5.83635,8.3484 5.7995,8.37186 5.7586,8.38879 5.71766,8.40572 5.67431,8.41428 5.6285,8.41428 c -0.05098,0 -0.09919,-0.00931 -0.1446,-0.02792 -0.045,-0.019 -0.085,-0.045 -0.119,-0.078 -0.034,-0.033 -0.061,-0.072 -0.081,-0.116 -0.021,-0.045 -0.031,-0.094 -0.031,-0.146 C 5.2529,8.01361 5.257,7.98178 5.265,7.95108 5.27299,7.92037 5.28436,7.89172 5.29905,7.86492 5.31376,7.83812 5.33163,7.81336 5.35265,7.79085 5.37369,7.76834 5.39713,7.74917 5.42318,7.73317 5.44923,7.71715 5.47752,7.70469 5.50805,7.69576 5.53856,7.68683 5.57076,7.68235 5.60463,7.68235 c 0.03088,0 0.06085,0.0041 0.08988,0.01229 0.02902,0.00819 0.05638,0.01973 0.08187,0.03461 0.02549,0.01488 0.04876,0.03275 0.06997,0.0536 0.02122,0.02085 0.03946,0.04354 0.05471,0.06829 0.01527,0.02475 0.02717,0.05117 0.03554,0.07928 0.00837,0.0281 0.01248,0.05714 0.01248,0.0869 0,0.01936 -1.864e-4,0.03519 -7.457e-4,0.04746 -5.592e-4,0.01229 -0.00354,0.02197 -0.00875,0.02922 -0.00523,0.00726 -0.01378,0.01227 -0.02586,0.01507 -0.0121,0.00279 -0.02997,0.00429 -0.05341,0.00429 l -0.401,0 c 0.00372,0.02382 0.01136,0.04373 0.02271,0.05973 0.01134,0.016 0.02437,0.02866 0.03926,0.03815 0.0149,0.0095 0.03071,0.01637 0.04746,0.02046 0.01675,0.0041 0.03256,0.00615 0.04744,0.00615 0.01341,0 0.02717,-0.00149 0.04132,-0.00429 0.01414,-0.00279 0.02792,-0.00651 0.04112,-0.01117 0.01322,-0.00465 0.02531,-0.01005 0.03629,-0.01619 0.01098,-0.00614 0.01973,-0.01246 0.02642,-0.01917 0.00595,-0.00484 0.01117,-0.00856 0.01544,-0.01097 0.00429,-0.00242 0.00875,-0.00354 0.01359,-0.00354 0.00484,0 0.00986,0.00167 0.01488,0.00502 0.00503,0.00335 0.01061,0.00819 0.01693,0.01452 l 0.05919,0.06699 c 0.00408,0.00485 0.00669,0.00912 0.00781,0.01303 0.00111,0.0039 0.00167,0.00799 0.00167,0.01209 0,0.00746 -0.00205,0.01378 -0.00615,0.01917 -0.00408,0.0054 -0.00893,0.01023 -0.01451,0.01434 z m -0.268,-0.466 c -0.01451,0 -0.02848,0.00279 -0.04205,0.00856 C 5.54546,7.86659 5.53263,7.87441 5.52071,7.88408 5.50881,7.89376 5.4982,7.90474 5.48871,7.91703 5.47921,7.9293 5.47141,7.94178 5.46544,7.95444 l 0.286,0 c -0.008,-0.014 -0.016,-0.028 -0.025,-0.04 -0.01,-0.012 -0.02,-0.023 -0.032,-0.032 -0.011,-0.01 -0.025,-0.017 -0.04,-0.022 -0.015,-0.005 -0.033,-0.008 -0.053,-0.008 z M 5.6106,7.39666 C 5.61321,7.39481 5.61526,7.3935 5.61674,7.39276 5.61823,7.3920144 5.62028,7.39165 5.62289,7.39165 c 0.00297,0 0.00669,0.00167 0.01115,0.00502 l 0.1435,0.1429 c 0.00299,0.00224 0.00448,0.00653 0.00448,0.01285 0,0.00335 -0.00167,0.00688 -0.00503,0.01061 L 5.72787,7.61327 C 5.72377,7.61737 5.71875,7.61941 5.7128,7.61941 5.70795,7.61941 5.70387,7.61775 5.70051,7.61439 L 5.62291,7.53511 5.54363,7.61494 C 5.53953,7.61902 5.53526,7.62051 5.5306,7.6194 5.52595,7.61829 5.52204,7.61624 5.51906,7.61326 L 5.46882,7.56468 C 5.46695,7.56283 5.46583,7.56078 5.46528,7.55873 5.4647362,7.55668 5.46419,7.55465 5.46381,7.55241 5.46381,7.54942 5.4643692,7.547 5.46528,7.54515 5.4662121,7.54328 5.46733,7.54161 5.46882,7.54012 l 0.1418,-0.1435 z m 0.4729,0.3059 C 6.08834,7.69846 6.09355,7.69587 6.09894,7.69475 6.10433,7.69364 6.10936,7.69308 6.1142,7.69308 l 0.08431,0 c 0.00669,0 0.01246,0.00111 0.0173,0.00354 0.00484,0.00241 0.00893,0.00577 0.01227,0.00985 0.00335,0.0041 0.00615,0.00877 0.0082,0.01396 0.00203,0.00521 0.0039,0.01061 0.00577,0.01619 l 0.0173,0.07146 C 6.26492,7.79654 6.27311,7.78333 6.28372,7.76862 6.29433,7.75392 6.30772,7.74016 6.32411,7.72731 6.34048,7.71448 6.36003,7.70368 6.38254,7.69493 6.40507,7.68618 6.43112,7.6819 6.46088,7.6819 c 0.04243,0 0.08095,0.00819 0.1156,0.02456 0.03461,0.01639 0.0642,0.03871 0.08858,0.067 0.02437,0.02829 0.04317,0.06122 0.05658,0.099 0.01339,0.03778 0.0201,0.07816 0.0201,0.121 l 0,0.3657 c 0,0.01414 -0.00299,0.02475 -0.00912,0.032 C 6.72647,8.39842 6.7166,8.40214 6.70321,8.40214 l -0.128,0 c -0.016,0 -0.02698,-0.00279 -0.03293,-0.00819 C 6.53633,8.38856 6.53335,8.37813 6.53335,8.36249 l 0,-0.363 c 0,-0.016 -0.00353,-0.03126 -0.0108,-0.04558 C 6.51529,7.93957 6.50562,7.92693 6.49372,7.91594 6.4818,7.90496 6.4684,7.8964 6.45333,7.89008 6.43826,7.88376 6.42282,7.88058 6.40718,7.88058 6.39379,7.88058 6.3802,7.88357 6.36624,7.88951 6.35229,7.89546 6.33944,7.90365 6.32771,7.91426 6.316,7.92487 6.30613,7.93733 6.29813,7.95167 6.29014,7.96599 6.28547,7.98164 6.28435,7.99838 l 0,0.3629 c 0,0.00632 -0.00111,0.01265 -0.00353,0.01898 C 6.2784,8.38658 6.27467,8.39141 6.26984,8.39477 6.26499,8.39776 6.26053,8.39979 6.25625,8.40091 6.25198,8.40202 6.24694,8.40258 6.24137,8.40258 l -0.126,0 c -0.016,0 -0.02754,-0.00391 -0.03461,-0.01173 C 6.07369,8.38304 6.07015,8.37261 6.07015,8.35959 l 0,-0.625 C 6.07015,7.72752 6.07182,7.72101 6.075,7.71506 6.07818,7.7091 6.08245,7.70445 6.08802,7.70109 L 6.08469,7.70276 Z m 1.235,0.4812 C 7.32373,8.18004 7.32873,8.17761 7.3334,8.17668 7.33805,8.1757634 7.34159,8.17539 7.34418,8.17539 c 0.00634,0 0.0121,0.00129 0.01731,0.0039 0.00523,0.00261 0.01061,0.00819 0.0162,0.01675 L 7.4402,8.2904 c 0.00187,0.00297 0.00372,0.00632 0.0054,0.01004 0.00167,0.00372 0.00242,0.00671 0.00242,0.00893 0,0.00856 -0.00261,0.01546 -0.00799,0.02085 C 7.43463,8.33561 7.42867,8.34045 7.42235,8.34454 7.39182,8.36576 7.35852,8.38269 7.32225,8.39554 7.28596,8.40837 7.24743,8.4149 7.20685,8.4149 c -0.03349,0 -0.0657,-0.00429 -0.09677,-0.01285 -0.031,-0.008 -0.06,-0.02 -0.087,-0.036 -0.027,-0.015 -0.051,-0.034 -0.074,-0.057 -0.022,-0.022 -0.041,-0.046 -0.057,-0.073 -0.015,-0.028 -0.027,-0.057 -0.036,-0.089 -0.009,-0.031 -0.013,-0.064 -0.013,-0.098 0,-0.03424 0.00446,-0.06717 0.0132,-0.09882 C 6.86503,7.9186 6.87713,7.88919 6.89276,7.86221 6.9084,7.83523 6.92737,7.81067 6.94971,7.78851 6.97203,7.76637 6.99661,7.74757 7.02341,7.73195 7.05021,7.71631 7.07923,7.70422 7.11031,7.69566 7.14138,7.6871 7.17358,7.68281 7.20708,7.68281 c 0.04056,0 0.07816,0.00541 0.1126,0.01619 0.03442,0.0108 0.06663,0.0268 0.09677,0.04802 L 7.41478,7.74535 c 0.00819,0.00485 0.01471,0.01042 0.01954,0.01693 0.00485,0.00653 0.00726,0.01471 0.00726,0.02439 0,0.00669 -0.00222,0.01358 -0.00669,0.02065 L 7.38521,7.89163 C 7.37479,7.90987 7.36213,7.91899 7.34724,7.91899 7.34389,7.91899 7.33979,7.9180579 7.33495,7.91638 7.33011,7.91471 7.32473,7.9119 7.31876,7.90782 7.30239,7.89702 7.28489,7.88809 7.2661,7.88121 7.2473,7.87433 7.22722,7.87098 7.206,7.87098 7.18256,7.87098 7.16096,7.87564 7.14124,7.88512 7.12151,7.89462 7.10476,7.90765 7.09081,7.92402 7.07686,7.94039 7.06588,7.95938 7.05806,7.98097 7.05025,8.00255 7.04633,8.02526 7.04633,8.04907 c 0,0.02456 0.00391,0.04746 0.01173,0.06885 0.00781,0.02141 0.0188,0.04002 0.03275,0.05565 0.01395,0.01563 0.0307,0.02792 0.05043,0.03704 0.01973,0.00912 0.04132,0.01376 0.06476,0.01376 0.02122,0 0.04112,-0.00371 0.05973,-0.01117 C 7.28434,8.20575 7.30202,8.19627 7.31877,8.18474 Z m 0.235,-0.446 c 0,-0.01192 0.00333,-0.02214 0.01004,-0.0307 C 7.57025,7.6985 7.58066,7.69421 7.59481,7.69421 l 0.1278,0 c 0.00448,0 0.00931,9.321e-4 0.01452,0.00299 0.00521,0.00203 0.01005,0.00502 0.01451,0.00893 0.00448,0.0039 0.00837,0.00856 0.01154,0.01376 0.00316,0.00523 0.00465,0.01117 0.00465,0.01786 l 0,0.6225 c 0,0.01414 -0.0039,0.02475 -0.01171,0.032 C 7.74831,8.39951 7.73714,8.40323 7.72261,8.40323 l -0.127,0 C 7.56807,8.40323 7.5543,8.38891 7.5543,8.36025 l 0,-0.622 z m 0,-0.2825 c 0,-0.01563 0.00333,-0.0268 0.01004,-0.03331 C 7.57025,7.41542 7.58066,7.41227 7.59481,7.41227 l 0.1295,0 c 0.01303,0 0.02364,0.00316 0.03164,0.00968 0.00799,0.00651 0.0119,0.01768 0.0119,0.03331 l 0,0.1089 c 0,0.00446 -9.321e-4,0.00931 -0.00297,0.01451 C 7.76283,7.58388 7.75985,7.5889 7.75613,7.59374 7.75241,7.59859 7.74794,7.60249 7.74254,7.60566 7.73715,7.60884 7.731,7.6105 7.7243,7.6105 l -0.129,0 c -0.02754,0 -0.04131,-0.01544 -0.04131,-0.04632 l 0,-0.11 z m 1.078,0.9066 c 0,0.00632 -0.00111,0.01227 -0.00335,0.01805 C 8.62593,8.38568 8.6222,8.39032 8.617,8.39367 8.6129,8.39777 8.60807,8.40036 8.60248,8.40148 8.59691,8.40259 8.59207,8.40315 8.58797,8.40315 l -0.109,0 C 8.47116,8.40315 8.46483,8.40204 8.46,8.39997 8.45515,8.39794 8.45125,8.39513 8.44827,8.39141 8.44528,8.3877 8.44287,8.38304 8.44082,8.37765 8.43877,8.37225 8.43653,8.36648 8.43429,8.36016 L 8.4181,8.31829 C 8.40805,8.32833 8.39708,8.33894 8.38517,8.35029 8.37325,8.36165 8.36024,8.37224 8.3459,8.38192 8.33158,8.3916 8.31595,8.3996 8.2992,8.40612 8.28245,8.41263 8.26459,8.41598 8.2456,8.41598 8.21174,8.41598 8.17934,8.41169 8.14827,8.40313 8.11719,8.39457 8.08817,8.38228 8.06118,8.36647 8.0342,8.35065 8.00962,8.33167 7.98767,8.30953 7.9657,8.28738 7.94691,8.26282 7.93109,8.23565 7.91527,8.20848 7.90299,8.17907 7.89443,8.14763 7.88587,8.11617 7.8816,8.08343 7.8816,8.04919 c 0,-0.05173 0.0095,-0.09994 0.02848,-0.1444 0.01897,-0.04448 0.04485,-0.08317 0.0776,-0.1161 0.03275,-0.03293 0.07128,-0.0588 0.1156,-0.0776 0.04429,-0.0188 0.09173,-0.0281 0.1424,-0.0281 0.02307,0 0.04429,0.00335 0.06365,0.01023 0.01934,0.00688 0.03702,0.016 0.05285,0.02717 C 8.378,7.73156 8.39232,7.74421 8.40516,7.75836 8.41799,7.7725 8.42935,7.78684 8.4394,7.80134 L 8.46116,7.73379 C 8.46488,7.72448 8.46806,7.71684 8.47047,7.71108 8.47289,7.70531 8.4755,7.70103 8.4783,7.69825 8.48108,7.69546 8.48444,7.69359 8.48852,7.69266 c 0.0041,-9.321e-4 0.00986,-0.0013 0.0173,-0.0013 l 0.08319,0 c 0.0041,0 0.00893,5.594e-4 0.01451,0.00167 0.00559,0.00111 0.01042,0.00372 0.01452,0.00781 0.00521,0.0041 0.00893,0.00875 0.01115,0.01396 0.00224,0.00521 0.00335,0.01115 0.00335,0.01786 l 0,0.629 z m -0.549,-0.314 c 0,0.02456 0.00391,0.04746 0.01154,0.06885 0.00762,0.02141 0.01842,0.04002 0.03256,0.05565 0.01415,0.01563 0.03127,0.02792 0.05117,0.03704 0.01992,0.00912 0.04188,0.01376 0.06607,0.01376 0.02493,0 0.0482,-0.00465 0.0696,-0.01376 0.021,-0.009 0.04,-0.021 0.055,-0.036 0.016,-0.016 0.029,-0.035 0.037,-0.056 0.009,-0.021 0.014,-0.044 0.014,-0.069 0,-0.024 -0.005,-0.046 -0.014,-0.068 -0.008,-0.022 -0.021,-0.041 -0.037,-0.057 -0.015,-0.016 -0.034,-0.029 -0.055,-0.039 -0.022,-0.009 -0.045,-0.014 -0.07,-0.014 -0.02419,0 -0.04615,0.00466 -0.06607,0.01414 -0.0199,0.0095 -0.03702,0.02253 -0.05117,0.0389 -0.014,0.016 -0.025,0.035 -0.033,0.057 -0.007,0.022 -0.011,0.044 -0.011,0.068 z m 0.79,0.1334 c 0.01005,0.01005 0.02104,0.01842 0.03276,0.02531 0.01171,0.00688 0.02288,0.01248 0.03368,0.01675 0.0108,0.00429 0.02029,0.00745 0.02848,0.00931 0.00819,0.00187 0.01376,0.00279 0.01675,0.00279 0.00707,0 0.01619,-3.728e-4 0.02717,-9.321e-4 0.01098,-5.592e-4 0.02139,-0.00224 0.03144,-0.00503 0.01005,-0.00278 0.0188,-0.00726 0.02605,-0.01358 0.00726,-0.00632 0.0108,-0.01526 0.0108,-0.0268 0,-0.01042 -0.00205,-0.0188 -0.00614,-0.02493 -0.0041,-0.00614 -0.01005,-0.01136 -0.01786,-0.01563 -0.00781,-0.00429 -0.0173,-0.00801 -0.02866,-0.01136 -0.01136,-0.00335 -0.02419,-0.00726 -0.03834,-0.01173 -0.04466,-0.0119 -0.0815,-0.02624 -0.1105,-0.04298 -0.02904,-0.01675 -0.05192,-0.03554 -0.06885,-0.0562 -0.01693,-0.02065 -0.02885,-0.0428 -0.03554,-0.06661 -0.00671,-0.02382 -0.01005,-0.04895 -0.01005,-0.07538 0,-0.03088 0.00614,-0.05899 0.01842,-0.08429 0.01227,-0.02531 0.02976,-0.04709 0.05248,-0.06514 0.0227,-0.01805 0.04987,-0.032 0.08151,-0.04187 0.03163,-0.00986 0.0668,-0.0147 0.1055,-0.0147 0.02344,0 0.04541,0.00185 0.06587,0.00577 0.02048,0.00391 0.04002,0.01005 0.05863,0.01842 0.01861,0.00837 0.03683,0.01917 0.05451,0.03238 0.01768,0.01322 0.03517,0.02904 0.05268,0.04727 0.00632,0.00745 0.00966,0.01432 0.00985,0.02085 1.865e-4,0.00651 -0.00408,0.01358 -0.01264,0.02102 -0.01452,0.01192 -0.02829,0.02364 -0.04149,0.03517 -0.01322,0.01154 -0.02698,0.02437 -0.04114,0.03853 -0.00446,0.00371 -0.00893,0.00595 -0.01339,0.00688 -0.00448,9.32e-4 -0.00875,9.32e-4 -0.01285,-1.864e-4 -0.00408,-0.00111 -0.00799,-0.00299 -0.01173,-0.00557 -0.00371,-0.00261 -0.00707,-0.00578 -0.01004,-0.0095 -0.01303,-0.01452 -0.02792,-0.02437 -0.04466,-0.02941 -0.01676,-0.00502 -0.03239,-0.00745 -0.0469,-0.00745 -0.01824,0 -0.03275,0.00318 -0.04354,0.0095 -0.0108,0.00632 -0.01582,0.016 -0.01507,0.02904 7.302e-4,0.00968 0.00446,0.01712 0.01097,0.02251 0.00653,0.00539 0.01452,0.00986 0.02402,0.01322 0.00948,0.00333 0.01953,0.00595 0.03014,0.00799 0.01061,0.00203 0.02029,0.00446 0.02922,0.00707 0.03349,0.0108 0.0642,0.02251 0.09211,0.03517 0.02792,0.01266 0.05212,0.0281 0.07258,0.04653 0.02048,0.01842 0.03648,0.04056 0.04783,0.06624 0.01136,0.02568 0.01693,0.05695 0.01693,0.0938 0,0.03683 -0.00726,0.06978 -0.02197,0.0988 -0.0147,0.02904 -0.03498,0.05341 -0.06066,0.07314 -0.02568,0.01973 -0.056,0.0348 -0.09118,0.04522 -0.03517,0.01042 -0.07314,0.01563 -0.1137,0.01563 -0.02307,0 -0.04651,-0.00203 -0.07034,-0.00614 -0.02382,-0.00408 -0.04688,-0.0108 -0.06922,-0.01992 -0.02232,-0.00912 -0.04354,-0.02083 -0.06365,-0.03517 -0.02009,-0.01432 -0.03795,-0.03163 -0.0536,-0.0521 -0.00408,-0.00521 -0.00707,-0.0108 -0.00912,-0.01656 -0.00203,-0.00577 -0.00297,-0.01136 -0.00278,-0.01693 1.863e-4,-0.00557 0.0013,-0.0108 0.00333,-0.01544 0.00205,-0.00466 0.00523,-0.00856 0.00968,-0.01192 l 0.07202,-0.07202 c 0.00893,-0.00745 0.01693,-0.01005 0.02382,-0.00781 0.0069,0.00224 0.01564,0.00856 0.02642,0.01898 z"
       class="fil6"
       id="path3452"
       inkscape:connector-curvature="0"
       style="fill:#ffffff;fill-rule:nonzero;stroke-width:1.02600002" /><g
       aria-label="Interativas"
       transform="matrix(0.9951,0,0,0.997,0.004616,0.03877)"
       id="g3454"
       style="fill:#f8c300;stroke-width:0.0336px"><path
         d="m 1.173,8.847 q 0,-0.0121 0.00739,-0.02083 0.00739,-0.00874 0.02217,-0.00874 l 0.1975,0 q 0.01008,0 0.0215,0.00806 0.01142,0.00806 0.01142,0.0215 l 0,0.9387 q 0,0.02956 -0.03292,0.02956 l -0.198,0 q -0.02956,0 -0.02956,-0.02956 z"
         id="path3456"
         inkscape:connector-curvature="0" /><path
         d="M 1.64,8.973 Q 1.64874,8.96561 1.65814,8.96359 1.66822,8.96157 1.67695,8.96157 l 0.1015,0 q 0.0121,0 0.02083,0.0047 Q 1.80802,8.9703 1.81406,8.97769 1.82011,8.98508 1.82347,8.99449 1.8275,9.0039 1.83086,9.01398 L 1.85169,9.09999 Q 1.86177,9.07916 1.88058,9.05295 1.90007,9.02607 1.92963,9.00323 1.95919,8.97971 1.99951,8.96426 2.0405,8.94813 2.09425,8.94813 q 0.0766,0 0.1391,0.02956 0.06249,0.02956 0.1062,0.08063 0.04435,0.05107 0.06854,0.1196 0.02419,0.06787 0.02419,0.1451 l 0,0.4401 q 0,0.02553 -0.01142,0.03897 -0.01075,0.01277 -0.03494,0.01277 l -0.1552,0 q -0.02889,0 -0.03964,-0.00941 Q 2.18033,9.79537 2.18033,9.76715 l 0,-0.437 q 0,-0.02889 -0.01344,-0.05443 Q 2.15412,9.24951 2.13262,9.23003 2.11112,9.20987 2.08357,9.19845 2.05669,9.18703 2.02847,9.18703 2.00428,9.18703 1.97875,9.19778 1.95389,9.20853 1.93239,9.22802 1.91156,9.24683 1.89678,9.27304 1.88267,9.29857 1.88065,9.32881 l 0,0.436 q 0,0.01142 -0.0047,0.02285 Q 1.87192,9.79908 1.86318,9.80513 1.85444,9.81051 1.84638,9.81252 1.83899,9.81454 1.82891,9.81454 l -0.152,0 q -0.02889,0 -0.04166,-0.01411 -0.012,-0.014 -0.012,-0.038 l 0,-0.752 q 0,-0.01277 0.00538,-0.02352 0.00605,-0.01075 0.01613,-0.0168 z"
         id="path3458"
         inkscape:connector-curvature="0" /><path
         d="m 2.646,8.828 q 0,-0.02083 0.01344,-0.03091 0.01411,-0.01075 0.03964,-0.02016 l 0.1525,-0.05308 q 0.00336,-6.719e-4 0.00605,-6.719e-4 0.00336,0 0.00605,0 0.02486,0 0.03292,0.01478 0.00874,0.01411 0.00874,0.03763 l -6.72e-4,0.2117 0.1122,0 q 0.0215,0 0.03494,0.01277 0.01344,0.01277 0.01344,0.0383 l 0,0.1297 q 0,0.02822 -0.01344,0.04166 -0.01344,0.01277 -0.03494,0.01277 l -0.113,0 6.72e-4,0.5402 q 0,0.02553 -0.01478,0.03897 -0.01478,0.01277 -0.04099,0.01277 l -0.151,0 q -0.05174,0 -0.05174,-0.05174 l -6.72e-4,-0.5402 -0.04905,0 q -0.05174,0 -0.05174,-0.05443 l 0,-0.13 q 0,-0.05107 0.05174,-0.05107 l 0.04905,0 z"
         id="path3460"
         inkscape:connector-curvature="0" /><path
         d="M 3.865,9.713 Q 3.80587,9.76743 3.732,9.79834 3.65809,9.82858 3.5754,9.82858 q -0.09206,0 -0.174,-0.0336 -0.081,-0.034 -0.143,-0.093 -0.062,-0.06 -0.098,-0.141 -0.036,-0.08 -0.036,-0.175 0,-0.05913 0.01411,-0.1142 Q 3.15329,9.21601 3.1795,9.16758 3.20638,9.1192 3.24401,9.07888 3.28231,9.03789 3.32935,9.009 3.37639,8.98011 3.43145,8.96398 q 0.0551,-0.01613 0.1162,-0.01613 0.05577,0 0.1082,0.01478 0.05241,0.01478 0.0981,0.04166 0.04636,0.02688 0.08466,0.06451 0.0383,0.03763 0.06585,0.08265 0.02755,0.04435 0.04233,0.09542 0.01545,0.0504 0.01545,0.1042 0,0.03494 -0.00134,0.05712 Q 3.960228,9.43036 3.95082,9.4438 3.94141,9.45657 3.91924,9.46194 3.89774,9.46664 3.85541,9.46664 l -0.484,0 q 0.00672,0.043 0.02688,0.0719 0.02083,0.02889 0.04771,0.04636 0.02688,0.0168 0.05712,0.02419 0.03024,0.00739 0.05712,0.00739 0.02419,0 0.04972,-0.0047 Q 3.63549,9.6064 3.65901,9.59834 3.6832,9.5896 3.70269,9.57885 3.72285,9.56743 3.73494,9.55533 3.74569,9.54659 3.75308,9.54256 q 0.00806,-0.0047 0.0168,-0.0047 0.00874,0 0.01747,0.00605 0.00941,0.00605 0.02083,0.01747 L 3.8794,9.64201 q 0.00739,0.00874 0.00941,0.01613 0.00202,0.00672 0.00202,0.01411 0,0.01344 -0.00739,0.02352 -0.00739,0.00941 -0.01747,0.0168 z M 3.542,9.153 Q 3.51579,9.153 3.49093,9.16375 3.46674,9.17383 3.44524,9.1913 3.42374,9.20877 3.40627,9.23094 3.38947,9.25311 3.37872,9.27596 l 0.3434,0 Q 3.70801,9.24976 3.69121,9.22758 3.67508,9.20541 3.65358,9.18861 3.63275,9.17181 3.6052,9.16241 3.57832,9.153 3.54204,9.153 Z"
         id="path3462"
         inkscape:connector-curvature="0" /><path
         d="M 4.103,9.011 Q 4.103,8.99958 4.1077,8.9895 4.11308,8.97875 4.12047,8.9727 4.13794,8.96128 4.15675,8.96128 l 0.1015,0 q 0.01277,0 0.02016,0.0047 0.00739,0.0047 0.0121,0.0121 0.00538,0.00739 0.00874,0.0168 Q 4.30328,9.00429 4.30866,9.01369 4.31,9.01638 4.31404,9.02713 4.31807,9.03721 4.32278,9.04998 4.32748,9.06208 4.33152,9.0735 4.33622,9.08425 4.33757,9.08761 4.35773,9.06544 4.37587,9.04125 4.39468,9.01639 4.41551,8.99556 4.43634,8.97473 4.46187,8.96129 4.4874,8.94785 4.52234,8.94785 q 0.03628,0 0.06451,0.00538 0.02889,0.00538 0.05443,0.01613 0.02553,0.01008 0.0504,0.02621 0.02553,0.01613 0.0551,0.03763 0.04636,0.02486 0.01747,0.07391 L 4.7031,9.21131 Q 4.68966,9.23147 4.67018,9.23617 4.65069,9.24087 4.62785,9.23012 4.59896,9.2019 4.56872,9.18846 4.53916,9.17435 4.50085,9.17435 4.47464,9.17435 4.45449,9.18174 4.435,9.18913 4.41888,9.20257 4.40275,9.21601 4.38864,9.23482 4.37453,9.25363 4.36042,9.27648 l 0,0.4865 q 0,0.02553 -0.01277,0.03897 -0.0121,0.01277 -0.04099,0.01277 l -0.15,0 q -0.05241,0 -0.05241,-0.05174 z"
         id="path3464"
         inkscape:connector-curvature="0" /><path
         d="m 5.691,9.765 q 0,0.01142 -0.00403,0.02217 Q 5.68294,9.79725 5.67353,9.8033 5.66614,9.81069 5.65606,9.81271 5.64598,9.81473 5.63859,9.81473 l -0.132,0 q -0.01411,0 -0.02285,-0.00336 Q 5.475,9.80734 5.46963,9.80062 5.46425,9.7939 5.46022,9.78449 5.45686,9.77441 5.45283,9.76299 l -0.02,-0.05 Q 5.41469,9.73113 5.39319,9.75196 5.37169,9.77212 5.34548,9.78959 5.31995,9.80706 5.28971,9.81848 5.25947,9.83058 5.2252,9.83058 5.16405,9.83058 5.1076,9.81512 5.05183,9.79966 5.0028,9.77144 4.95442,9.74255 4.91478,9.7029 4.87514,9.66258 4.84624,9.61353 4.81802,9.56448 4.80256,9.50803 4.78711,9.45091 4.78711,9.38913 q 0,-0.0934 0.03427,-0.1734 0.03427,-0.08063 0.0934,-0.1398 0.05913,-0.0598 0.1391,-0.0934 0.07996,-0.03427 0.1713,-0.03427 0.04166,0 0.0766,0.01277 0.03494,0.0121 0.06316,0.03225 0.02889,0.02016 0.05174,0.04569 0.02352,0.02553 0.04166,0.05174 l 0.0262,-0.0813 Q 5.49126,8.99261 5.49529,8.98253 5.49999,8.97178 5.5047,8.96707 5.51008,8.96169 5.51747,8.96035 5.52486,8.95833 5.5383,8.95833 l 0.1001,0 q 0.00739,0 0.01747,0.00202 0.01008,0.00202 0.01747,0.00941 0.00941,0.00739 0.01344,0.0168 0.00403,0.00941 0.00403,0.0215 z M 5.03,9.389 q 0,0.04435 0.01344,0.08332 0.01411,0.0383 0.03964,0.06652 0.02553,0.02822 0.06115,0.04502 0.03628,0.01613 0.07996,0.01613 0.04502,0 0.08332,-0.01613 Q 5.34648,9.56706 5.3747,9.53884 5.40359,9.51062 5.41972,9.47232 5.43585,9.43335 5.43585,9.389 5.43585,9.346 5.41972,9.30702 5.40359,9.26805 5.3747,9.23848 5.34648,9.20892 5.30751,9.19212 5.26921,9.17465 5.22419,9.17465 5.18051,9.17465 5.14423,9.19212 5.10862,9.20892 5.08308,9.23848 5.05755,9.26804 5.04344,9.30702 5.03,9.34599 5.03,9.389 Z"
         id="path3466"
         inkscape:connector-curvature="0" /><path
         d="m 5.906,8.828 q 0,-0.02083 0.01344,-0.03091 0.01411,-0.01075 0.03964,-0.02016 l 0.1525,-0.05308 q 0.00336,-6.719e-4 0.00605,-6.719e-4 0.00336,0 0.00605,0 0.02486,0 0.03292,0.01478 0.00874,0.01411 0.00874,0.03763 l -6.719e-4,0.2117 0.112,0 q 0.0215,0 0.03494,0.01277 0.01344,0.01277 0.01344,0.0383 l 0,0.1297 q 0,0.02822 -0.01344,0.04166 -0.01344,0.01277 -0.03494,0.01277 l -0.113,0 6.719e-4,0.5402 q 0,0.02553 -0.01478,0.03897 -0.01478,0.01277 -0.04099,0.01277 l -0.152,0 q -0.05174,0 -0.05174,-0.05174 l 0,-0.54 -0.049,0 q -0.05174,0 -0.05174,-0.05443 l 0,-0.13 q 0,-0.05107 0.05174,-0.05107 l 0.04905,0 z"
         id="path3468"
         inkscape:connector-curvature="0" /><path
         d="m 6.431,9.014 q 0,-0.0215 0.0121,-0.03696 0.0121,-0.01546 0.03763,-0.01546 l 0.1539,0 q 0.00806,0 0.01747,0.00403 0.00941,0.00336 0.01747,0.01075 0.00806,0.00672 0.01344,0.01613 0.00605,0.00941 0.00605,0.0215 l 0,0.7492 q 0,0.02553 -0.01411,0.03897 -0.01411,0.01277 -0.04032,0.01277 l -0.155,0 q -0.04972,0 -0.04972,-0.05174 z m 0,-0.34 q 0,-0.02822 0.0121,-0.03964 0.0121,-0.0121 0.03763,-0.0121 l 0.155,0 q 0.02352,0 0.03763,0.0121 0.01478,0.01142 0.01478,0.03964 l 0,0.131 q 0,0.00806 -0.00403,0.01747 Q 6.68075,8.83188 6.67403,8.84061 6.66731,8.84935 6.65723,8.85539 6.64782,8.86077 6.63573,8.86077 l -0.156,0 q -0.04972,0 -0.04972,-0.05577 z"
         id="path3470"
         inkscape:connector-curvature="0" /><path
         d="M 6.792,9.028 Q 6.77856,9.00045 6.78662,8.98096 6.79536,8.96147 6.82694,8.96147 l 0.172,0 q 0.01747,0 0.03024,0.00941 Q 7.04262,8.98029 7.04799,8.99776 7.05941,9.03337 7.07285,9.07772 7.08696,9.12207 7.10174,9.1691 7.1172,9.21546 7.13198,9.26183 7.14676,9.30752 7.15886,9.34649 7.17163,9.38479 7.18103,9.41368 7.19111,9.4419 7.19581,9.454 l 0.142,-0.456 Q 7.34655,8.9765 7.3573,8.96911 7.36872,8.96172 7.38888,8.96172 l 0.1767,0 q 0.01949,0 0.02956,0.0047 0.01008,0.0047 0.01344,0.01277 Q 7.61194,8.98725 7.60992,8.998 7.6079,9.00808 7.6032,9.0195 L 7.2834,9.7862 Q 7.27601,9.7983 7.26593,9.80703 7.25585,9.81509 7.23569,9.81509 l -0.07996,0 q -0.02688,0 -0.0383,-0.00739 Q 7.10668,9.79964 7.1013,9.7862 Z"
         id="path3472"
         inkscape:connector-curvature="0" /><path
         d="m 8.538,9.765 q 0,0.01142 -0.00403,0.02217 Q 8.52994,9.79725 8.52053,9.8033 8.51314,9.81069 8.50306,9.81271 8.49298,9.81473 8.48559,9.81473 l -0.133,0 q -0.01411,0 -0.02285,-0.00336 Q 8.321,9.80734 8.31563,9.80062 8.31025,9.7939 8.30622,9.78449 8.30286,9.77441 8.29883,9.76299 L 8.27934,9.71259 Q 8.2612,9.73073 8.2397,9.75156 8.2182,9.77172 8.19199,9.78919 8.16646,9.80666 8.13622,9.81808 8.10598,9.83018 8.07171,9.83018 8.01056,9.83018 7.95411,9.81472 7.89834,9.79926 7.84931,9.77104 7.80093,9.74215 7.76129,9.7025 7.72165,9.66218 7.69275,9.61313 7.66453,9.56408 7.64907,9.50763 7.63362,9.45051 7.63362,9.38873 q 0,-0.0934 0.03427,-0.1734 0.03427,-0.08063 0.0934,-0.1398 0.05913,-0.0598 0.1391,-0.0934 0.07996,-0.03427 0.1713,-0.03427 0.04166,0 0.0766,0.01277 0.03494,0.0121 0.06316,0.03225 0.02889,0.02016 0.05174,0.04569 0.02352,0.02553 0.04166,0.05174 l 0.0262,-0.0813 Q 8.33777,8.99221 8.3418,8.98213 8.3465,8.97138 8.35121,8.96667 8.35659,8.96129 8.36398,8.95995 8.37137,8.95793 8.38481,8.95793 l 0.1001,0 q 0.00739,0 0.01747,0.00202 0.01008,0.00202 0.01747,0.00941 0.00941,0.00739 0.01344,0.0168 0.00403,0.00941 0.00403,0.0215 z M 7.876,9.389 q 0,0.04435 0.01344,0.08332 0.01411,0.0383 0.03964,0.06652 0.02553,0.02822 0.06115,0.04502 0.03628,0.01613 0.07996,0.01613 0.04502,0 0.08332,-0.01613 Q 8.19248,9.56706 8.2207,9.53884 8.24959,9.51062 8.26572,9.47232 8.28185,9.43335 8.28185,9.389 8.28185,9.346 8.26572,9.30702 8.24959,9.26805 8.2207,9.23848 8.19248,9.20892 8.15351,9.19212 8.11521,9.17465 8.07019,9.17465 8.02651,9.17465 7.99023,9.19212 7.95462,9.20892 7.92908,9.23848 7.90355,9.26804 7.88944,9.30702 7.876,9.34599 7.876,9.389 Z"
         id="path3474"
         inkscape:connector-curvature="0" /><path
         d="m 8.827,9.549 q 0.01814,0.01814 0.03897,0.03091 0.0215,0.0121 0.04099,0.02016 0.01949,0.00739 0.03427,0.01075 0.01478,0.00336 0.02016,0.00336 0.01277,0 0.03225,-6.719e-4 0.02016,-0.00134 0.0383,-0.00605 0.01814,-0.00538 0.03091,-0.0168 0.01344,-0.01142 0.01344,-0.03225 0,-0.01881 -0.00739,-0.02956 -0.00739,-0.01142 -0.0215,-0.01881 -0.01411,-0.00806 -0.03494,-0.01411 -0.02016,-0.00605 -0.04569,-0.01411 -0.08063,-0.0215 -0.133,-0.05174 -0.05241,-0.03024 -0.08332,-0.06719 -0.03024,-0.03763 -0.04233,-0.08063 -0.0121,-0.043 -0.0121,-0.09071 0,-0.05577 0.02217,-0.1015 0.02217,-0.04569 0.06316,-0.07794 0.04099,-0.03292 0.0981,-0.0504 0.05712,-0.01814 0.127,-0.01814 0.04233,0 0.07929,0.00739 0.03696,0.00672 0.07055,0.02217 0.0336,0.01478 0.06518,0.03897 0.03225,0.02352 0.06383,0.05644 0.01142,0.01344 0.01142,0.02553 6.719e-4,0.01142 -0.01478,0.02486 -0.02621,0.0215 -0.0504,0.04233 -0.02352,0.02083 -0.04905,0.04636 -0.00806,0.00672 -0.01613,0.00874 -0.00806,0.00134 -0.01546,-6.72e-4 -0.00739,-0.00202 -0.01411,-0.00672 -0.00672,-0.0047 -0.0121,-0.01142 -0.02352,-0.0262 -0.05376,-0.03494 -0.03024,-0.00941 -0.05644,-0.00941 -0.03292,0 -0.05241,0.01142 -0.01949,0.01142 -0.01814,0.03494 0.00134,0.01747 0.01277,0.02755 0.0121,0.00941 0.02889,0.01546 0.01747,0.00605 0.03628,0.01008 0.01949,0.00336 0.03561,0.00806 0.06047,0.01949 0.1109,0.04233 0.0504,0.02285 0.08735,0.05644 0.03696,0.03292 0.05712,0.07929 0.02083,0.04636 0.02083,0.1129 0,0.06652 -0.02688,0.1189 -0.0262,0.05241 -0.07257,0.08802 -0.04636,0.03561 -0.1102,0.05443 -0.06316,0.01881 -0.1364,0.01881 -0.04166,0 -0.08466,-0.00739 -0.043,-0.00739 -0.08332,-0.02352 -0.04032,-0.0168 -0.0766,-0.04233 -0.03628,-0.02621 -0.06451,-0.06316 -0.00739,-0.00941 -0.01142,-0.01949 -0.00336,-0.01075 -0.00336,-0.02083 6.719e-4,-0.01008 0.00403,-0.01814 0.00403,-0.00874 0.0121,-0.01478 l 0.08668,-0.08668 q 0.01613,-0.01344 0.02822,-0.00941 0.01277,0.00403 0.03225,0.02285 z"
         id="path3476"
         inkscape:connector-curvature="0" /></g></g></svg>