<?xml version="1.0" encoding="UTF-8" standalone="no"?>
<!-- Creator: CorelDRAW -->

<svg
   xmlns:dc="http://purl.org/dc/elements/1.1/"
   xmlns:cc="http://creativecommons.org/ns#"
   xmlns:rdf="http://www.w3.org/1999/02/22-rdf-syntax-ns#"
   xmlns:svg="http://www.w3.org/2000/svg"
   xmlns="http://www.w3.org/2000/svg"
   xmlns:sodipodi="http://sodipodi.sourceforge.net/DTD/sodipodi-0.dtd"
   xmlns:inkscape="http://www.inkscape.org/namespaces/inkscape"
   xml:space="preserve"
   width="106.92585mm"
   height="28.222221mm"
   style="clip-rule:evenodd;fill-rule:evenodd;image-rendering:optimizeQuality;shape-rendering:geometricPrecision;text-rendering:geometricPrecision"
   viewBox="0 0 30.154744 7.9590953"
   id="svg2"
   version="1.1"
   inkscape:version="0.91 r13725"
   sodipodi:docname="logo-expressao-horizontal.svg"
   inkscape:export-filename="/home/caio/Projetos/git/colab-plugins/colab-edemocracia-plugin/src/colab_edemocracia/static/img/logo-expressao.png"
   inkscape:export-xdpi="90"
   inkscape:export-ydpi="90"><metadata
     id="metadata36"><rdf:RDF><cc:Work
         rdf:about=""><dc:format>image/svg+xml</dc:format><dc:type
           rdf:resource="http://purl.org/dc/dcmitype/StillImage" /><dc:title></dc:title></cc:Work></rdf:RDF></metadata><sodipodi:namedview
     pagecolor="#ffffff"
     bordercolor="#666666"
     borderopacity="1"
     objecttolerance="10"
     gridtolerance="10"
     guidetolerance="10"
     inkscape:pageopacity="0"
     inkscape:pageshadow="2"
     inkscape:window-width="1865"
     inkscape:window-height="1053"
     id="namedview34"
     showgrid="false"
     fit-margin-top="0"
     fit-margin-left="0"
     fit-margin-right="0"
     fit-margin-bottom="0"
     inkscape:zoom="1.0045601"
     inkscape:cx="71.43985"
     inkscape:cy="60.560966"
     inkscape:window-x="1975"
     inkscape:window-y="27"
     inkscape:window-maximized="1"
     inkscape:current-layer="svg2" /><defs
     id="defs4"><style
       type="text/css"
       id="style6"><![CDATA[
    .fil3 {fill:#204695}
    .fil2 {fill:#5DCBEE}
    .fil5 {fill:#706BA5}
    .fil4 {fill:#82C76E}
    .fil7 {fill:#EF4C5D}
    .fil1 {fill:#F58557}
    .fil6 {fill:#FCDA06}
    .fil8 {fill:#72706F;fill-rule:nonzero}
    .fil0 {fill:#C2C1C1;fill-rule:nonzero}
   ]]></style></defs><g
     id="g4254"
     transform="matrix(2.0374893,0,0,2.037489,-24.693992,-14.34409)"><g
       transform="matrix(0.27539096,0,0,0.27488129,12.119846,7.0400752)"
       id="g4187"><polygon
         style="fill:#d9d8dd;fill-opacity:1;fill-rule:nonzero"
         id="polygon10"
         points="6.50111,7.63131 12.2934,5.55867 12.4395,5.96827 6.64725,8.04091 "
         class="fil0" /><polygon
         style="fill:#d9d8dd;fill-opacity:1;fill-rule:nonzero"
         id="polygon12"
         points="6.79003,7.85991 6.27298,12.4302 5.84127,12.3826 6.35832,7.81231 "
         class="fil0" /><polygon
         style="fill:#d9d8dd;fill-opacity:1;fill-rule:nonzero"
         id="polygon14"
         points="6.39318,7.95594 2.90146,2.71369 3.26346,2.47404 6.75517,7.71628 "
         class="fil0" /><path
         style="fill:#d9d8dd;fill-opacity:1;fill-rule:nonzero"
         inkscape:connector-curvature="0"
         id="path16"
         d="m 8.88552,1.24025 2.06303,2.063 2.06308,2.06303 0.08861,0.088609 -0.03252,0.121295 -0.755153,2.81818 -0.755125,2.81818 -0.03249,0.121323 -0.121323,0.03249 -2.8181803,0.755096 -2.81812,0.755125 -0.121295,0.03252 -0.088609,-0.08861 -2.06303,-2.06303 -2.06308,-2.0630007 -0.088581,-0.088581 0.032488,-0.121323 0.755153,-2.81821 0.755125,-2.81818 0.032516,-0.121295 0.121295,-0.032516 2.81818,-0.755096 2.81812,-0.755096 0.121323,-0.032488 0.088581,0.088581 z M 10.64093,3.61087 8.66651,1.63648 5.96968,2.35906 3.27279,3.08164 2.550182,5.77853 1.827546,8.47542 l 1.97448,1.97442 1.97442,1.97442 2.69683,-0.722608 2.69689,-0.72258 0.722608,-2.69689 0.722636,-2.69689 -1.97448,-1.97442 z"
         class="fil0" /><path
         style="fill:#ed8e4c;fill-opacity:1"
         inkscape:connector-curvature="0"
         id="path18"
         d="m 1.71807,1.73868 2.68606,0 c 0.248427,0 0.45162,0.203249 0.45162,0.45162 l 0,1.90166 c 0,0.812064 -0.68338,1.03463 -1.15285,1.03463 l 0,-0.583011 -1.98483,0 c -0.248399,0 -0.451648,-0.203192 -0.451648,-0.45162 l 0,-1.90166 c 0,-0.248427 0.203192,-0.45162 0.451648,-0.45162 z"
         class="fil1" /><path
         style="fill:#83cbe4;fill-opacity:1"
         inkscape:connector-curvature="0"
         id="path20"
         d="m 7.04311,0 3.1943,0 c 0.255111,0 0.46369,0.208579 0.46369,0.46369 l 0,1.98356 c 0,0.255111 -0.208579,0.46369 -0.46369,0.46369 l -1.44623,0 -1.05657,0.816942 0,-0.816942 -0.691502,0 c -0.255111,0 -0.46369,-0.208579 -0.46369,-0.46369 l 0,-1.98356 C 6.579418,0.208579 6.787997,0 7.043108,0 Z"
         class="fil2" /><path
         style="fill:#005ca7;fill-opacity:1"
         inkscape:connector-curvature="0"
         id="path22"
         d="m 2.65788,7.03208 c 0.815391,0.507261 1.06531,1.57996 0.558024,2.39538 -0.477706,0.7679 -2.00578,1.2779 -2.77813,1.45779 l 0.513832,-0.825911 c -0.0443046,-0.02256 -0.0880734,-0.0471 -0.131081,-0.07386 -0.81542,-0.507261 -1.06531,-1.57996 -0.558052,-2.39538 0.507289,-0.81542 1.57999,-1.06531 2.39541,-0.558024 z"
         class="fil3" /><path
         style="fill:#a7c764;fill-opacity:1"
         inkscape:connector-curvature="0"
         id="path24"
         d="m 4.85907,10.5697 2.24386,0 c 0.219803,0 0.399588,0.179926 0.399588,0.399588 l 0,2.45903 c 0,0.219662 -0.179898,0.399588 -0.399588,0.399588 l -1.99904,0 -0.644405,0.383062 0,-3.24168 c 0,-0.219775 0.179813,-0.399588 0.399588,-0.399588 z"
         class="fil4" /><path
         style="fill:#7a81b5;fill-opacity:1"
         inkscape:connector-curvature="0"
         id="path26"
         d="m 12.7852,9.43407 -3.07857,0 c -0.301559,0 -0.548238,0.246933 -0.548238,0.548238 l 0,1.8606 c 0,0.301334 0.246905,0.548238 0.548238,0.548238 l 2.74269,0 0.884119,0.525592 0,-2.93443 c 0,-0.301559 -0.246679,-0.548238 -0.548238,-0.548238 z"
         class="fil5" /><path
         style="fill:#fcdb00;fill-opacity:1"
         inkscape:connector-curvature="0"
         id="path28"
         d="m 13.9842,4.20888 -2.75569,0 c -0.269917,0 -0.490735,0.221016 -0.490735,0.490735 l 0,1.66544 c 0,0.26972 0.221016,0.490735 0.490735,0.490735 l 2.45503,0 0.791392,0.470458 0,-2.62664 c 0,-0.269917 -0.220818,-0.490735 -0.490735,-0.490735 z"
         class="fil6" /><path
         style="fill:#e14c4e;fill-opacity:1"
         inkscape:connector-curvature="0"
         id="path30"
         d="m 4.96359,5.98459 3.1236,0 c 0.249471,0 0.453453,0.203954 0.453453,0.453425 l 0,1.93967 c 0,0.249471 -0.203982,0.453425 -0.453453,0.453425 l -1.41422,0 -1.03319,0.798893 0,-0.798893 -0.676189,0 c -0.249471,0 -0.453425,-0.203954 -0.453425,-0.453425 l 0,-1.93967 c 0,-0.249471 0.203954,-0.453425 0.453425,-0.453425 z"
         class="fil7" /></g><path
       class="fil8"
       d="m 16.77214,8.5085067 c 0,-0.011428 0.0033,-0.020686 0.0095,-0.027486 0.0063,-0.00682 0.015,-0.010066 0.02645,-0.010066 l 0.812691,0 c 0.01202,0 0.02127,0.00353 0.02782,0.010611 0.0066,0.00704 0.0099,0.016612 0.0099,0.028607 l 0,0.2025883 c 0,0.00926 -0.0033,0.017977 -0.0099,0.026406 -0.0066,0.00845 -0.0161,0.012806 -0.02864,0.012806 l -0.530339,0 0,0.2017737 0.409212,0 c 0.01045,0 0.0191,0.00242 0.02593,0.00736 0.0068,0.00494 0.01011,0.013074 0.01011,0.024509 l 0,0.1764456 c 0,0.0076 -0.0031,0.014985 -0.0091,0.02205 -0.0059,0.00704 -0.01471,0.010633 -0.0262,0.010633 l -0.410027,0 0,0.2083097 0.54998,0 c 0.02456,0 0.03682,0.012527 0.03682,0.037582 l 0,0.2058471 c 0,0.00536 -0.0021,0.010361 -0.0066,0.014715 -0.0021,0.015251 -0.01335,0.022863 -0.03356,0.022863 l -0.828239,0 c -0.01091,0 -0.01964,-0.00308 -0.02619,-0.00875 -0.0066,-0.00567 -0.0099,-0.014438 -0.0099,-0.026411 l 0,-1.1404226 z m 0.986202,1.1543079 c 0.0043,-0.00814 0.0091,-0.016612 0.01365,-0.025069 0.0046,-0.00844 0.0099,-0.016881 0.0158,-0.025585 l 0.368296,-0.5489634 c -0.06274,-0.094209 -0.124675,-0.1873385 -0.186052,-0.2793689 -0.06137,-0.092049 -0.123574,-0.1851792 -0.18632,-0.2793877 -0.0033,-0.00437 -0.0057,-0.00845 -0.0077,-0.012259 -0.002,-0.00383 -0.0033,-0.00791 -0.0038,-0.012259 0.0011,-0.00437 0.0043,-0.0065 0.0095,-0.00626 0.0052,2.657e-4 0.01045,-7.867e-4 0.01582,-0.00353 l 0.284803,0 c 0.0202,0 0.03602,0.01035 0.04747,0.031027 l 0.200518,0.3006244 0.202962,-0.3006244 c 0.01146,-0.020686 0.02729,-0.031027 0.04747,-0.031027 l 0.256982,0 c 0.0043,0 0.0095,0 0.01553,0 0.0059,0 0.01174,0 0.01692,2.648e-4 0.0052,2.657e-4 0.0095,0.00132 0.01337,0.00304 0.0038,0.00163 0.0057,0.00408 0.0057,0.00736 0,0.0065 -0.0032,0.013621 -0.0091,0.021234 l -0.376472,0.561221 0.383837,0.5718474 c 0.0054,0.00765 0.0099,0.014438 0.01284,0.020687 0.0031,0.00626 0.004,0.011714 0.0035,0.016056 0,0.00814 -0.0048,0.012261 -0.01471,0.012261 l -0.293002,0 c -0.0093,0 -0.01774,-0.00269 -0.02538,-0.00814 -0.0076,-0.00536 -0.01365,-0.012807 -0.01801,-0.022068 l -0.222609,-0.329226 -0.22016,0.3292115 c -0.0043,0.00924 -0.01045,0.016613 -0.018,0.022058 -0.0077,0.00536 -0.01608,0.00814 -0.02537,0.00814 l -0.279091,0 -0.01471,0 c -0.0043,0 -0.0082,-0.00128 -0.01146,-0.00377 -0.0033,-0.00248 -0.0048,-0.00567 -0.0048,-0.010077 0,-0.00269 5.34e-4,-0.00516 0.0016,-0.00735 z M 19.05144,8.5085067 c 0,-0.011428 0.0032,-0.020686 0.0091,-0.027486 0.0059,-0.00682 0.015,-0.010066 0.027,-0.010066 l 0.522974,0 c 0.03763,0 0.07311,0.00516 0.106407,0.015517 0.03328,0.01035 0.06383,0.024509 0.09165,0.042752 0.02782,0.018244 0.05293,0.040027 0.07529,0.065359 0.02238,0.025309 0.04148,0.052817 0.05703,0.082238 0.01553,0.029406 0.02726,0.060164 0.03544,0.09258 0.0082,0.032389 0.01227,0.06534 0.01227,0.098566 0,0.049011 -0.0088,0.096938 -0.02645,0.1437861 -0.01775,0.046826 -0.0431,0.088489 -0.07583,0.1249754 -0.03275,0.036485 -0.07203,0.065906 -0.117861,0.088507 -0.04583,0.022597 -0.09657,0.034308 -0.152213,0.034857 l -0.247985,0 0,0.388848 c 0,0.023418 -0.01255,0.035124 -0.03764,0.035124 l -0.243066,0 c -0.01091,0 -0.01964,-0.00308 -0.0262,-0.00875 -0.0066,-0.00567 -0.0099,-0.014438 -0.0099,-0.02641 l 0,-1.140422 z m 0.616277,0.3578171 c 0,-0.016349 -0.0027,-0.032678 -0.0084,-0.049011 -0.0057,-0.016349 -0.0142,-0.03105 -0.02511,-0.043856 -0.01102,-0.012791 -0.02401,-0.023129 -0.03956,-0.031318 -0.01554,-0.00817 -0.03329,-0.012243 -0.05293,-0.012243 l -0.173489,0 0,0.2728342 0.173489,0 c 0.01964,0 0.0374,-0.00408 0.0532,-0.011969 0.01582,-0.00789 0.02919,-0.017977 0.03984,-0.030502 0.01067,-0.012527 0.01881,-0.026961 0.02455,-0.043309 0.0057,-0.016333 0.0084,-0.033212 0.0084,-0.05064 z m 0.500064,-0.3578171 c 0,-0.011428 0.0032,-0.020686 0.0091,-0.027486 0.0059,-0.00682 0.01501,-0.010066 0.027,-0.010066 l 0.528705,0 c 0.05619,0 0.10885,0.01035 0.157965,0.031318 0.04909,0.020969 0.09193,0.049558 0.128489,0.085496 0.03656,0.035961 0.06547,0.077882 0.08648,0.1260735 0.021,0.048212 0.03136,0.099665 0.03136,0.1541295 0,0.037034 -0.0048,0.072156 -0.015,0.1056518 -0.01011,0.033493 -0.02429,0.064809 -0.0423,0.093944 -0.01801,0.029129 -0.03928,0.055567 -0.06411,0.079243 -0.02484,0.023701 -0.05212,0.044122 -0.08158,0.061002 l 0.210286,0.3953831 c 0.0038,0.00762 0.0088,0.01661 0.01474,0.026951 0.0059,0.01035 0.0091,0.019336 0.0091,0.026956 0,0.00875 -0.0027,0.015242 -0.0084,0.019872 -0.0057,0.00457 -0.01364,0.00705 -0.02345,0.00705 l -0.280722,0 c -0.0093,0 -0.01746,-0.00269 -0.02483,-0.00814 -0.0074,-0.00536 -0.01225,-0.012799 -0.01444,-0.022078 l -0.198882,-0.373313 -0.13259,0 0,0.3684255 c 0,0.023418 -0.01254,0.035124 -0.03765,0.035124 l -0.243067,0 c -0.01102,0 -0.01964,-0.00308 -0.0262,-0.00875 -0.0066,-0.00567 -0.0099,-0.014438 -0.0099,-0.026411 l 0,-1.1404225 z m 0.640818,0.3627236 c 0,-0.016349 -0.0031,-0.032678 -0.0091,-0.049025 -0.0059,-0.016333 -0.01446,-0.031318 -0.02538,-0.044921 -0.01102,-0.013621 -0.024,-0.025066 -0.0393,-0.034324 -0.01528,-0.00924 -0.03219,-0.015227 -0.05072,-0.017952 -0.01528,-0.00109 -0.02949,-0.0021 -0.04283,-0.00304 -0.01335,-7.865e-4 -0.0281,-0.0011 -0.04393,-0.0011 l -0.11294,0 0,0.2998105 0.150601,0 c 0.0099,0 0.01854,-2.657e-4 0.02617,-7.864e-4 0.0078,-5.352e-4 0.01611,-0.00132 0.02538,-0.00251 0.0191,-0.0021 0.03628,-0.00787 0.05157,-0.01688 0.01528,-0.00899 0.0281,-0.020139 0.03848,-0.033493 0.01045,-0.013332 0.01827,-0.028324 0.02371,-0.044922 0.0054,-0.016612 0.0082,-0.033493 0.0082,-0.050921 z M 21.31768,8.5085067 c 0,-0.011428 0.0033,-0.020686 0.0095,-0.027486 0.0063,-0.00682 0.015,-0.010066 0.02645,-0.010066 l 0.812692,0 c 0.01202,0 0.02127,0.00353 0.02782,0.010611 0.0066,0.00704 0.0099,0.016612 0.0099,0.028607 l 0,0.2025883 c 0,0.00926 -0.0033,0.017977 -0.0099,0.026406 -0.0066,0.00845 -0.01608,0.012806 -0.02866,0.012806 l -0.530336,0 0,0.2017737 0.409212,0 c 0.01045,0 0.0191,0.00242 0.02592,0.00736 0.0068,0.00494 0.01012,0.013074 0.01012,0.024509 l 0,0.1764456 c 0,0.0076 -0.0031,0.014985 -0.0091,0.02205 -0.0059,0.00704 -0.01472,0.010633 -0.0262,0.010633 l -0.410029,0 0,0.2083097 0.549982,0 c 0.02455,0 0.03682,0.012527 0.03682,0.037582 l 0,0.2058471 c 0,0.00536 -0.0021,0.010361 -0.0066,0.014715 -0.0021,0.015251 -0.01335,0.022863 -0.03356,0.022863 l -0.828237,0 c -0.01102,0 -0.01964,-0.00308 -0.0262,-0.00875 -0.0066,-0.00567 -0.0099,-0.014438 -0.0099,-0.026411 l 0,-1.1404226 z m 1.257909,0.7842518 c 0.0093,0.0076 0.02129,0.017696 0.03574,0.030485 0.01446,0.012805 0.03084,0.025614 0.04939,0.038139 0.02782,0.018507 0.05538,0.032945 0.08267,0.043284 0.02728,0.01035 0.05593,0.01554 0.08594,0.01554 0.02782,0 0.05129,-0.0033 0.07013,-0.00953 0.01884,-0.00627 0.03356,-0.014438 0.04448,-0.0248 0.01091,-0.01035 0.01881,-0.022317 0.02346,-0.035936 0.0046,-0.013621 0.0068,-0.028043 0.0068,-0.043284 0,-0.016903 -0.0063,-0.032131 -0.0191,-0.045487 -0.01284,-0.013332 -0.02866,-0.025043 -0.04719,-0.035388 -0.01854,-0.010362 -0.03791,-0.019338 -0.05811,-0.026696 -0.02019,-0.00736 -0.03763,-0.013332 -0.05238,-0.018244 -0.06547,-0.022887 -0.122777,-0.047663 -0.171877,-0.074069 -0.04909,-0.026406 -0.09004,-0.055825 -0.122757,-0.088221 -0.03275,-0.032413 -0.0573,-0.068085 -0.07365,-0.1070165 -0.01637,-0.038945 -0.02455,-0.082236 -0.02455,-0.1301657 0,-0.050639 0.01045,-0.096672 0.03083,-0.1380459 0.02045,-0.041388 0.04965,-0.076801 0.08757,-0.1062006 0.03792,-0.029423 0.08349,-0.052293 0.136955,-0.06835 0.05346,-0.016065 0.113212,-0.023971 0.179238,-0.023971 0.04963,0 0.09739,0.00541 0.142953,0.016612 0.04556,0.011157 0.09031,0.029129 0.134487,0.053632 0.01857,0.010895 0.03629,0.022064 0.05293,0.033776 0.01662,0.011711 0.03109,0.023148 0.04363,0.034041 0.01255,0.010895 0.02266,0.021235 0.03004,0.031027 0.0074,0.00982 0.01102,0.018244 0.01102,0.025333 0,0.00704 -0.0016,0.01362 -0.0051,0.019606 -0.0035,0.00594 -0.0091,0.012791 -0.0161,0.020422 l -0.125185,0.1331561 c -0.0092,0.00926 -0.01857,0.01389 -0.02782,0.01389 -0.0078,0 -0.01446,-0.0021 -0.02073,-0.0065 -0.0063,-0.00437 -0.01335,-0.00982 -0.02102,-0.016349 l -0.0074,-0.0065 c -0.01091,-0.00926 -0.0229,-0.018797 -0.03627,-0.028605 -0.01338,-0.00979 -0.02784,-0.018801 -0.04312,-0.026679 -0.01526,-0.00791 -0.03136,-0.014438 -0.04829,-0.019605 -0.01691,-0.00516 -0.03409,-0.0076 -0.05155,-0.0076 -0.01801,0 -0.03491,0.00132 -0.05075,0.00437 -0.01582,0.00304 -0.02975,0.00789 -0.04174,0.014438 -0.01202,0.0065 -0.02157,0.014984 -0.02864,0.025591 -0.007,0.010634 -0.01067,0.023701 -0.01067,0.038945 0,0.015248 0.0038,0.028323 0.01145,0.039478 0.0076,0.011157 0.0191,0.021501 0.03438,0.031024 0.01528,0.00955 0.03437,0.018527 0.05701,0.026975 0.02263,0.00842 0.04883,0.017696 0.07885,0.027486 0.05782,0.019058 0.111304,0.038945 0.160148,0.059922 0.04881,0.020954 0.09083,0.045729 0.126307,0.074335 0.03544,0.028591 0.06327,0.062898 0.08321,0.1026572 0.01991,0.039744 0.02975,0.087938 0.02975,0.1445821 0,0.059921 -0.01228,0.1141004 -0.03684,0.1628437 -0.02455,0.048742 -0.05811,0.090402 -0.100932,0.1247095 -0.04283,0.03431 -0.0933,0.060724 -0.15115,0.079508 -0.05782,0.018789 -0.120024,0.028318 -0.186585,0.028318 -0.06274,0 -0.124409,-0.011157 -0.184971,-0.033495 -0.06057,-0.022316 -0.117026,-0.052263 -0.169409,-0.089853 -0.02183,-0.015799 -0.0401,-0.031322 -0.05512,-0.046566 -0.015,-0.015254 -0.027,-0.027512 -0.03574,-0.036771 l -0.0024,-0.00242 c -5.35e-4,-0.00109 -0.0011,-0.00188 -0.0016,-0.0021 -5.35e-4,-2.654e-4 -0.0011,-5.349e-4 -0.0016,-0.00109 -5.35e-4,-0.00109 -0.0011,-0.00188 -0.0016,-0.0021 -5.34e-4,-2.841e-4 -0.0011,-5.348e-4 -0.0016,-0.00109 -0.01255,-0.013619 -0.01884,-0.024507 -0.01884,-0.032682 0,-0.00924 0.0063,-0.019606 0.01884,-0.031027 l 0.141585,-0.1348066 c 0.01146,-0.00817 0.02073,-0.012243 0.02782,-0.012243 0.0048,0 0.01011,0.00163 0.01556,0.00494 0.0054,0.0033 0.012,0.00819 0.01962,0.014717 z m 1.07377,0 c 0.0092,0.0076 0.0213,0.017696 0.03574,0.030485 0.01447,0.012805 0.03084,0.025614 0.04939,0.038139 0.02782,0.018507 0.05539,0.032945 0.08266,0.043284 0.02728,0.01035 0.05593,0.01554 0.08595,0.01554 0.02782,0 0.05129,-0.0033 0.0701,-0.00953 0.01881,-0.00627 0.03356,-0.014438 0.04448,-0.0248 0.01091,-0.01035 0.01884,-0.022317 0.02346,-0.035936 0.0046,-0.013621 0.0068,-0.028043 0.0068,-0.043284 0,-0.016903 -0.0063,-0.032131 -0.0191,-0.045487 -0.01284,-0.013332 -0.02866,-0.025043 -0.04719,-0.035388 -0.01854,-0.010362 -0.03791,-0.019338 -0.05811,-0.026696 -0.02019,-0.00736 -0.03763,-0.013332 -0.05237,-0.018244 -0.06547,-0.022887 -0.122776,-0.047663 -0.171876,-0.074069 -0.04909,-0.026406 -0.09004,-0.055825 -0.12276,-0.088221 -0.03275,-0.032413 -0.05729,-0.068085 -0.07365,-0.1070165 -0.01637,-0.038945 -0.02455,-0.082236 -0.02455,-0.1301657 0,-0.050639 0.01045,-0.096672 0.03082,-0.1380459 0.02046,-0.041388 0.04963,-0.076801 0.08758,-0.1062006 0.03792,-0.029423 0.08349,-0.052293 0.136953,-0.06835 0.05346,-0.016065 0.113212,-0.023971 0.179239,-0.023971 0.04963,0 0.09739,0.00541 0.142953,0.016612 0.04556,0.011157 0.09031,0.029129 0.134486,0.053632 0.01857,0.010895 0.03629,0.022064 0.05293,0.033776 0.01663,0.011711 0.03109,0.023148 0.04364,0.034041 0.01255,0.010895 0.02266,0.021235 0.03004,0.031027 0.0074,0.00982 0.01091,0.018244 0.01091,0.025333 0,0.00704 -0.0016,0.01362 -0.0052,0.019606 -0.0035,0.00594 -0.0091,0.012791 -0.0161,0.020422 l -0.125241,0.133157 c -0.0093,0.00926 -0.01855,0.013889 -0.02782,0.013889 -0.0078,0 -0.01446,-0.0021 -0.02075,-0.0065 -0.0063,-0.00437 -0.01335,-0.00982 -0.021,-0.016349 l -0.0074,-0.0065 c -0.01091,-0.00926 -0.02291,-0.018797 -0.03628,-0.028607 -0.01338,-0.00979 -0.02784,-0.018801 -0.04312,-0.026679 -0.01526,-0.00791 -0.03137,-0.014438 -0.04827,-0.019605 -0.01691,-0.00516 -0.03409,-0.0076 -0.05155,-0.0076 -0.01801,0 -0.03491,0.00132 -0.05075,0.00437 -0.01582,0.00304 -0.02973,0.00789 -0.04173,0.014438 -0.01202,0.0065 -0.02157,0.014984 -0.02866,0.025591 -0.007,0.010634 -0.01068,0.023701 -0.01068,0.038945 0,0.015248 0.0038,0.028323 0.01146,0.039478 0.0077,0.011157 0.0191,0.021501 0.03437,0.031024 0.01528,0.00955 0.03438,0.018527 0.05702,0.026975 0.02263,0.00842 0.04883,0.017696 0.07884,0.027486 0.05782,0.019058 0.111316,0.038945 0.160148,0.059922 0.04881,0.020954 0.09083,0.045729 0.126305,0.074335 0.03544,0.028592 0.06327,0.062898 0.08321,0.1026572 0.01991,0.039744 0.02975,0.087938 0.02975,0.1445821 0,0.059921 -0.01228,0.1141003 -0.03684,0.1628437 -0.02455,0.048742 -0.05811,0.090402 -0.100932,0.1247096 -0.04283,0.03431 -0.0933,0.060724 -0.151149,0.079508 -0.05782,0.018789 -0.120026,0.028317 -0.186584,0.028317 -0.06275,0 -0.124411,-0.011157 -0.184974,-0.033495 -0.06057,-0.022317 -0.117026,-0.052263 -0.169408,-0.089853 -0.02181,-0.015799 -0.0401,-0.031322 -0.05511,-0.046566 -0.015,-0.015255 -0.027,-0.027512 -0.03574,-0.036771 l -0.0024,-0.00242 c -5.35e-4,-0.00109 -0.0011,-0.00188 -0.0016,-0.0021 -5.34e-4,-2.654e-4 -0.0011,-5.349e-4 -0.0016,-0.00109 -5.36e-4,-0.00109 -0.0011,-0.00188 -0.0016,-0.0021 -5.36e-4,-2.841e-4 -0.0011,-5.349e-4 -0.0016,-0.00109 -0.01255,-0.01362 -0.01884,-0.024507 -0.01884,-0.032682 0,-0.00924 0.0063,-0.019606 0.01884,-0.031027 l 0.141587,-0.134837 c 0.01146,-0.00817 0.02073,-0.012243 0.02781,-0.012243 0.0048,0 0.01011,0.00163 0.01558,0.00494 0.0054,0.0033 0.01199,0.00819 0.01962,0.014717 z m 1.268552,-0.789955 c 5.36e-4,-0.0033 0.0025,-0.00682 0.0054,-0.010634 0.0031,-0.00383 0.0066,-0.00736 0.01091,-0.010633 0.0043,-0.0033 0.0091,-0.00594 0.01392,-0.00787 0.0049,-0.0019 0.0095,-0.00275 0.01392,-0.00275 l 0.209512,0 c 0.0093,0 0.0172,0.00275 0.02374,0.00842 0.0066,0.00572 0.01148,0.010895 0.01472,0.01525 l 0.02046,0.046566 0.42967,1.1061105 c 0.0043,0.010873 0.0036,0.019594 -0.0024,0.026411 -0.0059,0.00685 -0.01637,0.01035 -0.0311,0.01035 l -0.234888,0 c -0.01254,0 -0.0221,-0.00238 -0.02893,-0.00705 -0.0068,-0.00457 -0.01226,-0.012261 -0.0161,-0.023152 -0.01091,-0.02777 -0.02154,-0.055545 -0.03191,-0.083051 -0.01045,-0.027527 -0.02079,-0.055033 -0.03117,-0.082807 l -0.434586,0 c -0.01045,0.027769 -0.02074,0.055273 -0.03136,0.082769 -0.01068,0.027512 -0.02127,0.055273 -0.03164,0.083052 -0.007,0.020161 -0.02101,0.030235 -0.04174,0.030235 l -0.241434,0 c -0.01045,0 -0.01884,-0.00269 -0.02567,-0.00814 -0.0068,-0.00536 -0.0082,-0.013622 -0.0038,-0.024503 l 0.44447,-1.1485671 z m 0.148968,0.3496334 c -0.01045,0.027765 -0.02073,0.05772 -0.03136,0.089852 -0.01067,0.032131 -0.02127,0.064543 -0.03165,0.097221 -0.01045,0.032679 -0.02073,0.06481 -0.03138,0.096673 -0.01068,0.031848 -0.02127,0.061794 -0.03163,0.089586 l 0.251249,0 -0.125218,-0.373331 z M 24.781242,8.2127881 c 0.01045,-0.014701 0.02263,-0.02804 0.03683,-0.040026 0.01418,-0.011969 0.02946,-0.022317 0.04582,-0.03077 0.01637,-0.00845 0.03329,-0.014696 0.05075,-0.019058 0.01747,-0.00437 0.03491,-0.0065 0.0524,-0.0065 0.0099,0 0.02046,0.0011 0.03192,0.0033 0.01145,0.0021 0.024,0.00594 0.03764,0.011439 0.01365,0.00541 0.02892,0.012527 0.04583,0.021524 0.01691,0.00898 0.03574,0.020422 0.05646,0.034026 0.0059,0.00383 0.01202,0.00682 0.01775,0.00901 0.0057,0.0021 0.012,0.0033 0.0191,0.0033 0.01146,0 0.021,-0.00242 0.02864,-0.00704 0.0077,-0.00461 0.01471,-0.01035 0.02127,-0.017412 l 0.02702,-0.032679 c 0.0049,-0.00704 0.01045,-0.010895 0.0161,-0.011179 0.0057,-2.649e-4 0.01102,0.0021 0.01582,0.00704 l 0.08431,0.073519 c 0.0059,0.00594 0.01012,0.011168 0.012,0.015517 0.002,0.00437 0,0.010066 -0.0054,0.017162 l -0.02455,0.031865 c -0.02181,0.029954 -0.04883,0.053365 -0.08101,0.070244 -0.03219,0.01688 -0.0663,0.025333 -0.102295,0.025333 -0.02127,0 -0.04283,-0.00383 -0.06465,-0.011168 -0.02182,-0.00736 -0.04283,-0.017162 -0.06301,-0.029685 l -0.04501,-0.028591 c -0.0059,-0.00383 -0.01174,-0.00682 -0.0172,-0.00901 -0.0054,-0.0021 -0.01199,-0.0033 -0.01964,-0.0033 -0.01091,0 -0.02019,0.0021 -0.0281,0.0065 -0.0079,0.00437 -0.01501,0.010066 -0.02101,0.017148 l -0.02538,0.032678 c -0.0033,0.00541 -0.0091,0.00845 -0.01718,0.00926 -0.0082,7.865e-4 -0.01471,-0.0011 -0.01964,-0.00594 l -0.08426,-0.071086 c -0.0027,-0.00275 -0.0048,-0.00541 -0.0068,-0.00789 -0.002,-0.00242 -0.0031,-0.00594 -0.0031,-0.010895 0,-5.351e-4 2.67e-4,-0.00163 5.35e-4,-0.0033 2.67e-4,-0.00163 0.0014,-0.00408 0.0033,-0.00736 0.002,-0.0033 0.0046,-0.00789 0.0084,-0.013621 0.0038,-0.00572 0.0093,-0.013074 0.01636,-0.022339 z m 1.20308,0.8651023 c 0,0.045219 0.0078,0.087427 0.02294,0.1266226 0.01528,0.039219 0.03682,0.073252 0.06438,0.1023913 0.02756,0.029129 0.06,0.052003 0.09767,0.068616 0.03763,0.016612 0.07911,0.025065 0.124391,0.025065 0.04531,0 0.08704,-0.00845 0.12496,-0.025065 0.03792,-0.016612 0.07067,-0.039478 0.09819,-0.068616 0.02756,-0.029129 0.04883,-0.06318 0.06411,-0.1023913 0.01528,-0.039195 0.02293,-0.081403 0.02293,-0.1266226 0,-0.044647 -0.0078,-0.08686 -0.02293,-0.1263386 -0.01528,-0.039478 -0.03657,-0.073787 -0.06411,-0.1032081 -0.02753,-0.029406 -0.06028,-0.052551 -0.09819,-0.069431 -0.03791,-0.01688 -0.07966,-0.025323 -0.12496,-0.025323 -0.0453,0 -0.08674,0.00845 -0.124391,0.025323 -0.03765,0.01688 -0.0701,0.040026 -0.09767,0.069431 -0.02756,0.029419 -0.04909,0.063729 -0.06438,0.1032081 -0.01528,0.039478 -0.02294,0.081687 -0.02294,0.1263386 z m -0.315911,7.865e-4 c 0,-0.057744 0.0074,-0.1132854 0.02211,-0.1663864 0.01472,-0.0531 0.03574,-0.1029241 0.06301,-0.149488 0.02728,-0.046565 0.06,-0.088771 0.09792,-0.1269068 0.03791,-0.038116 0.07995,-0.070793 0.126307,-0.097752 0.04639,-0.026961 0.0963,-0.04793 0.1495,-0.062898 0.0532,-0.014985 0.108577,-0.022333 0.166411,-0.022333 0.05729,0 0.112678,0.00736 0.166143,0.022333 0.05349,0.014969 0.103408,0.035937 0.149786,0.062898 0.04637,0.026954 0.08864,0.059639 0.126837,0.097752 0.03822,0.038139 0.07095,0.080341 0.09794,0.1269068 0.027,0.046566 0.048,0.096387 0.06301,0.149488 0.01502,0.0531 0.02238,0.1086444 0.02238,0.1663864 0,0.057721 -0.0074,0.1130014 -0.02238,0.1661019 -0.015,0.0531 -0.036,0.1026583 -0.06301,0.1486739 -0.02702,0.046019 -0.05976,0.087958 -0.09794,0.1258084 -0.03818,0.037853 -0.08047,0.070529 -0.126837,0.097751 -0.04639,0.027214 -0.0963,0.04819 -0.149786,0.062894 -0.05346,0.014715 -0.10885,0.022068 -0.166143,0.022068 -0.05782,0 -0.113213,-0.00735 -0.166411,-0.022068 -0.0532,-0.014705 -0.103113,-0.03567 -0.1495,-0.062894 -0.04637,-0.027224 -0.0884,-0.0599 -0.126307,-0.097751 -0.03791,-0.037853 -0.07066,-0.079793 -0.09792,-0.1258084 -0.02728,-0.046019 -0.04829,-0.095574 -0.06301,-0.1486739 -0.01474,-0.0531 -0.02211,-0.1083797 -0.02211,-0.1661019 z"
       id="path32"
       inkscape:connector-curvature="0"
       style="fill:#88878c;fill-opacity:1;fill-rule:nonzero" /></g></svg>