<?xml version="1.0" encoding="UTF-8" standalone="no"?>
<svg xmlns:rdf="http://www.w3.org/1999/02/22-rdf-syntax-ns#" xmlns="http://www.w3.org/2000/svg" xml:space="preserve" height="512" width="512" version="1.1" xmlns:cc="http://creativecommons.org/ns#" xmlns:dc="http://purl.org/dc/elements/1.1/" viewBox="0 0 512 511.90111"><g transform="matrix(2.578 0 0 -2.492 -.5390 512.9)"><g fill-rule="evenodd" transform="scale(.1)"><path fill="#fbc707" d="m510.5 2031c490.5-319.2 939.4-616.6 1429-935.8 35.08-22.83 48.48-39.67 48.48-63.89 0-22.42-13.4-41.05-48.48-63.88-489.6-319-938.8-616.4-1429-935.6-52.58-34.49-73.94-48.19-73.94 26.12v1947c0 74.31 21.39 60.61 74.39 26.1"/><g transform="matrix(1.003 0 0 1.002 -1.982 -7.744)"><path d="m437.2 1360c185.9 0 336.6-150.7 336.6-336.6 0-151.4-100-279.5-237.5-321.8h-198.2c-137.5 42.3-237.5 170.4-237.5 321.4 0 185.9 150.7 336.6 336.6 336.6" fill="#3d9bca"/><path d="m338.1 701.5c-137.6 42.3-237.6 170.4-237.6 321.8 0 177.1 136.9 322.4 310.6 335.6 121.1-63.07 203.8-189.7 203.8-335.6 0-9.92-0.395-19.74-1.141-29.47l-378.9 5.528 6.621-2.836 317.9-67.41c18.42-3.902 41.33-11.39 33.15-34.08-29.1-80.8-85.1-148.9-157.1-193.5h-97.39" fill="#47c7ff"/><path d="m338.1 701.5h-64.9c-14.27 0-25.93-9.621-25.93-21.38v-59.38c0-11.75 11.67-21.37 25.93-21.37h328.7c14.26 0 25.94 9.625 25.94 21.37v59.38c0 11.75-11.67 21.38-25.94 21.38h-263.8" fill="#fff"/><path d="m567.6 569.1h-262.6l51.2-493.1c0.653-9.606 7.891-17.51 17.52-17.51h125.1c9.625 0 16.86 7.906 17.52 17.51l51.22 493.1" fill="#fff"/><path d="m593.4 680.1v-59.38c0-11.75-11.68-21.37-25.94-21.37h34.43c14.26 0 25.94 9.625 25.94 21.37v59.38c0 11.75-11.67 21.38-25.94 21.38h-34.43c14.27 0 25.94-9.625 25.94-21.38" fill="#dededd"/><path d="m453.2 569.1-2.4-493c0-9.66-7.9-17.55-17.5-17.55h65.63c9.625 0 16.86 7.906 17.52 17.51l51.22 493.1h-114.4" fill="#dededd"/><path d="m260.5 1172c-4.988-4.99-13.08-4.99-18.07 0-4.988 4.99-4.988 13.08 0 18.07 24.89 24.89 54.33 44.38 86.41 57.67 32.03 13.27 66.61 20.29 101.8 20.29 7.059 0 12.78-5.72 12.78-12.77 0-7.06-5.719-12.78-12.78-12.78-31.97 0-63.25-6.34-92.14-18.3-28.85-11.95-55.43-29.58-78.03-52.18zm8.309-440.6h336.7c92.34 53.45 156.9 149.5 166.9 261.3h-670.5c9.965-111.8 74.57-207.8 166.9-261.3zm-101.9 306.7c1.52 11.01 3.723 21.92 6.598 32.65 5.973 22.29 14.9 43.88 26.6 64.16 3.5 6.1 11.27 8.19 17.37 4.69 6.089-3.5 8.191-11.27 4.691-17.37-10.51-18.2-18.56-37.74-24.01-58.07-2.293-8.56-4.117-17.27-5.453-26.06h580.7c-7.918 178.9-155.5 321.5-336.3 321.5s-328.4-142.6-336.3-321.5h66.07zm106.2-336.9h328.7c14.27 0 25.94-9.621 25.94-21.38v-59.38c0-11.75-11.68-21.37-25.94-21.37h-328.7c-14.26 0-25.93 9.617-25.93 21.37v59.38c0 11.76 11.67 21.38 25.93 21.38zm394 21.9c6.934-6.242 11.31-15.28 11.31-25.29v-94.56c0-18.72-15.32-34.04-34.04-34.04h-9.792l-77.2-532.5c-2.1-14.4-12-26.47-26.5-26.47h-189.1c-14.56 0-25.07 11.98-26.48 26.48l-77.2 532.5h-2.227c-18.72 0-34.04 15.32-34.04 34.04v94.56c0 8.723 3.325 16.7 8.77 22.74-84.5 63.32-141.6 161.2-150.5 272.6h-33.36c-12.48 0-22.69 10.22-22.69 22.7s10.21 22.69 22.69 22.69h32.48c7.949 201.8 174.1 363.1 377.9 363.1s370-161.3 377.9-363.1h32.48c12.48 0 22.69-10.21 22.69-22.69s-10.21-22.7-22.69-22.7h-33.36c-8.7-110.2-64.5-206.9-147.1-270.3zm-99.45-153.9h-262.6l51.21-493c0.996-9.582 7.891-17.52 17.52-17.52h125.1c9.632 0 16.87 7.906 17.52 17.52l51.22 493" fill="#293554"/></g></g></g></svg>
