<svg style="image-rendering:optimizeQuality;text-rendering:geometricPrecision;shape-rendering:geometricPrecision" xmlns="http://www.w3.org/2000/svg" fill-rule="evenodd" height="105.9" width="535.4" version="1.1" clip-rule="evenodd" viewBox="0 0 7.6244765 1.5077241">
<defs>
<style type="text/css"><![CDATA[
    .fil0 {fill:#3C325F}
    .fil1 {fill:#B0DCF7}
   ]]></style>
<style type="text/css"><![CDATA[
    .fil0 {fill:#3C325F;fill-rule:nonzero}
   ]]></style>
<style type="text/css"><![CDATA[
    .fil0 {fill:#3C325F}
    .fil1 {fill:#B0DCF7}
   ]]></style>
</defs>
<g transform="translate(10.86 10.21)">
<g style="image-rendering:optimizeQuality;shape-rendering:geometricPrecision" fill-rule="evenodd" transform="matrix(.3244 0 0 .3244 .08007 -8.377)" clip-rule="evenodd" stroke-width=".8362" fill="#3c325f">
<path d="m-28.74-2.322h0.2749c0.04546 0.0003941 0.0868 0.01165 0.1232 0.03307 0.03642 0.02178 0.06572 0.05108 0.08713 0.08746 0.02141 0.03682 0.03268 0.07813 0.03304 0.1239-0.000365 0.04582-0.01162 0.08671-0.03304 0.1232-0.02141 0.03645-0.05071 0.06499-0.08713 0.08638-0.03641 0.02139-0.07774 0.03228-0.1232 0.03268h-0.2759zm-0.4432 1.319h0.4439v-0.449h0.2772c0.08454-0.0007599 0.1637-0.01692 0.2374-0.0492 0.07399-0.03194 0.139-0.07624 0.1949-0.1333 0.05635-0.05671 0.1003-0.1224 0.1322-0.1972 0.03155-0.07475 0.04807-0.1551 0.04843-0.2412-0.000366-0.08638-0.0169-0.1672-0.04883-0.2422-0.03229-0.07512-0.07662-0.1412-0.1337-0.1983-0.05671-0.05671-0.1228-0.1014-0.1975-0.1337-0.07525-0.03242-0.1589-0.04893-0.2425-0.04933h-0.7107v1.692zm1.814 0.00225 0.1014-0.2216h0.6918l0.1037 0.2216h0.4439l-0.7944-1.695h-0.2007l-0.786 1.695h0.4439zm0.4484-0.9691 0.1712 0.3729h-0.3448zm2.61 0.9674-0.3583-0.6137c0.04094-0.03791 0.07625-0.08075 0.1063-0.1284 0.02967-0.0477 0.05294-0.09875 0.06947-0.154 0.01614-0.05519 0.02442-0.113 0.0248-0.1735-0.000367-0.08638-0.01689-0.1667-0.04883-0.2418-0.03229-0.07512-0.07662-0.1412-0.1337-0.1979-0.05671-0.05708-0.1228-0.1018-0.1975-0.1337-0.08362-0.03325-0.1589-0.04977-0.2509-0.05016h-0.7107v1.692h0.4439v-0.4492h0.2749l0.2614 0.4492h0.5115zm-1.048-1.318h0.2749c0.04546 0.0007318 0.0868 0.01162 0.1232 0.03304 0.03642 0.02178 0.06572 0.05071 0.08713 0.08746 0.02141 0.03645 0.03268 0.07776 0.03304 0.1232-0.000365 0.04582-0.01162 0.08638-0.03304 0.1228-0.02141 0.03606-0.05071 0.06495-0.08713 0.08604-0.03641 0.02139-0.07774 0.03228-0.1232 0.03268h-0.2749zm1.23 0.06721h0.4394v1.25h0.4439v-1.25h0.4484v-0.4415h-1.332v0.4417zm1.636 1.248h0.4439v-1.691h-0.4439zm2.183-1.444c-0.05145-0.05148-0.1082-0.09541-0.1709-0.1319-0.06233-0.03645-0.1292-0.06459-0.2006-0.08412-0.08362-0.02052-0.1589-0.03068-0.2341-0.03068-0.09349 0.000394-0.1825 0.01467-0.2671 0.0432-0.08412 0.02817-0.1615 0.06836-0.2321 0.1198-0.07023 0.05182-0.131 0.1126-0.1829 0.1829-0.05145 0.07059-0.09164 0.1476-0.1198 0.232-0.02854 0.08412-0.0428 0.1732-0.04317 0.2671 0.000366 0.09348 0.01463 0.1825 0.04317 0.2671 0.02816 0.08412 0.06836 0.1615 0.1198 0.2321 0.05184 0.07022 0.1127 0.131 0.1829 0.1829 0.07062 0.05148 0.148 0.09164 0.2321 0.1198 0.08445 0.02856 0.1735 0.04284 0.2671 0.0432 0.07849-0.0003658 0.1536-0.01052 0.2253-0.03079 0.0721-0.02029 0.1397-0.0492 0.2028-0.08638 0.06273-0.03721 0.1198-0.08151 0.1712-0.133l-0.3155-0.311c-0.03529 0.03642-0.077 0.0642-0.1251 0.08337-0.04807 0.01953-0.101 0.0293-0.1589 0.0293-0.05784-0.000394-0.1108-0.01014-0.1589-0.02967-0.04843-0.01953-0.09014-0.04694-0.1258-0.08263-0.03531-0.03532-0.06273-0.077-0.08226-0.1254-0.01953-0.04807-0.0293-0.101-0.02968-0.1589 0.000365-0.05784 0.0101-0.1108 0.02968-0.1589 0.01953-0.04846 0.04694-0.09014 0.08226-0.1258 0.03566-0.0353 0.07738-0.0627 0.1258-0.08224 0.04807-0.01953 0.101-0.0293 0.1589-0.02967 0.05784 0 0.1108 0.00976 0.1589 0.02891 0.04807 0.01916 0.08981 0.04618 0.1251 0.08151zm0.3402 1.444h0.4439v-1.691h-0.4439zm1.228-1.316h0.2749c0.04546 0.000394 0.0868 0.01165 0.1232 0.03307 0.03641 0.02178 0.06572 0.05108 0.08713 0.08746 0.02141 0.03682 0.03268 0.07813 0.03305 0.1239-0.000367 0.04582-0.01163 0.08671-0.03305 0.1232-0.02141 0.03645-0.05071 0.06499-0.08713 0.08638s-0.07774 0.03228-0.1232 0.03268h-0.2843zm-0.4515 1.318h0.4439v-0.4484h0.2772c0.08454-0.0007599 0.1637-0.01692 0.2374-0.0492 0.07399-0.03194 0.139-0.07624 0.1949-0.1333 0.05635-0.05671 0.1003-0.1224 0.1322-0.1972 0.03155-0.07475 0.04807-0.1551 0.04843-0.2412-0.000366-0.08638-0.01689-0.1672-0.04883-0.2422-0.03229-0.07512-0.07662-0.1412-0.1337-0.1983-0.05671-0.05671-0.1228-0.1014-0.1975-0.1337-0.07525-0.03242-0.1589-0.04893-0.2425-0.04933h-0.7107v1.692zm1.814 0.00225 0.1014-0.2216h0.6918l0.1037 0.2216h0.4439l-0.7944-1.695h-0.2007l-0.7944 1.695h0.4439zm0.4432-0.97 0.1756 0.3727h-0.3448zm0.9691-0.2835h0.4394v1.251h0.4439v-1.251h0.4484v-0.4415h-1.332v0.4417zm1.636 1.248h0.4439v-1.688h-0.4432zm1.973-1.69-0.4515 0.9633-0.4432-0.9633h-0.4432l0.786 1.695h0.2028l0.786-1.695h-0.4348zm0.8027 1.695 0.1003-0.2216h0.6918l0.1037 0.2216h0.4439l-0.786-1.695h-0.2007l-0.7944 1.695h0.4439zm0.4515-0.97 0.1672 0.3727h-0.3448z" class="fil0"/>
<path d="m-28.74-4.627h0.2749c0.04541 0.0003346 0.08671 0.01162 0.1232 0.03303 0.0368 0.02182 0.06606 0.05109 0.08696 0.08755 0.02174 0.03679 0.03261 0.0781 0.03345 0.1239-0.000836 0.04582-0.0117 0.08671-0.03345 0.1232-0.0209 0.03646-0.05018 0.06497-0.08696 0.08638-0.03646 0.0214-0.07776 0.03228-0.1232 0.03228h-0.2749zm-0.4439 1.319h0.4439v-0.4482h0.2772c0.08445-0.0008361 0.1636-0.01756 0.2371-0.04933 0.07442-0.03177 0.1388-0.07609 0.1948-0.1338 0.05687-0.05602 0.1003-0.1221 0.1321-0.1965 0.03177-0.07517 0.0485-0.1555 0.0485-0.2415 0-0.08646-0.01672-0.1672-0.0485-0.2422-0.03261-0.07517-0.07694-0.1412-0.1338-0.1983-0.05687-0.05669-0.1229-0.1014-0.1973-0.1337-0.07525-0.03192-0.1556-0.04844-0.242-0.04883h-0.7121zm1.814 0.00225 0.1014-0.2216h0.6918l0.1045 0.2216h0.444l-0.7952-1.695h-0.2007l-0.7885 1.695h0.4432zm0.449-0.97 0.1706 0.3727h-0.3445zm1.561-0.7252h-0.4457v1.024c0.00076 0.09348 0.01801 0.1806 0.05182 0.2614 0.0342 0.08038 0.0815 0.1513 0.1423 0.2122 0.06045 0.06045 0.131 0.1082 0.2118 0.142 0.08038 0.03417 0.1675 0.05145 0.2611 0.05221 0.0924-0.0007598 0.1788-0.01804 0.2591-0.05221 0.08038-0.0338 0.1509-0.08151 0.2122-0.142 0.06083-0.06085 0.1085-0.1319 0.1431-0.2122 0.03454-0.08075 0.05182-0.1678 0.05257-0.2614v-1.024h-0.4474v1.018c-0.000367 0.04092-0.01055 0.0781-0.03006 0.1112-0.01989 0.0334-0.04618 0.05969-0.07923 0.0796-0.03344 0.01953-0.07062 0.02969-0.1115 0.03006-0.04097 0-0.07777-0.01003-0.1112-0.0301-0.03345-0.01923-0.05937-0.04599-0.07944-0.07944-0.01924-0.03261-0.02926-0.07024-0.03011-0.1112zm1.19 0.4417h0.4398v1.251h0.444v-1.251h0.4482v-0.4415h-1.332v0.4417zm1.845 1.253 0.1014-0.2216h0.6918l0.1037 0.2216h0.4448l-0.796-1.694h-0.1998l-0.7893 1.695zm0.449-0.9691 0.1706 0.3727h-0.3445z" class="fil0"/>
</g>
<g transform="matrix(1.68 0 0 1.68 -10.98 -10.21)">
<path d="m0.2832 0.1284h0.214c0.001706 0 0.003417 0.00002152 0.005112 0.00006457l0.0002421 0.00000538 0.0002529 0.00001076c0.001534 0.00003767 0.003067 0.0001022 0.004595 0.0001722l0.0004843 0.00002152 0.0003282 0.00001614c0.005133 0.0002744 0.01022 0.0007318 0.01525 0.001367l0.0002045 0.0000269 0.0004681 0.00006457c0.001383 0.0001776 0.00276 0.000382 0.004143 0.0005865l0.001205 0.0001883c0.001404 0.0002206 0.002798 0.000452 0.004197 0.0006995l0.0003013 0.00005381h0.00001614l0.0004036 0.00007533c0.001275 0.0002314 0.00254 0.0004789 0.00381 0.0007372l0.001867 0.000382 0.003293 0.000721 0.001469 0.0003444 0.003756 0.0009255 0.001076 0.0002798 0.003395 0.0009201 0.002066 0.0005865 0.002298 0.0006834 0.003013 0.0009416 0.0005811 0.0001883 0.001544 0.0005058 0.0002852 0.00009685 0.002604 0.0008932 0.0001883 0.00006457 0.001528 0.0005381 0.00004305 0.00001614 0.002787 0.001022 0.0002206 0.00008609 0.001512 0.0005757 0.0004305 0.0001668 0.002405 0.0009524 0.0001722 0.00006995 0.001501 0.0006134 0.0002475 0.0001076c0.002405 0.0009954 0.004789 0.002029 0.007151 0.003115l0.001464 0.000678c0.00141 0.0006618 0.002814 0.001334 0.004208 0.002034l0.0003767 0.0001883c0.001324 0.0006618 0.002637 0.001329 0.003939 0.002018l0.0001184 0.00005919 0.001421 0.0007533c0.06571 0.03522 0.1107 0.1046 0.1107 0.184v0.2332c0 0.001792-0.00002152 0.003584-0.00006457 0.005365-0.00004843 0.001781-0.000113 0.003557-0.0002045 0.005332-0.00009147 0.00177-0.0002098 0.00353-0.0003444 0.005289-0.0001345 0.00176-0.0002906 0.003508-0.0004681 0.005252-0.0001829 0.001749-0.0003767 0.003487-0.0006026 0.005219-0.0002206 0.001733-0.0004627 0.00346-0.0007318 0.005176-0.0002637 0.001722-0.0005488 0.003428-0.0008555 0.005133-0.0003067 0.001706-0.0006349 0.003401-0.0009847 0.00509-0.0003497 0.00169-0.0007156 0.003374-0.001108 0.005047-0.0003874 0.001673-0.0008071 0.003341-0.001232 0.004999-0.0004305 0.001657-0.0008824 0.003309-0.001351 0.00495-0.0004735 0.001641-0.0009685 0.003277-0.001474 0.004902-0.0005112 0.001625-0.001038 0.003245-0.001587 0.004848-0.0005488 0.001609-0.001114 0.003207-0.001706 0.004794-0.0005865 0.001593-0.001195 0.003175-0.001819 0.004746-0.0006242 0.001571-0.00127 0.003126-0.001932 0.004681-0.0006565 0.00155-0.00134 0.003099-0.002039 0.004627-0.0006995 0.001534-0.001421 0.003056-0.002152 0.004568-0.0007372 0.001517-0.00149 0.003013-0.00226 0.004509-0.0007694 0.001496-0.00156 0.002965-0.002362 0.004439-0.0008017 0.001469-0.00163 0.002933-0.00247 0.00438-0.0008394 0.001447-0.0017 0.002889-0.002567 0.004321-0.0008771 0.001426-0.001765 0.002841-0.002674 0.004245-0.000904 0.001399-0.001835 0.002793-0.002771 0.004175-0.0009416 0.001377-0.001894 0.00275-0.002868 0.004106-0.0009685 0.001356-0.001964 0.002701-0.002965 0.004036-0.001001 0.001334-0.002023 0.002663-0.003056 0.003966-0.001033 0.001313-0.002082 0.002599-0.003148 0.003885-0.001065 0.001286-0.002147 0.002556-0.003239 0.00381h-0.00000538c-0.001098 0.001254-0.002206 0.002502-0.003325 0.003734-0.001125 0.001238-0.00226 0.002443-0.003417 0.003648-0.001151 0.001205-0.002324 0.002394-0.003508 0.003573-0.001178 0.001178-0.002378 0.002341-0.003584 0.003487-0.001216 0.001151-0.002437 0.002287-0.00367 0.003406h-0.00000538c-0.001232 0.001119-0.002486 0.002222-0.003745 0.003315h-0.00000538c-0.001264 0.001087-0.002534 0.002168-0.003826 0.003234-0.001291 0.001065-0.002594 0.002104-0.003906 0.003137h-0.00000538c-0.001313 0.001028-0.002637 0.00205-0.003976 0.003046-0.00134 0.001006-0.00269 0.001986-0.004057 0.002959-0.001367 0.0009685-0.002744 0.001921-0.004132 0.002857-0.001383 0.0009363-0.002787 0.001867-0.004192 0.002771h-0.00000538c-0.001415 0.000904-0.002836 0.001803-0.004267 0.002669-0.001431 0.0008771-0.002884 0.001733-0.004337 0.002572-0.001458 0.000834-0.002916 0.001663-0.004396 0.00247h-0.00000539c-0.00148 0.0008017-0.002965 0.001593-0.004461 0.002368-0.001501 0.0007748-0.003008 0.001523-0.004531 0.00226-0.001517 0.0007372-0.003051 0.001458-0.00459 0.002163-0.001539 0.0006995-0.003083 0.001383-0.004644 0.00205h-0.00000539c-0.001555 0.0006618-0.003126 0.001313-0.004703 0.001942-0.001582 0.0006295-0.003158 0.001243-0.004757 0.001835h-0.00000538c-0.001598 0.0005973-0.003196 0.001173-0.00481 0.001727h-0.00000538c-0.001609 0.0005542-0.003234 0.001087-0.004859 0.001603h-0.00000538c-0.001625 0.0005166-0.003266 0.001022-0.004913 0.001496h-0.00000538c-0.001647 0.0004789-0.003298 0.0009416-0.004961 0.001383-0.001663 0.0004412-0.003336 0.0008609-0.005015 0.001259-0.001679 0.0003982-0.003363 0.0007856-0.005053 0.001146h-0.00000538c-0.001695 0.0003551-0.003401 0.0006995-0.005101 0.001017-0.001711 0.0003175-0.003417 0.0006242-0.005144 0.0008986h-0.00000538c-0.001716 0.0002798-0.003449 0.0005381-0.005182 0.0007748h-0.00000538c-0.001733 0.0002368-0.003471 0.000452-0.005219 0.0006511h-0.00000538c-0.001743 0.0001937-0.003497 0.0003713-0.005252 0.0005219h-0.00000539c-0.00176 0.0001507-0.003524 0.0002798-0.005295 0.0003874h-0.00000538c-0.00177 0.0001076-0.003546 0.0001991-0.005327 0.0002637h-0.00000538c-0.001781 0.00006995-0.003562 0.0001022-0.005354 0.0001291h-0.00000538l-0.2229 0.002637h-0.00000538l-0.1475 0.09418c-0.0563 0.03595-0.05477 0.02889-0.05453-0.02581l0.0006995-0.162c-0.0007856-0.004708-0.0008986-0.01227-0.0008555-0.02301l0.002362-0.3285c0.0004143-0.09683 0.06698-0.1788 0.1567-0.202 0.001652-0.0004305 0.003315-0.0008448 0.004988-0.001232h0.00001614c0.001673-0.0003928 0.003352-0.0007641 0.005042-0.001114h0.00000538c0.00169-0.0003444 0.00339-0.0006726 0.00509-0.0009793h0.00000538c0.001706-0.0003067 0.003417-0.0005973 0.005133-0.0008609h0.00001076c0.001716-0.0002637 0.003444-0.0005058 0.005171-0.0007318h0.00000538c0.001738-0.0002206 0.003476-0.0004251 0.005219-0.0005973 0.001743-0.0001776 0.003497-0.000339 0.005262-0.0004735 0.00176-0.0001345 0.003524-0.0002475 0.005295-0.000339 0.00177-0.00008609 0.003551-0.0001614 0.005327-0.0002045 0.001781-0.00004843 0.003573-0.00006995 0.005365-0.00006995z" class="fil0" fill="#3c325f"/>
<path d="m0.3775 0.4649-0.0217-0.0212c-0.0007-0.0347-0.0723-0.1216-0.0924-0.1363-0.003 0.0023-0.0118 0.0364-0.0311 0.0219-0.0045-0.0033-0.0246 0.0175-0.0246 0.0221 0.0226 0.0557 0.0567 0.1047 0.0816 0.1508 0.0034 0.0064-0.0055-0.0009-0.011-0.0033l0.02022 0.02791 0.007678 0.01333 0.00841 0.004428 0.05231 0.08476-0.002513-0.02582 0.01739 0.007043 0.001996-0.01984 0.06607-0.04811 0.01151-0.03799-0.0002798 0.0241 0.02698-0.05277-0.01629 0.03897c0.00282-0.006973 0.02666-0.04175 0.03466-0.05076l0.1317-0.1483c0.02161-0.02016 0.05562-0.06499 0.08031-0.0894 0.01636-0.01618-0.04322 0.02981-0.03421 0.01698 0.004089-0.005833 0.05248-0.04957 0.05752-0.05118-0.01156-0.04679 0.01648-0.0192 0.01648-0.05319v-0.02969h0.01782l-0.0001291 0.01155 0.01867-0.005844-0.006667-0.02352h0.01188l0.0007103-0.01867 0.01216 0.01015 0.03464-0.06867c-0.01276 0.006747-0.0699-0.02392-0.08711-0.007415-0.07191 0.06893-0.3242 0.379-0.3827 0.4579z" class="fil1" fill="#b0dcf7"/>
</g>
</g>
</svg>
