<?xml version="1.0" encoding="UTF-8" standalone="no"?>
<!-- Created with Inkscape (http://www.inkscape.org/) -->

<svg
   xmlns:dc="http://purl.org/dc/elements/1.1/"
   xmlns:cc="http://creativecommons.org/ns#"
   xmlns:rdf="http://www.w3.org/1999/02/22-rdf-syntax-ns#"
   xmlns:svg="http://www.w3.org/2000/svg"
   xmlns="http://www.w3.org/2000/svg"
   xmlns:sodipodi="http://sodipodi.sourceforge.net/DTD/sodipodi-0.dtd"
   xmlns:inkscape="http://www.inkscape.org/namespaces/inkscape"
   id="svg2"
   version="1.1"
   inkscape:version="0.91 r13725"
   xml:space="preserve"
   width="302.5"
   height="267.5"
   viewBox="0 0 302.5 267.5"
   sodipodi:docname="logo-wikilegis.svg"><metadata
     id="metadata8"><rdf:RDF><cc:Work
         rdf:about=""><dc:format>image/svg+xml</dc:format><dc:type
           rdf:resource="http://purl.org/dc/dcmitype/StillImage" /><dc:title></dc:title></cc:Work></rdf:RDF></metadata><defs
     id="defs6" /><sodipodi:namedview
     pagecolor="#ffffff"
     bordercolor="#666666"
     borderopacity="1"
     objecttolerance="10"
     gridtolerance="10"
     guidetolerance="10"
     inkscape:pageopacity="0"
     inkscape:pageshadow="2"
     inkscape:window-width="1865"
     inkscape:window-height="1053"
     id="namedview4"
     showgrid="false"
     inkscape:zoom="0.88224299"
     inkscape:cx="151.25"
     inkscape:cy="133.75"
     inkscape:window-x="1975"
     inkscape:window-y="27"
     inkscape:window-maximized="1"
     inkscape:current-layer="g12" /><g
     id="g10"
     inkscape:groupmode="layer"
     inkscape:label="ink_ext_XXXXXX"
     transform="matrix(1.25,0,0,-1.25,0,267.5)"><g
       id="g12"
       transform="scale(0.1,0.1)"><path
         d="m 1135.94,1956.99 -70.19,0 c -2.36,0 -4.76,-0.21 -7.2,-0.63 -4.04,12.31 -15.62,21.19 -29.27,21.19 -17.01,0 -30.811,-13.79 -30.811,-30.8 0,-11.09 5.871,-20.82 14.661,-26.24 L 736.781,1352.46 535.27,1922.55 c -3.446,9.18 -10.622,17.22 -21.532,24.11 -10.906,6.89 -20.953,10.33 -30.14,10.33 l -361.684,0 c -19.523,0 -34.7343,-6.89 -45.6445,-20.67 -10.9101,-13.77 -12.914,-30.42 -6.0273,-49.94 L 531.824,618.746 c 3.446,-9.187 10.336,-17.223 20.668,-24.113 10.336,-6.891 20.094,-10.332 29.281,-10.332 l 196.344,0 c 9.188,0 18.946,3.156 29.281,9.472 10.332,6.313 17.223,13.493 20.668,21.528 l 339.064,738.869 22.12,-46.93 c -14.84,-10.31 -24.57,-27.49 -24.57,-46.94 0,-31.54 25.58,-57.12 57.12,-57.12 5.33,0 10.49,0.73 15.39,2.1 l 258.39,-551.952 c -17.54,-12.051 -29.05,-32.254 -29.05,-55.14 0,-36.918 29.94,-66.86 66.86,-66.86 32,0 58.76,22.504 65.32,52.539 l 150.08,0 c 6.81,-15.898 22.61,-27.039 41,-27.039 24.64,0 44.61,19.973 44.61,44.606 0,12.777 -5.38,24.3 -13.99,32.433 l 178.27,472.933 c 8.19,-14.17 23.51,-23.71 41.05,-23.71 26.17,0 47.39,21.23 47.39,47.39 0,26.17 -21.22,47.39 -47.39,47.39 -6.3,0 -12.32,-1.24 -17.82,-3.47 l 244.98,718.13 c 1.07,-0.08 2.16,-0.12 3.26,-0.12 26.42,0 47.85,21.43 47.85,47.86 0,26.42 -21.43,47.85 -47.85,47.85 -20.38,0 -37.79,-12.76 -44.69,-30.73 l -347.1,0 c -5.5,22.3 -25.63,38.85 -49.62,38.85 -28.21,0 -51.1,-22.89 -51.1,-51.1 0,-16.08 7.44,-30.42 19.05,-39.79 l -181.88,-488.14 c -3.26,0.54 -6.61,0.83 -10.02,0.83 -6.95,0 -13.62,-1.18 -19.83,-3.34 l -239.64,480.28 c 14.9,11.65 24.48,29.79 24.48,50.16 0,35.13 -28.48,63.61 -63.61,63.61 -31.08,0 -56.95,-22.29 -62.51,-51.76 l -107.74,0 0,0 z m 900.52,-256.11 c 10.63,0 20.49,-3.24 28.67,-8.79 l 167.79,218.12 c -5.83,7.21 -9.6,16.15 -10.44,25.92 l -343.43,0 c -1.66,-9.29 -5.82,-17.7 -11.76,-24.53 l 147.29,-215.64 c 6.63,3.15 14.05,4.92 21.88,4.92 z m 43.5,-24.27 c 4.82,-7.8 7.6,-16.99 7.6,-26.82 0,-24.05 -16.62,-44.22 -39,-49.66 l -32.36,-376.74 227,665.43 -163.24,-212.21 z m -52.78,-77.08 c -10.1,1.86 -19.16,6.68 -26.25,13.55 l -341,-230.79 c 3.36,-7.52 5.23,-15.85 5.23,-24.61 0,-8.55 -1.78,-16.68 -4.98,-24.04 l 325.22,-200.55 2.3,6.75 39.48,459.69 z m -38.12,31.16 c -2.38,5.9 -3.69,12.34 -3.69,19.1 0,12.71 4.65,24.33 12.33,33.27 l -147.38,215.76 c -6.55,-3.07 -13.86,-4.78 -21.58,-4.78 -4.5,0 -8.87,0.59 -13.03,1.68 l -180.95,-485.63 c 4.88,-2.8 9.33,-6.25 13.22,-10.25 l 341.08,230.85 z m -12.53,-517.02 -328.08,202.31 c -10.99,-11.5 -26.49,-18.68 -43.66,-18.68 -1.68,0 -3.36,0.08 -5.01,0.21 l -32.41,-105.93 c 17.57,-8.88 29.63,-27.09 29.63,-48.12 0,-15.86 -6.86,-30.12 -17.77,-39.98 l 142.86,-220.484 c 7.68,3.84 16.34,6.004 25.51,6.004 11.75,0 22.67,-3.551 31.76,-9.641 l 197.17,234.311 z m -698.83,134.81 120.58,-45.15 -61.99,278.68 c -1.36,-0.11 -2.74,-0.17 -4.13,-0.17 -9.86,0 -19.05,2.79 -26.86,7.63 l -120.93,-122.11 24.26,-51.46 c 4.23,1 8.64,1.53 13.17,1.53 31.54,0 57.13,-25.59 57.13,-57.13 0,-4.05 -0.43,-8.01 -1.23,-11.82 z m 87.38,245.39 162.62,-298.78 c 4.89,1.46 10.06,2.25 15.43,2.25 1.28,0 2.56,-0.05 3.82,-0.14 l 32.35,105.74 c -20.6,9.61 -34.88,30.51 -34.88,54.74 0,18.76 8.57,35.53 22.01,46.6 l -239.81,480.6 c -1.48,-0.5 -3,-0.95 -4.53,-1.35 l 22.16,-300.94 c 22.38,-5.43 39,-25.61 39,-49.65 0,-15.67 -7.06,-29.7 -18.17,-39.07 z m 124.26,-347.25 -61.91,23.18 112.33,-505.054 c 31.65,-2.996 56.87,-28.055 60.13,-59.617 l 145.45,0 c 1.88,22.902 21.07,40.91 44.45,40.91 4.14,0 8.14,-0.562 11.93,-1.617 L 1957.85,1058.61 1794.5,864.492 c 6.44,-9.25 10.23,-20.488 10.23,-32.617 0,-31.543 -25.59,-57.125 -57.13,-57.125 -31.54,0 -57.12,25.582 -57.12,57.125 0,14.711 5.56,28.125 14.7,38.25 l -144.17,222.505 c -5.6,-1.97 -11.62,-3.05 -17.88,-3.05 -29.75,0 -53.88,24.13 -53.88,53.88 0,1.06 0.03,2.12 0.09,3.16 z m 29.04,-483.268 -114.61,515.308 -134.24,50.26 c -3.61,-5.47 -8.13,-10.3 -13.36,-14.24 l 258.54,-552.278 c 1.21,0.352 2.43,0.668 3.67,0.95 z m -96.44,531.118 72.82,-27.26 c 3.42,6.96 8.3,13.07 14.24,17.94 l -143.71,264.02 56.65,-254.7 z M 1238.03,942.898 c 18.29,0 33.13,-14.835 33.13,-33.128 0,-18.29 -14.84,-33.125 -33.13,-33.125 -18.29,0 -33.13,14.835 -33.13,33.125 0,18.293 14.84,33.128 33.13,33.128 z m 71.4,1194.192 c 14.59,0 26.43,-11.84 26.43,-26.42 0,-14.59 -11.84,-26.42 -26.43,-26.42 -14.58,0 -26.41,11.83 -26.41,26.42 0,14.58 11.83,26.42 26.41,26.42 z m 210.98,-178.93 c 19.73,0 35.74,-16 35.74,-35.74 0,-19.74 -16.01,-35.74 -35.74,-35.74 -19.75,0 -35.75,16 -35.75,35.74 0,19.74 16,35.74 35.75,35.74 z m -230.44,-454.05 -0.17,0.25 0.16,-0.25 0.01,0 z m 957.46,-15.7 c 14.84,0 26.88,-12.03 26.88,-26.87 0,-14.84 -12.04,-26.88 -26.88,-26.88 -14.84,0 -26.87,12.04 -26.87,26.88 0,14.84 12.03,26.87 26.87,26.87"
         style="fill:#7cd07f;fill-opacity:0.94117647;fill-rule:evenodd;stroke:none"
         id="path14"
         inkscape:connector-curvature="0" /><path
         d="m 416.586,314.012 c -2.332,0 -4.66,-0.774 -6.988,-2.328 -2.332,-1.555 -3.883,-3.364 -4.66,-5.438 l -46.586,-128.113 -60.957,128.89 c -0.516,2.071 -1.938,3.754 -4.27,5.047 -2.328,1.293 -4.527,1.942 -6.602,1.942 l -52.796,0 c -2.071,0 -4.274,-0.711 -6.598,-2.137 -2.332,-1.422 -3.883,-3.039 -4.66,-4.852 L 159.574,177.742 114.152,306.246 c -0.777,2.074 -2.394,3.883 -4.855,5.438 -2.457,1.554 -4.723,2.328 -6.793,2.328 l -81.5274,0 c -4.3985,0 -7.8321,-1.551 -10.293,-4.66 -2.45704,-3.106 -2.91016,-6.86 -1.35547,-11.258 L 113.375,12.3555 c 0.777,-2.0703 2.328,-3.88284 4.66,-5.43753 2.328,-1.55078 4.528,-2.32813 6.598,-2.32813 l 44.262,0 c 2.066,0 4.269,0.71485 6.597,2.13672 2.332,1.42188 3.883,3.04297 4.656,4.85154 L 258.184,181.625 339.715,11.5781 c 1.035,-2.07029 2.59,-3.74997 4.656,-5.04685 2.074,-1.29297 4.145,-1.94141 6.215,-1.94141 l 44.644,0 c 2.075,0 4.274,0.77735 6.602,2.32813 2.328,1.55469 3.883,3.36723 4.656,5.43753 L 510.535,298.094 c 1.555,4.398 1.164,8.152 -1.164,11.258 -2.328,3.109 -5.691,4.66 -10.094,4.66 l -82.691,0 z M 611.09,9.25 c 2.844,0 5.242,1.1641 7.18,3.4961 1.941,2.3242 2.914,5.043 2.914,8.1523 l 0,281.0786 c 0,3.109 -0.973,5.824 -2.914,8.152 -1.938,2.332 -4.336,3.496 -7.18,3.496 l -72.215,0 c -2.844,0 -5.238,-1.164 -7.18,-3.496 -1.941,-2.328 -2.914,-5.043 -2.914,-8.152 l 0,-281.0786 c 0,-3.1093 0.973,-5.8281 2.914,-8.1523 1.942,-2.332 4.336,-3.4961 7.18,-3.4961 l 72.215,0 z m 123.07,0 c 3.106,0 5.824,1.1641 8.153,3.4961 2.328,2.3242 3.492,5.043 3.492,8.1523 l 0,105.9846 117.636,-114.5275 c 0.778,-0.5196 2.133,-1.1641 4.079,-1.9414 1.937,-0.77738 3.425,-1.1641 4.46,-1.1641 l 104.434,0 c 2.852,0 5.242,0.64453 7.184,1.9414 1.941,1.293 3.367,2.9766 4.273,5.0469 0.902,2.0703 1.098,4.2695 0.582,6.6015 -0.519,2.3243 -1.812,4.5274 -3.883,6.5977 L 836.652,173.859 945.746,293.824 c 1.813,1.813 2.848,3.883 3.106,6.211 0.257,2.332 -0.067,4.531 -0.969,6.602 -0.906,2.07 -2.395,3.75 -4.465,5.047 -2.07,1.293 -4.402,1.941 -6.992,1.941 l -90.067,0 c -1.039,0 -2.589,-0.453 -4.66,-1.359 -2.07,-0.907 -3.492,-1.746 -4.269,-2.524 l -91.625,-104.433 0,96.668 c 0,3.109 -1.164,5.824 -3.492,8.152 -2.329,2.332 -5.047,3.496 -8.153,3.496 l -84.246,0 c -3.109,0 -5.824,-1.164 -8.152,-3.496 -2.332,-2.328 -3.496,-5.043 -3.496,-8.152 l 0,-281.0786 c 0,-3.1093 1.164,-5.8281 3.496,-8.1523 2.328,-2.332 5.043,-3.4961 8.152,-3.4961 l 84.246,0 z m 354.07,0 c 2.84,0 5.24,1.1641 7.18,3.4961 1.94,2.3242 2.91,5.043 2.91,8.1523 l 0,281.0786 c 0,3.109 -0.97,5.824 -2.91,8.152 -1.94,2.332 -4.34,3.496 -7.18,3.496 l -72.21,0 c -2.85,0 -5.25,-1.164 -7.19,-3.496 -1.94,-2.328 -2.91,-5.043 -2.91,-8.152 l 0,-281.0786 c 0,-3.1093 0.97,-5.8281 2.91,-8.1523 1.94,-2.332 4.34,-3.4961 7.19,-3.4961 l 72.21,0 z m 135.1,292.727 c 0,3.109 -1.23,5.824 -3.69,8.152 -2.46,2.332 -5.24,3.496 -8.34,3.496 l -84.25,0 c -3.36,0 -6.15,-1.164 -8.35,-3.496 -2.2,-2.328 -3.29,-5.043 -3.29,-8.152 l 0,-281.0786 c 0,-3.1093 1.16,-5.8281 3.49,-8.1523 2.33,-2.332 5.17,-3.4961 8.54,-3.4961 l 242.65,0 c 3.1,0 5.82,1.1641 8.15,3.4961 2.33,2.3242 3.49,5.043 3.49,8.1523 l 0,66.7735 c 0,3.3672 -1.23,6.1445 -3.68,8.3476 -2.46,2.1993 -5.25,3.3008 -8.35,3.3008 l -146.75,0 0.38,202.6567 z M 1647.29,9.25 c 3.36,0 6.14,1.1641 8.34,3.4961 2.2,2.3242 3.3,5.043 3.3,8.1523 l 0,56.6797 c 0,3.3633 -1.1,6.211 -3.3,8.543 -2.2,2.3281 -4.98,3.4922 -8.34,3.4922 l -140.93,0 0,32.6097 111.42,0.39 c 3.1,0 5.82,1.164 8.15,3.496 2.33,2.329 3.5,5.176 3.5,8.539 l 0,55.907 c 0,3.105 -1.17,5.824 -3.5,8.152 -2.33,2.328 -5.05,3.492 -8.15,3.492 l -111.42,0 0,31.063 130.44,0 c 3.11,0 5.83,1.164 8.16,3.492 2.33,2.328 3.49,5.176 3.49,8.543 l 0,56.68 c 0,3.109 -1.16,5.824 -3.49,8.152 -2.33,2.332 -5.05,3.496 -8.16,3.496 l -226.34,0 c -3.1,0 -5.82,-1.164 -8.15,-3.496 -2.33,-2.328 -3.49,-5.043 -3.49,-8.152 l 0,-281.0786 c 0,-3.1093 1.16,-5.8281 3.49,-8.1523 2.33,-2.332 5.05,-3.4961 8.15,-3.4961 l 236.83,0 z m 136.26,150.246 c 0,25.363 8.93,45.813 26.79,61.34 18.64,15.531 43.22,23.297 73.77,23.297 9.83,0 19.6,-0.52 29.31,-1.555 9.7,-1.035 19.34,-2.457 28.92,-4.273 19.67,-3.879 36.5,-7.891 50.47,-12.032 4.4,-1.296 8.15,-0.585 11.26,2.133 3.11,2.719 4.4,6.278 3.88,10.676 l -6.6,53.965 c -0.26,2.07 -1.23,4.078 -2.91,6.019 -1.68,1.938 -3.56,3.168 -5.63,3.688 -13.46,4.141 -31.19,7.957 -53.19,11.453 -21.99,3.492 -46.71,5.242 -74.15,5.242 -56.42,0 -102.11,-14.496 -137.04,-43.48 -34.95,-29.508 -52.42,-69.496 -52.42,-119.969 0,-51.504 16.95,-89.6172 50.86,-114.332 33.91,-24.7188 82.83,-37.07816 146.76,-37.07816 28.21,0 54.41,1.8125 78.61,5.43746 24.2,3.6211 45.75,8.4102 64.64,14.3633 2.33,0.7735 4.33,2.2657 6.02,4.4649 1.68,2.1992 2.52,4.4648 2.52,6.7929 l 0,136.2696 c 0,3.363 -1.16,6.148 -3.49,8.348 -2.33,2.199 -5.18,3.3 -8.54,3.3 l -124.24,0 c -3.36,0 -6.21,-1.101 -8.54,-3.3 -2.33,-2.2 -3.49,-4.985 -3.49,-8.348 l 0,-51.633 c 0,-3.363 1.16,-6.215 3.49,-8.543 2.33,-2.328 5.18,-3.492 8.54,-3.492 l 40.77,0 0,-19.4141 c -12.17,-4.6601 -29.9,-6.9843 -53.19,-6.9843 -29.25,0 -52.16,6.9843 -68.72,20.9614 -16.3,13.976 -24.46,32.871 -24.46,56.683 z M 2124.81,9.25 c 2.85,0 5.24,1.1641 7.18,3.4961 1.94,2.3242 2.91,5.043 2.91,8.1523 l 0,281.0786 c 0,3.109 -0.97,5.824 -2.91,8.152 -1.94,2.332 -4.33,3.496 -7.18,3.496 l -72.21,0 c -2.85,0 -5.24,-1.164 -7.19,-3.496 -1.93,-2.328 -2.91,-5.043 -2.91,-8.152 l 0,-281.0786 c 0,-3.1093 0.98,-5.8281 2.91,-8.1523 1.95,-2.332 4.34,-3.4961 7.19,-3.4961 l 72.21,0 z m 293.51,98.609 c 0,25.887 -8.68,47.11 -26.02,63.672 -15.53,15.532 -44.26,27.434 -86.19,35.719 -11.65,2.07 -21.74,4.332 -30.28,6.793 -8.54,2.457 -15.78,4.723 -21.74,6.793 -6.47,2.332 -9.7,5.566 -9.7,9.707 0,4.398 3.16,7.504 9.51,9.316 6.34,1.813 15.33,2.719 26.98,2.719 15.27,0 32.48,-2.719 51.64,-8.152 9.57,-2.848 18.76,-5.953 27.56,-9.317 8.8,-3.367 17.21,-6.992 25.23,-10.871 4.4,-2.332 8.42,-2.136 12.04,0.578 3.62,2.719 5.18,6.539 4.66,11.457 l -7.77,67.942 c -0.26,2.066 -1.23,4.14 -2.91,6.211 -1.68,2.066 -3.56,3.363 -5.63,3.883 -4.91,1.55 -11.06,3.101 -18.44,4.656 -7.38,1.555 -15.98,3.234 -25.81,5.047 -20.45,3.625 -39.74,5.437 -57.85,5.437 -41.42,0 -73.7,-8.41 -96.87,-25.234 -23.16,-16.824 -34.75,-41.543 -34.75,-74.156 0,-27.954 9.45,-49.692 28.35,-65.223 17.34,-14.492 48.4,-26.27 93.17,-35.328 23.82,-4.66 39.09,-9.059 45.82,-13.199 4.14,-2.848 6.21,-5.696 6.21,-8.5434 0,-5.4375 -3.56,-9.5742 -10.68,-12.4218 -7.12,-2.8477 -16.5,-4.2696 -28.15,-4.2696 -18.89,0 -39.99,3.8789 -63.28,11.6446 -22.52,8.0232 -40.12,15.1402 -52.8,21.3512 -4.4,2.075 -8.41,1.879 -12.03,-0.578 -3.63,-2.461 -5.18,-6.148 -4.66,-11.066 l 6.21,-73.7658 c 0.26,-2.3282 1.29,-4.5274 3.11,-6.5977 1.8,-2.0742 3.88,-3.3672 6.21,-3.8828 2.84,-0.5195 6.92,-1.3594 12.23,-2.5234 5.3,-1.1641 11.71,-2.3946 19.21,-3.6875 l 0,0.3867 c 2.08,-0.5196 4.08,-0.9063 6.02,-1.1641 1.94,-0.2617 4.21,-0.6484 6.79,-1.1641 11.13,-1.81246 22.33,-3.17183 33.59,-4.07808 11.26,-0.90625 22.58,-1.35938 33.97,-1.35938 21.22,0 40.31,2.26563 57.26,6.79296 16.95,4.5313 31.32,11.1289 43.1,19.8008 11.77,8.6719 20.83,19.4102 27.17,32.2266 6.34,12.8125 9.52,27.6289 9.52,44.4488"
         style="fill:#7cd07f;fill-opacity:0.94117647;fill-rule:nonzero;stroke:none"
         id="path16"
         inkscape:connector-curvature="0" /></g></g></svg>