<?xml version="1.0" encoding="UTF-8" standalone="no"?>
<svg
   xmlns:dc="http://purl.org/dc/elements/1.1/"
   xmlns:cc="http://creativecommons.org/ns#"
   xmlns:rdf="http://www.w3.org/1999/02/22-rdf-syntax-ns#"
   xmlns:svg="http://www.w3.org/2000/svg"
   xmlns="http://www.w3.org/2000/svg"
   viewBox="0 0 198 56.000004"
   height="56.000004"
   width="198"
   xml:space="preserve"
   version="1.1"
   id="svg2"><metadata
     id="metadata8"><rdf:RDF><cc:Work
         rdf:about=""><dc:format>image/svg+xml</dc:format><dc:type
           rdf:resource="http://purl.org/dc/dcmitype/StillImage" /><dc:title></dc:title></cc:Work></rdf:RDF></metadata><defs
     id="defs6"><linearGradient
       id="linearGradient62"
       spreadMethod="pad"
       gradientTransform="matrix(-1.3e-6,29.688,29.688,1.3e-6,21.0811,10.9668)"
       gradientUnits="userSpaceOnUse"
       y2="0"
       x2="1"
       y1="0"
       x1="0"><stop
         id="stop64"
         offset="0"
         style="stop-opacity:1;stop-color:#00adef" /><stop
         id="stop66"
         offset="0.00507614"
         style="stop-opacity:1;stop-color:#00adef" /><stop
         id="stop68"
         offset="1"
         style="stop-opacity:1;stop-color:#2e3192" /></linearGradient></defs><g
     transform="matrix(1.25,0,0,-1.25,-8.5,120.50077)"
     id="g10"><g
       style="fill:#ffffff"
       transform="matrix(1.0601301,0,0,1.0600415,6.8,51.599953)"
       id="g4318"><path
         style="fill:#ffffff;fill-opacity:1;fill-rule:nonzero;stroke:none"
         d="m 0,-0.00390625 0,52.82812525 186.76953,0 0,-52.82812525 -186.76953,0 z m 1.8574219,1.85742185 48.9882811,0 0,27.3710934 -14.894531,0.04492 -5.177734,-0.18164 -2.521485,0.320312 -12.373047,-0.0918 c 3.34725,2.474125 4.536641,4.169875 13.244141,8.203125 2.2925,1.05225 4.996125,1.190453 6.1875,1.283203 l -17.552735,-0.505859 -0.503906,-0.412109 -0.183594,-0.228516 -0.503906,0 0.04687,0.275391 -0.871093,0.0918 0,0.228515 -1.923829,-0.0918 -3.208984,0 -0.7792969,-9.759765 -0.3652343,3.34375 -0.044922,-8.523438 0,-1.328125 0.044922,0.04492 0.2734374,-6.783203 -0.3652343,-9.576172 -4.6738281,0 0.5039062,14.619141 -3.3457031,-0.04687 0,-18.2968754 z m 50.8203121,0 132.257816,0 0,49.1386724 -132.257816,0 0,-49.1386724 z M 1.8574219,20.654297 l 3.2519531,0 -0.042969,0.642578 -3.2089843,0.04687 0,-0.689453 z m 3.3457031,1.558594 -0.2304688,15.947265 -3.1152343,0 0,-15.71875 3.3457031,-0.228515 z m 45.642578,18.789062 0,9.990235 -48.9882811,0 0,-9.210938 48.9882811,-0.779297 z"
         id="path14"
         transform="matrix(0.8,0,0,-0.8,0,42.26)" /><path
         style="fill:#ffffff;fill-opacity:1;fill-rule:nonzero;stroke:none"
         d="m 79.412109,6.6425781 -2.423828,2.9453125 1.125,0 1.917969,-1.8789062 1.919922,1.8789062 1.144531,0 -2.423828,-2.9453125 -1.259766,0 z m -9.710937,3.7207029 c -4.865125,0 -7.541016,3.567469 -7.541016,6.980469 0,3.74025 2.460516,7.056641 7.306641,7.056641 1.745625,0 3.3535,-0.620563 4.265625,-1.242188 l -0.736328,-1.125 c -0.795,0.543 -1.959391,1.009766 -3.431641,1.009766 -2.96625,0 -5.332031,-2.30861 -5.332031,-5.740235 0,-3.17875 1.977656,-5.582031 5.332031,-5.582031 1.45275,0 2.909203,0.660094 3.548828,1.183594 l 0.775391,-1.164063 c -0.8925,-0.69825 -2.25,-1.376953 -4.1875,-1.376953 z m 90.386718,0 c -3.915,0 -6.7832,2.987235 -6.7832,6.78711 0,4.05175 2.59695,7.25 6.7832,7.25 4.1875,0 6.78516,-3.19825 6.78516,-7.25 0,-3.799875 -2.86891,-6.78711 -6.78516,-6.78711 z m 11.53516,0 c -2.11375,0 -3.87891,1.376969 -3.87891,3.199219 0,1.919 1.26047,2.7525 2.38672,3.625 1.10375,0.814 3.13867,1.9195 3.13867,3.625 0,1.51125 -1.02773,2.230469 -2.36523,2.230469 -1.28,0 -2.15227,-0.620594 -2.94727,-1.183594 l -0.83398,1.125 c 0.97,0.949625 2.52156,1.416016 3.82031,1.416016 2.1725,0 4.20703,-1.396953 4.20703,-3.548829 0,-1.743624 -1.08601,-2.984421 -2.94727,-4.341796 -1.745,-1.25975 -2.57812,-1.979016 -2.57812,-2.947266 0,-1.047375 0.75578,-1.841797 2.11328,-1.841797 0.8125,0 1.68695,0.485828 2.3457,0.970703 l 0.89063,-0.970703 c -0.75625,-0.8535 -1.93656,-1.357422 -3.35156,-1.357422 z m -92.056644,0.234375 -5.523437,13.56836 1.820312,0 1.455078,-3.992188 5.175782,0 1.394531,3.992188 2.171875,0 -5.058594,-13.56836 -1.435547,0 z m 7.308594,0 0,13.56836 1.550781,0 0,-11.048828 0.03906,0 c 0.5225,1.78325 3.334031,7.579703 5.019531,11.048828 l 0.755859,0 C 96.061484,20.696891 99.1455,14.707563 99.6875,13.117188 l 0.03906,0 0,11.048828 1.88086,0 0,-13.56836 -1.763672,0 c -1.899375,3.605875 -3.820359,7.229578 -5.740234,11.048828 -1.725125,-3.81925 -3.468266,-7.442953 -5.212891,-11.048828 l -2.015625,0 z m 20.33398,0 -5.52343,13.56836 1.82031,0 1.45508,-3.992188 5.17578,0 1.39453,3.992188 2.17187,0 -5.06054,-13.56836 -1.4336,0 z m 7.34571,0 0,13.56836 1.88086,0 0,-5.621094 1.99804,0 3.13868,5.855469 1.89843,-0.583985 -3.37109,-5.77539 c 1.29887,-0.8335 2.26758,-1.958579 2.26758,-3.955078 0,-2.345251 -1.7241,-3.488282 -3.9336,-3.488282 l -3.8789,0 z m 14.5957,0 -5.52344,13.56836 1.82227,0 1.45117,-3.992188 5.17773,0 1.39649,3.992188 2.17187,0 -5.06054,-13.56836 -1.43555,0 z m 11.82422,0 0,13.56836 4.0332,0 c 4.8075,0 7.67578,-2.694282 7.67578,-7.191407 0,-3.256875 -1.89898,-6.376953 -7.36523,-6.376953 l -4.34375,0 z m 19.11328,1.123047 c 3.355,0 4.71289,2.889563 4.71289,5.429688 0,2.65525 -1.20289,5.892578 -4.71289,5.892578 -3.5075,0 -4.70898,-3.237328 -4.70898,-5.892578 0,-2.540125 1.35648,-5.429688 4.70898,-5.429688 z m -43.65234,0.234375 1.60937,0 c 1.25988,0 2.30664,0.637313 2.30664,2.304688 0,1.143625 -0.44636,2.927734 -2.84961,2.927734 l -1.0664,0 0,-5.232422 z m 26.41992,0 2.5,0 c 3.5675,0 5.25391,1.956469 5.25391,4.980469 0,3.974125 -1.84016,5.873047 -5.66016,5.873047 l -2.09375,0 0,-10.853516 z m -62.863282,0.658203 0.03906,0 c 0.67875,2.442875 1.338828,4.32225 2.017578,6.203125 l -4.207031,0 c 0.735875,-1.880875 1.452141,-3.76025 2.150391,-6.203125 z m 27.642582,0 0.0391,0 c 0.67862,2.442875 1.33687,4.32225 2.01562,6.203125 l -4.20703,0 c 0.73738,-1.880875 1.4551,-3.76025 2.15235,-6.203125 z m 21.94335,0 0.0391,0 c 0.67875,2.442875 1.33687,4.32225 2.01562,6.203125 l -4.20703,0 c 0.7375,-1.880875 1.45485,-3.76025 2.15234,-6.203125 z m 28.78516,15.822266 c -3.8575,0 -6.68164,2.940844 -6.68164,6.683594 0,3.990625 2.55914,7.140625 6.68164,7.140625 4.12375,0 6.6836,-3.15 6.6836,-7.140625 0,-3.74275 -2.8261,-6.683594 -6.6836,-6.683594 z m 13.33008,0 c -2.0825,0 -3.82031,1.355391 -3.82031,3.150391 0,1.890624 1.24086,2.710937 2.34961,3.570312 1.0875,0.80175 3.09179,1.890062 3.09179,3.570312 0,1.48925 -1.01062,2.197266 -2.32812,2.197266 -1.26,0 -2.11985,-0.613266 -2.90235,-1.166016 l -0.82031,1.107422 c 0.95375,0.936525 2.48102,1.394532 3.75977,1.394532 2.1375,0 4.14453,-1.374079 4.14453,-3.494141 0,-1.717875 -1.06985,-2.940469 -2.90235,-4.277344 -1.71874,-1.24125 -2.53906,-1.948218 -2.53906,-2.902343 0,-1.030751 0.74508,-1.814454 2.08008,-1.814454 0.80375,0 1.6618,0.477579 2.31055,0.955078 l 0.87695,-0.955078 c -0.745,-0.839875 -1.90703,-1.335937 -3.30078,-1.335937 z m -108.609376,0.228515 0,13.367188 3.970704,0 c 4.733874,0 7.562499,-2.654359 7.5625,-7.083984 0,-3.208 -1.87261,-6.283204 -7.25586,-6.283204 l -4.277344,0 z m 15.275391,0 0,13.367188 7.408203,0 0,-1.337891 -5.55664,0 0,-5.039062 4.640624,0 0,-1.337891 -4.640624,0 0,-4.314453 4.734374,0 0,-1.337891 -6.585937,0 z m 10.789063,0 0,13.367188 1.851562,0 0,-12.029297 1.277344,0 c 1.98575,0 2.808594,1.069813 2.808594,2.539063 0,1.98625 -1.127,2.939906 -2.921876,3.035156 l -0.611328,0.01953 0,1.222656 0.589844,0 c 2.999625,0 4.927734,-2.044875 4.927734,-4.296875 0,-2.596625 -1.735374,-3.857422 -4.5625,-3.857422 l -3.359374,0 z m 10.978512,0 0,8.173829 c 0,3.4375 1.50633,5.421875 5.26758,5.421875 3.2275,0 5.08203,-2.138719 5.08203,-5.136719 l 0,-8.458985 -1.73828,0 0,8.421876 c 0,1.909125 -0.84125,3.894531 -3.34375,3.894531 -2.38525,0 -3.41797,-1.452078 -3.41797,-4.220703 l 0,-8.095704 -1.84961,0 z m 12.6211,0 0,1.337891 4.27539,0 0,12.029297 1.85351,0 0,-12.029297 4.29688,0 0,-1.337891 -10.42578,0 z m 15.5039,0 -5.4414,13.367188 1.79492,0 1.43164,-3.933594 5.09766,0 1.375,3.933594 2.13867,0 -4.98438,-13.367188 -1.41211,0 z m 8.99414,0 0,13.367188 3.97266,0 c 4.73375,0 7.56055,-2.654359 7.56055,-7.083984 0,-3.208 -1.87336,-6.283204 -7.25586,-6.283204 l -4.27735,0 z m 21.11719,1.107422 c 3.30375,0 4.64063,2.846657 4.64063,5.347657 0,2.616125 -1.18438,5.804687 -4.64063,5.804687 -3.45625,0 -4.63867,-3.188562 -4.63867,-5.804687 0,-2.501 1.33617,-5.347657 4.63867,-5.347657 z m -93.427733,0.230469 2.462891,0 c 3.513624,0 5.175781,1.92775 5.175781,4.90625 0,3.913125 -1.814047,5.785156 -5.576172,5.785156 l -2.0625,0 0,-10.691406 z m 74.162113,0 2.46484,0 c 3.51375,0 5.17383,1.92775 5.17383,4.90625 0,3.913125 -1.81367,5.785156 -5.57617,5.785156 l -2.0625,0 0,-10.691406 z m -10.42578,0.648438 0.0391,0 c 0.66875,2.40625 1.31562,4.257875 1.98437,6.109375 l -4.14258,0 c 0.725,-1.8515 1.4329,-3.703125 2.11915,-6.109375 z"
         transform="matrix(0.8,0,0,-0.8,0,42.26)"
         id="path18" /></g></g></svg>