<svg style="image-rendering:optimizeQuality;text-rendering:geometricPrecision;shape-rendering:geometricPrecision" xmlns="http://www.w3.org/2000/svg" fill-rule="evenodd" height="65" width="65" version="1.1" clip-rule="evenodd" viewBox="0 0 0.92562895 0.925539">
<defs>
<style type="text/css"><![CDATA[
    .fil0 {fill:#3C325F}
    .fil1 {fill:#B0DCF7}
   ]]></style>
</defs>
<g transform="matrix(1.01 0 0 1.01 .06999 .004562)">
<path d="m0.2832 0.1284h0.214c0.001706 0 0.003417 0.00002152 0.005112 0.00006457l0.0002421 0.00000538 0.0002529 0.00001076c0.001534 0.00003767 0.003067 0.0001022 0.004595 0.0001722l0.0004843 0.00002152 0.0003282 0.00001614c0.005133 0.0002744 0.01022 0.0007318 0.01525 0.001367l0.0002045 0.0000269 0.0004681 0.00006457c0.001383 0.0001776 0.00276 0.000382 0.004143 0.0005865l0.001205 0.0001883c0.001404 0.0002206 0.002798 0.000452 0.004197 0.0006995l0.0003013 0.00005381h0.00001614l0.0004036 0.00007533c0.001275 0.0002314 0.00254 0.0004789 0.00381 0.0007372l0.001867 0.000382 0.003293 0.000721 0.001469 0.0003444 0.003756 0.0009255 0.001076 0.0002798 0.003395 0.0009201 0.002066 0.0005865 0.002298 0.0006834 0.003013 0.0009416 0.0005811 0.0001883 0.001544 0.0005058 0.0002852 0.00009685 0.002604 0.0008932 0.0001883 0.00006457 0.001528 0.0005381 0.00004305 0.00001614 0.002787 0.001022 0.0002206 0.00008609 0.001512 0.0005757 0.0004305 0.0001668 0.002405 0.0009524 0.0001722 0.00006995 0.001501 0.0006134 0.0002475 0.0001076c0.002405 0.0009954 0.004789 0.002029 0.007151 0.003115l0.001464 0.000678c0.00141 0.0006618 0.002814 0.001334 0.004208 0.002034l0.0003767 0.0001883c0.001324 0.0006618 0.002637 0.001329 0.003939 0.002018l0.0001184 0.00005919 0.001421 0.0007533c0.06571 0.03522 0.1107 0.1046 0.1107 0.184v0.2332c0 0.001792-0.00002152 0.003584-0.00006457 0.005365-0.00004843 0.001781-0.000113 0.003557-0.0002045 0.005332-0.00009147 0.00177-0.0002098 0.00353-0.0003444 0.005289-0.0001345 0.00176-0.0002906 0.003508-0.0004681 0.005252-0.0001829 0.001749-0.0003767 0.003487-0.0006026 0.005219-0.0002206 0.001733-0.0004627 0.00346-0.0007318 0.005176-0.0002637 0.001722-0.0005488 0.003428-0.0008555 0.005133-0.0003067 0.001706-0.0006349 0.003401-0.0009847 0.00509-0.0003497 0.00169-0.0007156 0.003374-0.001108 0.005047-0.0003874 0.001673-0.0008071 0.003341-0.001232 0.004999-0.0004305 0.001657-0.0008824 0.003309-0.001351 0.00495-0.0004735 0.001641-0.0009685 0.003277-0.001474 0.004902-0.0005112 0.001625-0.001038 0.003245-0.001587 0.004848-0.0005488 0.001609-0.001114 0.003207-0.001706 0.004794-0.0005865 0.001593-0.001195 0.003175-0.001819 0.004746-0.0006242 0.001571-0.00127 0.003126-0.001932 0.004681-0.0006565 0.00155-0.00134 0.003099-0.002039 0.004627-0.0006995 0.001534-0.001421 0.003056-0.002152 0.004568-0.0007372 0.001517-0.00149 0.003013-0.00226 0.004509-0.0007694 0.001496-0.00156 0.002965-0.002362 0.004439-0.0008017 0.001469-0.00163 0.002933-0.00247 0.00438-0.0008394 0.001447-0.0017 0.002889-0.002567 0.004321-0.0008771 0.001426-0.001765 0.002841-0.002674 0.004245-0.000904 0.001399-0.001835 0.002793-0.002771 0.004175-0.0009416 0.001377-0.001894 0.00275-0.002868 0.004106-0.0009685 0.001356-0.001964 0.002701-0.002965 0.004036-0.001001 0.001334-0.002023 0.002663-0.003056 0.003966-0.001033 0.001313-0.002082 0.002599-0.003148 0.003885-0.001065 0.001286-0.002147 0.002556-0.003239 0.00381h-0.00000538c-0.001098 0.001254-0.002206 0.002502-0.003325 0.003734-0.001125 0.001238-0.00226 0.002443-0.003417 0.003648-0.001151 0.001205-0.002324 0.002394-0.003508 0.003573-0.001178 0.001178-0.002378 0.002341-0.003584 0.003487-0.001216 0.001151-0.002437 0.002287-0.00367 0.003406h-0.00000538c-0.001232 0.001119-0.002486 0.002222-0.003745 0.003315h-0.00000538c-0.001264 0.001087-0.002534 0.002168-0.003826 0.003234-0.001291 0.001065-0.002594 0.002104-0.003906 0.003137h-0.00000538c-0.001313 0.001028-0.002637 0.00205-0.003976 0.003046-0.00134 0.001006-0.00269 0.001986-0.004057 0.002959-0.001367 0.0009685-0.002744 0.001921-0.004132 0.002857-0.001383 0.0009363-0.002787 0.001867-0.004192 0.002771h-0.00000538c-0.001415 0.000904-0.002836 0.001803-0.004267 0.002669-0.001431 0.0008771-0.002884 0.001733-0.004337 0.002572-0.001458 0.000834-0.002916 0.001663-0.004396 0.00247h-0.00000539c-0.00148 0.0008017-0.002965 0.001593-0.004461 0.002368-0.001501 0.0007748-0.003008 0.001523-0.004531 0.00226-0.001517 0.0007372-0.003051 0.001458-0.00459 0.002163-0.001539 0.0006995-0.003083 0.001383-0.004644 0.00205h-0.00000539c-0.001555 0.0006618-0.003126 0.001313-0.004703 0.001942-0.001582 0.0006295-0.003158 0.001243-0.004757 0.001835h-0.00000538c-0.001598 0.0005973-0.003196 0.001173-0.00481 0.001727h-0.00000538c-0.001609 0.0005542-0.003234 0.001087-0.004859 0.001603h-0.00000538c-0.001625 0.0005166-0.003266 0.001022-0.004913 0.001496h-0.00000538c-0.001647 0.0004789-0.003298 0.0009416-0.004961 0.001383-0.001663 0.0004412-0.003336 0.0008609-0.005015 0.001259-0.001679 0.0003982-0.003363 0.0007856-0.005053 0.001146h-0.00000538c-0.001695 0.0003551-0.003401 0.0006995-0.005101 0.001017-0.001711 0.0003175-0.003417 0.0006242-0.005144 0.0008986h-0.00000538c-0.001716 0.0002798-0.003449 0.0005381-0.005182 0.0007748h-0.00000538c-0.001733 0.0002368-0.003471 0.000452-0.005219 0.0006511h-0.00000538c-0.001743 0.0001937-0.003497 0.0003713-0.005252 0.0005219h-0.00000539c-0.00176 0.0001507-0.003524 0.0002798-0.005295 0.0003874h-0.00000538c-0.00177 0.0001076-0.003546 0.0001991-0.005327 0.0002637h-0.00000538c-0.001781 0.00006995-0.003562 0.0001022-0.005354 0.0001291h-0.00000538l-0.2229 0.002637h-0.00000538l-0.1475 0.09418c-0.0563 0.03595-0.05477 0.02889-0.05453-0.02581l0.0006995-0.162c-0.0007856-0.004708-0.0008986-0.01227-0.0008555-0.02301l0.002362-0.3285c0.0004143-0.09683 0.06698-0.1788 0.1567-0.202 0.001652-0.0004305 0.003315-0.0008448 0.004988-0.001232h0.00001614c0.001673-0.0003928 0.003352-0.0007641 0.005042-0.001114h0.00000538c0.00169-0.0003444 0.00339-0.0006726 0.00509-0.0009793h0.00000538c0.001706-0.0003067 0.003417-0.0005973 0.005133-0.0008609h0.00001076c0.001716-0.0002637 0.003444-0.0005058 0.005171-0.0007318h0.00000538c0.001738-0.0002206 0.003476-0.0004251 0.005219-0.0005973 0.001743-0.0001776 0.003497-0.000339 0.005262-0.0004735 0.00176-0.0001345 0.003524-0.0002475 0.005295-0.000339 0.00177-0.00008609 0.003551-0.0001614 0.005327-0.0002045 0.001781-0.00004843 0.003573-0.00006995 0.005365-0.00006995z" fill="#3c325f" class="fil0"/>
<path d="m0.3775 0.4649-0.02165-0.02117c-0.0007694-0.03468-0.07238-0.1216-0.09244-0.1363-0.003029 0.002222-0.01182 0.03641-0.03112 0.02191-0.004488-0.003379-0.02463 0.0175-0.02463 0.02205 0.02265 0.05567 0.05679 0.1047 0.0816 0.1508 0.003417 0.00636-0.00551-0.0008771-0.01096-0.003336l0.02022 0.02791 0.007678 0.01333 0.00841 0.004428 0.05231 0.08476-0.002513-0.02582 0.01739 0.007043 0.001996-0.01984 0.06607-0.04811 0.01151-0.03799-0.0002798 0.0241 0.02698-0.05277-0.01629 0.03897c0.00282-0.006973 0.02666-0.04175 0.03466-0.05076l0.1317-0.1483c0.02161-0.02016 0.05562-0.06499 0.08031-0.0894 0.01636-0.01618-0.04322 0.02981-0.03421 0.01698 0.004089-0.005833 0.05248-0.04957 0.05752-0.05118-0.01156-0.04679 0.01648-0.0192 0.01648-0.05319v-0.02969h0.01782l-0.0001291 0.01155 0.01867-0.005844-0.006667-0.02352h0.01188l0.0007103-0.01867 0.01216 0.01015 0.03464-0.06867c-0.01276 0.006747-0.0699-0.02392-0.08711-0.007415-0.07191 0.06893-0.3242 0.379-0.3827 0.4579z" fill="#b0dcf7" class="fil1"/>
</g>
</svg>
