<?xml version="1.0" encoding="UTF-8" standalone="no"?>
<svg
   xmlns:ns3="http://ns.adobe.com/AdobeIllustrator/10.0/"
   xmlns:dc="http://purl.org/dc/elements/1.1/"
   xmlns:cc="http://creativecommons.org/ns#"
   xmlns:rdf="http://www.w3.org/1999/02/22-rdf-syntax-ns#"
   xmlns:svg="http://www.w3.org/2000/svg"
   xmlns="http://www.w3.org/2000/svg"
   version="1.1"
   id="svg2"
   viewBox="0 0 172.37973 65.71036"
   height="18.544924mm"
   width="48.649391mm">
  <defs
     id="defs4" />
  <metadata
     id="metadata7">
    <rdf:RDF>
      <cc:Work
         rdf:about="">
        <dc:format>image/svg+xml</dc:format>
        <dc:type
           rdf:resource="http://purl.org/dc/dcmitype/StillImage" />
        <dc:title></dc:title>
      </cc:Work>
    </rdf:RDF>
  </metadata>
  <g
     transform="translate(183.33272,229.06441)"
     id="layer1">
    <g
       id="g4380"
       transform="translate(366.92508,-163.79677)"
       style="fill:#ffffff">
      <g
         style="font-style:normal;font-variant:normal;font-weight:bold;font-stretch:normal;font-size:20.86999512px;line-height:125%;font-family:sans-serif;-inkscape-font-specification:'sans-serif Bold';letter-spacing:-1px;word-spacing:0px;fill:#ffffff;fill-opacity:1;stroke:none;stroke-width:1px;stroke-linecap:butt;stroke-linejoin:miter;stroke-opacity:1"
         id="text4212">
        <path
           style="fill:#ffffff"
           d="m -456.95941,-8.9718798 q 0.92733,0 1.40628,-0.4076171 0.47895,-0.4076171 0.47895,-1.2024701 0,-0.784663 -0.47895,-1.19228 -0.47895,-0.417808 -1.40628,-0.417808 l -2.17056,0 0,3.2201752 2.17056,0 z m 0.13248,6.654349 q 1.18209,0 1.77313,-0.4993309 0.60124,-0.499331 0.60124,-1.5081833 0,-0.9884714 -0.59105,-1.4776119 -0.59104,-0.499331 -1.78332,-0.499331 l -2.30304,0 0,3.9844571 2.30304,0 z m 3.64817,-5.4722595 q 1.26361,0.3668554 1.95656,1.3553269 0.69295,0.9884714 0.69295,2.4253217 0,2.2011323 -1.4878,3.28131755 -1.4878,1.08018529 -4.52455,1.08018529 l -6.51169,0 0,-15.21430814 5.89007,0 q 3.16922,0 4.58569,0.9579 1.42666,0.957901 1.42666,3.067319 0,1.1107565 -0.51971,1.8954194 -0.51971,0.7744725 -1.50818,1.1515183 z"
           id="path4210" />
        <path
           style="fill:#ffffff"
           d="m -451.41716,-14.861947 4.29017,0 3.46475,5.4213075 3.46475,-5.4213075 4.30036,0 -5.79836,8.8045294 0,6.40977874 -3.92331,0 0,-6.40977874 -5.79836,-8.8045294 z"
           id="path4212" />
      </g>
      <g
         style="font-style:normal;font-variant:normal;font-weight:bold;font-stretch:normal;font-size:20.86999512px;line-height:125%;font-family:sans-serif;-inkscape-font-specification:'sans-serif Bold';letter-spacing:-1px;word-spacing:0px;fill:#ffffff;fill-opacity:1;stroke:none;stroke-width:1px;stroke-linecap:butt;stroke-linejoin:miter;stroke-opacity:1"
         id="text4212-6">
        <path
           style="fill:#ffffff"
           d="m -403.66892,-14.678544 0,3.220175 q -1.25343,-0.560474 -2.44571,-0.845806 -1.19228,-0.285332 -2.25208,-0.285332 -1.40628,0 -2.07885,0.387237 -0.67256,0.387236 -0.67256,1.20247 0,0.611426 0.44837,0.9579 0.45857,0.3362843 1.65085,0.5808546 l 1.67123,0.3362841 q 2.53742,0.5095213 3.60741,1.5489449 1.07,1.0394236 1.07,2.9552239 0,2.5170356 -1.49799,3.75007727 -1.48781,1.22285128 -4.55512,1.22285128 -1.44705,0 -2.90428,-0.27514154 -1.45723,-0.27514154 -2.91446,-0.81523418 l 0,-3.31188883 q 1.45723,0.7744724 2.81256,1.1718991 1.36552,0.3872362 2.62913,0.3872362 1.28399,0 1.96675,-0.4279979 0.68276,-0.427998 0.68276,-1.2228513 0,-0.7133299 -0.46876,-1.1005661 -0.45857,-0.3872363 -1.84447,-0.6929491 l -1.51837,-0.3362841 q -2.28266,-0.4891405 -3.34246,-1.5591354 -1.04961,-1.0699948 -1.04961,-2.8838909 0,-2.272465 1.46742,-3.495317 1.46742,-1.222851 4.21883,-1.222851 1.25343,0 2.57818,0.193618 1.32476,0.183428 2.74123,0.560474 z"
           id="path4205" />
        <path
           style="fill:#ffffff"
           d="m -390.98318,-2.7149826 -6.13464,0 -0.96809,2.77179626 -3.94369,0 5.6353,-15.21430766 4.67741,0 5.63531,15.21430766 -3.9437,0 -0.9579,-2.77179626 z m -5.15635,-2.8227483 4.16788,0 -2.07885,-6.0531141 -2.08903,6.0531141 z"
           id="path4207" />
      </g>
      <path
         id="path6442"
         d="m -449.51529,-65.267642 c 6.31969,0 11.65078,2.16914 15.99047,6.508829 4.365,4.366405 6.54961,9.696796 6.54961,15.991171 0,6.321797 -2.14383,11.584688 -6.43008,15.789375 -4.55343,4.473984 -9.9232,6.710625 -16.11,6.710625 -6.08132,0 -11.35757,-2.210625 -15.83015,-6.630468 -4.41914,-4.419844 -6.62977,-9.708751 -6.62977,-15.869532 0,-6.160078 2.21063,-11.490469 6.62977,-15.990469 4.33969,-4.340391 9.61523,-6.509531 15.83015,-6.509531 z m 0.0802,4.058438 c -5.11594,0 -9.44156,1.795077 -12.97758,5.383828 -3.67031,3.750468 -5.50477,8.103516 -5.50477,13.058438 0,4.982343 1.8211,9.295312 5.46329,12.936092 3.64289,3.643594 7.98187,5.463986 13.01765,5.463986 5.00836,0 9.37547,-1.833048 13.09852,-5.504063 3.53601,-3.401719 5.30367,-7.700625 5.30367,-12.897422 0,-5.115937 -1.79508,-9.467578 -5.38313,-13.057734 -3.58875,-3.58875 -7.92843,-5.383125 -13.01765,-5.383125 z m 6.02718,12.856641 0,9.20039 -2.57062,0 0,10.927969 -6.99187,0 0,-10.927266 -2.57063,0 0,-9.201093 c 0,-0.402188 0.14063,-0.743204 0.42117,-1.024454 0.28196,-0.280547 0.62367,-0.421875 1.02446,-0.421875 l 9.24187,0 c 0.37477,0 0.71016,0.140625 1.00406,0.421875 0.29321,0.28125 0.44156,0.622969 0.44156,1.024454 z m -9.20179,-5.785313 c 0,-2.115 1.04414,-3.173906 3.13453,-3.173906 2.09039,0 3.13383,1.057499 3.13383,3.173906 0,2.088984 -1.04485,3.133828 -3.13383,3.133828 -2.08898,0 -3.13453,-1.044844 -3.13453,-3.133828 z"
         style="fill:#ffffff" />
      <g
         style="fill:#ffffff"
         transform="matrix(0.703125,0,0,0.703125,-426.74526,-62.806704)"
         id="g6459">
        <path
           style="fill:#ffffff"
           d="m 37.443,-3.5 c 8.951,0 16.531,3.105 22.742,9.315 6.208,6.172 9.315,13.733 9.315,22.685 0,8.954 -3.049,16.457 -9.145,22.514 C 53.918,57.338 46.279,60.5 37.443,60.5 28.794,60.5 21.29,57.357 14.929,51.071 8.644,44.786 5.5,37.264 5.5,28.501 5.5,19.778 8.644,12.216 14.929,5.816 21.138,-0.395 28.643,-3.5 37.443,-3.5 Z m 0.114,5.772 c -7.276,0 -13.428,2.572 -18.457,7.715 -5.22,5.296 -7.829,11.467 -7.829,18.513 0,7.125 2.59,13.257 7.77,18.4 5.181,5.182 11.352,7.771 18.514,7.771 7.123,0 13.334,-2.609 18.629,-7.828 5.029,-4.876 7.543,-10.99 7.543,-18.343 0,-7.313 -2.553,-13.485 -7.656,-18.513 C 51.004,4.842 44.832,2.272 37.557,2.272 Z M 23.271,23.985 c 0.609,-3.924 2.189,-6.962 4.742,-9.114 2.552,-2.152 5.656,-3.228 9.314,-3.228 5.027,0 9.029,1.62 12,4.856 2.971,3.238 4.457,7.391 4.457,12.457 0,4.915 -1.543,9 -4.627,12.256 -3.088,3.256 -7.086,4.886 -12.002,4.886 -3.619,0 -6.743,-1.085 -9.371,-3.257 -2.629,-2.172 -4.209,-5.257 -4.743,-9.257 l 8.059,0 c 0.19,3.886 2.533,5.829 7.029,5.829 2.246,0 4.057,-0.972 5.428,-2.914 1.373,-1.942 2.059,-4.534 2.059,-7.771 0,-3.391 -0.629,-5.971 -1.885,-7.743 -1.258,-1.771 -3.066,-2.657 -5.43,-2.657 -4.268,0 -6.667,1.885 -7.2,5.656 l 2.343,0 -6.342,6.343 -6.343,-6.343 2.512,10e-4 0,0 z"
           id="path6461" />
      </g>
      <g
         transform="translate(-58.927592,-127.00119)"
         id="g4306"
         style="fill:#ffffff">
        <path
           ns3:knockout="Off"
           d="m -458.87488,62.35353 c -8.91644,0 -16.76273,3.299758 -22.82616,9.451502 -6.24109,6.331469 -9.62917,14.534136 -9.62917,23.0942 0,8.648388 3.29873,16.673378 9.54085,22.915498 6.24109,6.2411 14.35544,9.62918 22.91448,9.62918 8.55903,0 16.85208,-3.38808 23.27187,-9.71852 6.06342,-5.97408 9.2728,-13.90972 9.2728,-22.826158 0,-8.827084 -3.20938,-16.85208 -9.36215,-23.004851 -6.24109,-6.241093 -14.26609,-9.540851 -23.18252,-9.540851 z m 0.0894,5.88575 c 7.31123,0 13.82037,2.763663 18.903,7.846297 4.99226,4.993285 7.6676,11.591775 7.6676,18.813655 0,7.311228 -2.58599,13.731018 -7.57928,18.635988 -5.26133,5.17095 -12.03749,7.93564 -18.99235,7.93564 -7.04421,0 -13.6427,-2.76366 -18.72431,-7.84629 -5.08263,-5.08367 -7.93564,-11.77048 -7.93564,-18.725338 0,-7.044208 2.85301,-13.73102 7.93564,-18.903004 4.99329,-5.081607 11.41411,-7.756948 18.72534,-7.756948 z"
           id="path47"
           style="clip-rule:evenodd;fill:#ffffff;fill-rule:evenodd" />
        <path
           ns3:knockout="Off"
           d="m -459.20558,89.491038 c -1.83833,-3.352135 -4.9748,-4.686211 -8.61552,-4.686211 -5.29933,0 -9.51723,3.748558 -9.51723,10.094405 0,6.452658 3.96526,10.094408 9.69798,10.094408 3.6777,0 6.81314,-2.01909 8.54363,-5.082636 l -4.03817,-2.055032 c -0.90171,2.162868 -2.2707,2.811928 -4.0012,2.811928 -2.99268,0 -4.36168,-2.487395 -4.36168,-5.767641 0,-3.280245 1.15332,-5.768671 4.36168,-5.768671 0.86474,0 2.59523,0.46934 3.60478,2.631179 l 4.32573,-2.271729 z"
           id="path49"
           style="clip-rule:evenodd;fill:#ffffff;fill-rule:evenodd" />
        <path
           ns3:knockout="Off"
           d="m -440.42992,89.491038 c -1.83936,-3.352135 -4.9748,-4.686211 -8.61552,-4.686211 -5.29934,0 -9.51826,3.748558 -9.51826,10.094405 0,6.452658 3.96628,10.094408 9.69798,10.094408 3.6777,0 6.81313,-2.01909 8.54363,-5.082636 l -4.03817,-2.055032 c -0.90068,2.162868 -2.2707,2.811928 -4.0012,2.811928 -2.99166,0 -4.36271,-2.487395 -4.36271,-5.767641 0,-3.280245 1.15435,-5.768671 4.36271,-5.768671 0.86474,0 2.59523,0.46934 3.6058,2.631179 l 4.32574,-2.271729 z"
           id="path51"
           style="clip-rule:evenodd;fill:#ffffff;fill-rule:evenodd" />
      </g>
    </g>
  </g>
</svg>
