<?xml version="1.0" encoding="UTF-8" standalone="no"?>
<!-- Creator: CorelDRAW -->

<svg
   xmlns:dc="http://purl.org/dc/elements/1.1/"
   xmlns:cc="http://creativecommons.org/ns#"
   xmlns:rdf="http://www.w3.org/1999/02/22-rdf-syntax-ns#"
   xmlns:svg="http://www.w3.org/2000/svg"
   xmlns="http://www.w3.org/2000/svg"
   xmlns:sodipodi="http://sodipodi.sourceforge.net/DTD/sodipodi-0.dtd"
   xmlns:inkscape="http://www.inkscape.org/namespaces/inkscape"
   xml:space="preserve"
   width="94.544441mm"
   height="93.133331mm"
   style="clip-rule:evenodd;fill-rule:evenodd;image-rendering:optimizeQuality;shape-rendering:geometricPrecision;text-rendering:geometricPrecision"
   viewBox="0 0 26.662996 26.265015"
   id="svg2"
   version="1.1"
   inkscape:version="0.91 r13725"
   sodipodi:docname="logo-expressao-imagem.svg"><metadata
     id="metadata36"><rdf:RDF><cc:Work
         rdf:about=""><dc:format>image/svg+xml</dc:format><dc:type
           rdf:resource="http://purl.org/dc/dcmitype/StillImage" /><dc:title></dc:title></cc:Work></rdf:RDF></metadata><sodipodi:namedview
     pagecolor="#ffffff"
     bordercolor="#666666"
     borderopacity="1"
     objecttolerance="10"
     gridtolerance="10"
     guidetolerance="10"
     inkscape:pageopacity="0"
     inkscape:pageshadow="2"
     inkscape:window-width="1865"
     inkscape:window-height="1053"
     id="namedview34"
     showgrid="false"
     fit-margin-top="0"
     fit-margin-left="0"
     fit-margin-right="0"
     fit-margin-bottom="0"
     inkscape:zoom="0.71033125"
     inkscape:cx="-85.836974"
     inkscape:cy="14.947827"
     inkscape:window-x="1975"
     inkscape:window-y="27"
     inkscape:window-maximized="1"
     inkscape:current-layer="g4200" /><defs
     id="defs4"><style
       type="text/css"
       id="style6"><![CDATA[
    .fil3 {fill:#204695}
    .fil2 {fill:#5DCBEE}
    .fil5 {fill:#706BA5}
    .fil4 {fill:#82C76E}
    .fil7 {fill:#EF4C5D}
    .fil1 {fill:#F58557}
    .fil6 {fill:#FCDA06}
    .fil8 {fill:#72706F;fill-rule:nonzero}
    .fil0 {fill:#C2C1C1;fill-rule:nonzero}
   ]]></style></defs><g
     id="g4200"
     transform="matrix(2.4927613,0,0,2.4881479,-12.391263,-0.05814547)"><g
       transform="matrix(0.73893857,0,0,0.74281074,4.9709814,0.02336507)"
       id="g4187"><polygon
         style="fill:#d9d8dd;fill-opacity:1;fill-rule:nonzero"
         id="polygon10"
         points="6.64725,8.04091 6.50111,7.63131 12.2934,5.55867 12.4395,5.96827 "
         class="fil0" /><polygon
         style="fill:#d9d8dd;fill-opacity:1;fill-rule:nonzero"
         id="polygon12"
         points="6.35832,7.81231 6.79003,7.85991 6.27298,12.4302 5.84127,12.3826 "
         class="fil0" /><polygon
         style="fill:#d9d8dd;fill-opacity:1;fill-rule:nonzero"
         id="polygon14"
         points="6.75517,7.71628 6.39318,7.95594 2.90146,2.71369 3.26346,2.47404 "
         class="fil0" /><path
         style="fill:#d9d8dd;fill-opacity:1;fill-rule:nonzero"
         inkscape:connector-curvature="0"
         id="path16"
         d="m 8.88552,1.24025 2.06303,2.063 2.06308,2.06303 0.08861,0.088609 -0.03252,0.121295 -0.755153,2.81818 -0.755125,2.81818 -0.03249,0.121323 -0.121323,0.03249 -2.8181803,0.755096 -2.81812,0.755125 -0.121295,0.03252 -0.088609,-0.08861 -2.06303,-2.06303 -2.06308,-2.0630007 -0.088581,-0.088581 0.032488,-0.121323 0.755153,-2.81821 0.755125,-2.81818 0.032516,-0.121295 0.121295,-0.032516 2.81818,-0.755096 2.81812,-0.755096 0.121323,-0.032488 0.088581,0.088581 z M 10.64093,3.61087 8.66651,1.63648 5.96968,2.35906 3.27279,3.08164 2.550182,5.77853 1.827546,8.47542 l 1.97448,1.97442 1.97442,1.97442 2.69683,-0.722608 2.69689,-0.72258 0.722608,-2.69689 0.722636,-2.69689 -1.97448,-1.97442 z"
         class="fil0" /><path
         style="fill:#ed8e4c;fill-opacity:1"
         inkscape:connector-curvature="0"
         id="path18"
         d="m 1.71807,1.73868 2.68606,0 c 0.248427,0 0.45162,0.203249 0.45162,0.45162 l 0,1.90166 c 0,0.812064 -0.68338,1.03463 -1.15285,1.03463 l 0,-0.583011 -1.98483,0 c -0.248399,0 -0.451648,-0.203192 -0.451648,-0.45162 l 0,-1.90166 c 0,-0.248427 0.203192,-0.45162 0.451648,-0.45162 z"
         class="fil1" /><path
         style="fill:#83cbe4;fill-opacity:1"
         inkscape:connector-curvature="0"
         id="path20"
         d="m 7.04311,0 3.1943,0 c 0.255111,0 0.46369,0.208579 0.46369,0.46369 l 0,1.98356 c 0,0.255111 -0.208579,0.46369 -0.46369,0.46369 l -1.44623,0 -1.05657,0.816942 0,-0.816942 -0.691502,0 c -0.255111,0 -0.46369,-0.208579 -0.46369,-0.46369 l 0,-1.98356 C 6.579418,0.208579 6.787997,0 7.043108,0 Z"
         class="fil2" /><path
         style="fill:#005ca7;fill-opacity:1"
         inkscape:connector-curvature="0"
         id="path22"
         d="m 2.65788,7.03208 c 0.815391,0.507261 1.06531,1.57996 0.558024,2.39538 -0.477706,0.7679 -2.00578,1.2779 -2.77813,1.45779 l 0.513832,-0.825911 c -0.0443046,-0.02256 -0.0880734,-0.0471 -0.131081,-0.07386 -0.81542,-0.507261 -1.06531,-1.57996 -0.558052,-2.39538 0.507289,-0.81542 1.57999,-1.06531 2.39541,-0.558024 z"
         class="fil3" /><path
         style="fill:#a7c764;fill-opacity:1"
         inkscape:connector-curvature="0"
         id="path24"
         d="m 4.85907,10.5697 2.24386,0 c 0.219803,0 0.399588,0.179926 0.399588,0.399588 l 0,2.45903 c 0,0.219662 -0.179898,0.399588 -0.399588,0.399588 l -1.99904,0 -0.644405,0.383062 0,-3.24168 c 0,-0.219775 0.179813,-0.399588 0.399588,-0.399588 z"
         class="fil4" /><path
         style="fill:#7a81b5;fill-opacity:1"
         inkscape:connector-curvature="0"
         id="path26"
         d="m 12.7852,9.43407 -3.07857,0 c -0.301559,0 -0.548238,0.246933 -0.548238,0.548238 l 0,1.8606 c 0,0.301334 0.246905,0.548238 0.548238,0.548238 l 2.74269,0 0.884119,0.525592 0,-2.93443 c 0,-0.301559 -0.246679,-0.548238 -0.548238,-0.548238 z"
         class="fil5" /><path
         style="fill:#fcdb00;fill-opacity:1"
         inkscape:connector-curvature="0"
         id="path28"
         d="m 13.9842,4.20888 -2.75569,0 c -0.269917,0 -0.490735,0.221016 -0.490735,0.490735 l 0,1.66544 c 0,0.26972 0.221016,0.490735 0.490735,0.490735 l 2.45503,0 0.791392,0.470458 0,-2.62664 c 0,-0.269917 -0.220818,-0.490735 -0.490735,-0.490735 z"
         class="fil6" /><path
         style="fill:#e14c4e;fill-opacity:1"
         inkscape:connector-curvature="0"
         id="path30"
         d="m 4.96359,5.98459 3.1236,0 c 0.249471,0 0.453453,0.203954 0.453453,0.453425 l 0,1.93967 c 0,0.249471 -0.203982,0.453425 -0.453453,0.453425 l -1.41422,0 -1.03319,0.798893 0,-0.798893 -0.676189,0 c -0.249471,0 -0.453425,-0.203954 -0.453425,-0.453425 l 0,-1.93967 c 0,-0.249471 0.203954,-0.453425 0.453425,-0.453425 z"
         class="fil7" /></g></g></svg>