<?xml version="1.0" encoding="UTF-8" standalone="no"?>
<svg
   xmlns:dc="http://purl.org/dc/elements/1.1/"
   xmlns:cc="http://creativecommons.org/ns#"
   xmlns:rdf="http://www.w3.org/1999/02/22-rdf-syntax-ns#"
   xmlns:svg="http://www.w3.org/2000/svg"
   xmlns="http://www.w3.org/2000/svg"
   viewBox="0 0 301.23688 39.357395"
   height="39.357395"
   width="301.23688"
   xml:space="preserve"
   version="1.1"
   id="svg2"><metadata
     id="metadata8"><rdf:RDF><cc:Work
         rdf:about=""><dc:format>image/svg+xml</dc:format><dc:type
           rdf:resource="http://purl.org/dc/dcmitype/StillImage" /><dc:title></dc:title></cc:Work></rdf:RDF></metadata><defs
     id="defs6" /><g
     transform="matrix(1.25,0,0,-1.25,-1.053129,39.931125)"
     id="g10"><g
       transform="scale(0.1,0.1)"
       id="g12"><path
         id="path16"
         style="fill:#7cd07f;fill-opacity:0.94117647;fill-rule:nonzero;stroke:none"
         d="m 416.586,314.012 c -2.332,0 -4.66,-0.774 -6.988,-2.328 -2.332,-1.555 -3.883,-3.364 -4.66,-5.438 l -46.586,-128.113 -60.957,128.89 c -0.516,2.071 -1.938,3.754 -4.27,5.047 -2.328,1.293 -4.527,1.942 -6.602,1.942 l -52.796,0 c -2.071,0 -4.274,-0.711 -6.598,-2.137 -2.332,-1.422 -3.883,-3.039 -4.66,-4.852 L 159.574,177.742 114.152,306.246 c -0.777,2.074 -2.394,3.883 -4.855,5.438 -2.457,1.554 -4.723,2.328 -6.793,2.328 l -81.5274,0 c -4.3985,0 -7.8321,-1.551 -10.293,-4.66 -2.45704,-3.106 -2.91016,-6.86 -1.35547,-11.258 L 113.375,12.3555 c 0.777,-2.0703 2.328,-3.88284 4.66,-5.43753 2.328,-1.55078 4.528,-2.32813 6.598,-2.32813 l 44.262,0 c 2.066,0 4.269,0.71485 6.597,2.13672 2.332,1.42188 3.883,3.04297 4.656,4.85154 L 258.184,181.625 339.715,11.5781 c 1.035,-2.07029 2.59,-3.74997 4.656,-5.04685 2.074,-1.29297 4.145,-1.94141 6.215,-1.94141 l 44.644,0 c 2.075,0 4.274,0.77735 6.602,2.32813 2.328,1.55469 3.883,3.36723 4.656,5.43753 L 510.535,298.094 c 1.555,4.398 1.164,8.152 -1.164,11.258 -2.328,3.109 -5.691,4.66 -10.094,4.66 l -82.691,0 z M 611.09,9.25 c 2.844,0 5.242,1.1641 7.18,3.4961 1.941,2.3242 2.914,5.043 2.914,8.1523 l 0,281.0786 c 0,3.109 -0.973,5.824 -2.914,8.152 -1.938,2.332 -4.336,3.496 -7.18,3.496 l -72.215,0 c -2.844,0 -5.238,-1.164 -7.18,-3.496 -1.941,-2.328 -2.914,-5.043 -2.914,-8.152 l 0,-281.0786 c 0,-3.1093 0.973,-5.8281 2.914,-8.1523 1.942,-2.332 4.336,-3.4961 7.18,-3.4961 l 72.215,0 z m 123.07,0 c 3.106,0 5.824,1.1641 8.153,3.4961 2.328,2.3242 3.492,5.043 3.492,8.1523 l 0,105.9846 117.636,-114.5275 c 0.778,-0.5196 2.133,-1.1641 4.079,-1.9414 1.937,-0.77738 3.425,-1.1641 4.46,-1.1641 l 104.434,0 c 2.852,0 5.242,0.64453 7.184,1.9414 1.941,1.293 3.367,2.9766 4.273,5.0469 0.902,2.0703 1.098,4.2695 0.582,6.6015 -0.519,2.3243 -1.812,4.5274 -3.883,6.5977 L 836.652,173.859 945.746,293.824 c 1.813,1.813 2.848,3.883 3.106,6.211 0.257,2.332 -0.067,4.531 -0.969,6.602 -0.906,2.07 -2.395,3.75 -4.465,5.047 -2.07,1.293 -4.402,1.941 -6.992,1.941 l -90.067,0 c -1.039,0 -2.589,-0.453 -4.66,-1.359 -2.07,-0.907 -3.492,-1.746 -4.269,-2.524 l -91.625,-104.433 0,96.668 c 0,3.109 -1.164,5.824 -3.492,8.152 -2.329,2.332 -5.047,3.496 -8.153,3.496 l -84.246,0 c -3.109,0 -5.824,-1.164 -8.152,-3.496 -2.332,-2.328 -3.496,-5.043 -3.496,-8.152 l 0,-281.0786 c 0,-3.1093 1.164,-5.8281 3.496,-8.1523 2.328,-2.332 5.043,-3.4961 8.152,-3.4961 l 84.246,0 z m 354.07,0 c 2.84,0 5.24,1.1641 7.18,3.4961 1.94,2.3242 2.91,5.043 2.91,8.1523 l 0,281.0786 c 0,3.109 -0.97,5.824 -2.91,8.152 -1.94,2.332 -4.34,3.496 -7.18,3.496 l -72.21,0 c -2.85,0 -5.25,-1.164 -7.19,-3.496 -1.94,-2.328 -2.91,-5.043 -2.91,-8.152 l 0,-281.0786 c 0,-3.1093 0.97,-5.8281 2.91,-8.1523 1.94,-2.332 4.34,-3.4961 7.19,-3.4961 l 72.21,0 z m 135.1,292.727 c 0,3.109 -1.23,5.824 -3.69,8.152 -2.46,2.332 -5.24,3.496 -8.34,3.496 l -84.25,0 c -3.36,0 -6.15,-1.164 -8.35,-3.496 -2.2,-2.328 -3.29,-5.043 -3.29,-8.152 l 0,-281.0786 c 0,-3.1093 1.16,-5.8281 3.49,-8.1523 2.33,-2.332 5.17,-3.4961 8.54,-3.4961 l 242.65,0 c 3.1,0 5.82,1.1641 8.15,3.4961 2.33,2.3242 3.49,5.043 3.49,8.1523 l 0,66.7735 c 0,3.3672 -1.23,6.1445 -3.68,8.3476 -2.46,2.1993 -5.25,3.3008 -8.35,3.3008 l -146.75,0 0.38,202.6567 z M 1647.29,9.25 c 3.36,0 6.14,1.1641 8.34,3.4961 2.2,2.3242 3.3,5.043 3.3,8.1523 l 0,56.6797 c 0,3.3633 -1.1,6.211 -3.3,8.543 -2.2,2.3281 -4.98,3.4922 -8.34,3.4922 l -140.93,0 0,32.6097 111.42,0.39 c 3.1,0 5.82,1.164 8.15,3.496 2.33,2.329 3.5,5.176 3.5,8.539 l 0,55.907 c 0,3.105 -1.17,5.824 -3.5,8.152 -2.33,2.328 -5.05,3.492 -8.15,3.492 l -111.42,0 0,31.063 130.44,0 c 3.11,0 5.83,1.164 8.16,3.492 2.33,2.328 3.49,5.176 3.49,8.543 l 0,56.68 c 0,3.109 -1.16,5.824 -3.49,8.152 -2.33,2.332 -5.05,3.496 -8.16,3.496 l -226.34,0 c -3.1,0 -5.82,-1.164 -8.15,-3.496 -2.33,-2.328 -3.49,-5.043 -3.49,-8.152 l 0,-281.0786 c 0,-3.1093 1.16,-5.8281 3.49,-8.1523 2.33,-2.332 5.05,-3.4961 8.15,-3.4961 l 236.83,0 z m 136.26,150.246 c 0,25.363 8.93,45.813 26.79,61.34 18.64,15.531 43.22,23.297 73.77,23.297 9.83,0 19.6,-0.52 29.31,-1.555 9.7,-1.035 19.34,-2.457 28.92,-4.273 19.67,-3.879 36.5,-7.891 50.47,-12.032 4.4,-1.296 8.15,-0.585 11.26,2.133 3.11,2.719 4.4,6.278 3.88,10.676 l -6.6,53.965 c -0.26,2.07 -1.23,4.078 -2.91,6.019 -1.68,1.938 -3.56,3.168 -5.63,3.688 -13.46,4.141 -31.19,7.957 -53.19,11.453 -21.99,3.492 -46.71,5.242 -74.15,5.242 -56.42,0 -102.11,-14.496 -137.04,-43.48 -34.95,-29.508 -52.42,-69.496 -52.42,-119.969 0,-51.504 16.95,-89.6172 50.86,-114.332 33.91,-24.7188 82.83,-37.07816 146.76,-37.07816 28.21,0 54.41,1.8125 78.61,5.43746 24.2,3.6211 45.75,8.4102 64.64,14.3633 2.33,0.7735 4.33,2.2657 6.02,4.4649 1.68,2.1992 2.52,4.4648 2.52,6.7929 l 0,136.2696 c 0,3.363 -1.16,6.148 -3.49,8.348 -2.33,2.199 -5.18,3.3 -8.54,3.3 l -124.24,0 c -3.36,0 -6.21,-1.101 -8.54,-3.3 -2.33,-2.2 -3.49,-4.985 -3.49,-8.348 l 0,-51.633 c 0,-3.363 1.16,-6.215 3.49,-8.543 2.33,-2.328 5.18,-3.492 8.54,-3.492 l 40.77,0 0,-19.4141 c -12.17,-4.6601 -29.9,-6.9843 -53.19,-6.9843 -29.25,0 -52.16,6.9843 -68.72,20.9614 -16.3,13.976 -24.46,32.871 -24.46,56.683 z M 2124.81,9.25 c 2.85,0 5.24,1.1641 7.18,3.4961 1.94,2.3242 2.91,5.043 2.91,8.1523 l 0,281.0786 c 0,3.109 -0.97,5.824 -2.91,8.152 -1.94,2.332 -4.33,3.496 -7.18,3.496 l -72.21,0 c -2.85,0 -5.24,-1.164 -7.19,-3.496 -1.93,-2.328 -2.91,-5.043 -2.91,-8.152 l 0,-281.0786 c 0,-3.1093 0.98,-5.8281 2.91,-8.1523 1.95,-2.332 4.34,-3.4961 7.19,-3.4961 l 72.21,0 z m 293.51,98.609 c 0,25.887 -8.68,47.11 -26.02,63.672 -15.53,15.532 -44.26,27.434 -86.19,35.719 -11.65,2.07 -21.74,4.332 -30.28,6.793 -8.54,2.457 -15.78,4.723 -21.74,6.793 -6.47,2.332 -9.7,5.566 -9.7,9.707 0,4.398 3.16,7.504 9.51,9.316 6.34,1.813 15.33,2.719 26.98,2.719 15.27,0 32.48,-2.719 51.64,-8.152 9.57,-2.848 18.76,-5.953 27.56,-9.317 8.8,-3.367 17.21,-6.992 25.23,-10.871 4.4,-2.332 8.42,-2.136 12.04,0.578 3.62,2.719 5.18,6.539 4.66,11.457 l -7.77,67.942 c -0.26,2.066 -1.23,4.14 -2.91,6.211 -1.68,2.066 -3.56,3.363 -5.63,3.883 -4.91,1.55 -11.06,3.101 -18.44,4.656 -7.38,1.555 -15.98,3.234 -25.81,5.047 -20.45,3.625 -39.74,5.437 -57.85,5.437 -41.42,0 -73.7,-8.41 -96.87,-25.234 -23.16,-16.824 -34.75,-41.543 -34.75,-74.156 0,-27.954 9.45,-49.692 28.35,-65.223 17.34,-14.492 48.4,-26.27 93.17,-35.328 23.82,-4.66 39.09,-9.059 45.82,-13.199 4.14,-2.848 6.21,-5.696 6.21,-8.5434 0,-5.4375 -3.56,-9.5742 -10.68,-12.4218 -7.12,-2.8477 -16.5,-4.2696 -28.15,-4.2696 -18.89,0 -39.99,3.8789 -63.28,11.6446 -22.52,8.0232 -40.12,15.1402 -52.8,21.3512 -4.4,2.075 -8.41,1.879 -12.03,-0.578 -3.63,-2.461 -5.18,-6.148 -4.66,-11.066 l 6.21,-73.7658 c 0.26,-2.3282 1.29,-4.5274 3.11,-6.5977 1.8,-2.0742 3.88,-3.3672 6.21,-3.8828 2.84,-0.5195 6.92,-1.3594 12.23,-2.5234 5.3,-1.1641 11.71,-2.3946 19.21,-3.6875 l 0,0.3867 c 2.08,-0.5196 4.08,-0.9063 6.02,-1.1641 1.94,-0.2617 4.21,-0.6484 6.79,-1.1641 11.13,-1.81246 22.33,-3.17183 33.59,-4.07808 11.26,-0.90625 22.58,-1.35938 33.97,-1.35938 21.22,0 40.31,2.26563 57.26,6.79296 16.95,4.5313 31.32,11.1289 43.1,19.8008 11.77,8.6719 20.83,19.4102 27.17,32.2266 6.34,12.8125 9.52,27.6289 9.52,44.4488" /></g></g></svg>