<svg width="139" height="121" viewBox="0 0 139 121" fill="none" xmlns="http://www.w3.org/2000/svg">
<path d="M104.932 117V108.469H107.996C109.094 108.469 109.928 108.67 110.498 109.072C111.073 109.475 111.36 110.059 111.36 110.824C111.36 111.266 111.258 111.643 111.055 111.955C110.852 112.268 110.553 112.498 110.159 112.646C110.604 112.764 110.946 112.982 111.184 113.303C111.422 113.623 111.541 114.014 111.541 114.475C111.541 115.311 111.276 115.939 110.745 116.361C110.217 116.779 109.434 116.992 108.395 117H104.932ZM106.989 113.373V115.418H108.336C108.707 115.418 108.993 115.334 109.192 115.166C109.391 114.994 109.491 114.754 109.491 114.445C109.491 113.734 109.137 113.377 108.43 113.373H106.989ZM106.989 112.025H108.061C108.51 112.021 108.83 111.939 109.022 111.779C109.213 111.619 109.309 111.383 109.309 111.07C109.309 110.711 109.205 110.453 108.998 110.297C108.791 110.137 108.457 110.057 107.996 110.057H106.989V112.025ZM119.169 113.385H115.935V115.418H119.755V117H113.878V108.469H119.767V110.057H115.935V111.855H119.169V113.385ZM128.607 110.057H126.047V117H123.99V110.057H121.477V108.469H128.607V110.057ZM134.823 115.406H132.005L131.513 117H129.315L132.444 108.469H134.378L137.53 117H135.321L134.823 115.406ZM132.497 113.818H134.331L133.411 110.859L132.497 113.818Z" fill="#383838"/>
<path d="M29.4664 85.0882L23.9583 102.073H18.8142L15.5627 91.7367L12.1656 102.073H7.02151L1.51342 85.0882H6.46342L9.88474 95.9345L13.4759 85.0882H17.8921L21.3134 96.0316L24.8803 85.0882H29.4664ZM31.1878 85.0882H35.9922V102.073H31.1878V85.0882ZM45.9618 95.9103L44.1662 97.8272V102.073H39.4103V85.0882H44.1662V92.1492L50.742 85.0882H56.0317L49.092 92.6103L56.3956 102.073H50.8148L45.9618 95.9103ZM57.6563 85.0882H62.4607V102.073H57.6563V85.0882ZM65.8788 85.0882H70.6832V98.2639H78.7876V102.073H65.8788V85.0882ZM94.3255 98.361V102.073H80.6888V85.0882H94.0101V88.8007H85.4447V91.6639H92.991V95.2551H85.4447V98.361H94.3255ZM108.348 93.2169H112.594V100.254C111.624 100.949 110.508 101.483 109.246 101.855C107.984 102.227 106.722 102.413 105.461 102.413C103.681 102.413 102.08 102.041 100.656 101.297C99.2326 100.537 98.1165 99.4853 97.3076 98.1426C96.4988 96.8 96.0944 95.2794 96.0944 93.5808C96.0944 91.8823 96.4988 90.3617 97.3076 89.0191C98.1165 87.6764 99.2407 86.633 100.68 85.8889C102.12 85.1286 103.746 84.7485 105.558 84.7485C107.143 84.7485 108.566 85.0154 109.828 85.5492C111.09 86.083 112.141 86.8514 112.983 87.8544L109.925 90.6205C108.777 89.3588 107.402 88.7279 105.8 88.7279C104.344 88.7279 103.172 89.1728 102.282 90.0625C101.392 90.936 100.947 92.1088 100.947 93.5808C100.947 94.5191 101.15 95.3603 101.554 96.1044C101.958 96.8323 102.525 97.4066 103.252 97.8272C103.98 98.2316 104.814 98.4338 105.752 98.4338C106.674 98.4338 107.539 98.2478 108.348 97.8757V93.2169ZM115.64 85.0882H120.445V102.073H115.64V85.0882ZM129.832 102.413C128.457 102.413 127.122 102.243 125.828 101.904C124.534 101.564 123.483 101.111 122.674 100.545L124.251 97.0022C125.011 97.5036 125.893 97.908 126.896 98.2154C127.899 98.5228 128.886 98.6764 129.856 98.6764C131.7 98.6764 132.622 98.2154 132.622 97.2933C132.622 96.808 132.356 96.4522 131.822 96.2257C131.304 95.983 130.463 95.7323 129.298 95.4735C128.02 95.1985 126.953 94.9073 126.095 94.6C125.238 94.2764 124.502 93.7669 123.887 93.0713C123.272 92.3757 122.965 91.4375 122.965 90.2566C122.965 89.2213 123.248 88.2911 123.814 87.4661C124.381 86.625 125.222 85.9617 126.338 85.4764C127.47 84.9911 128.853 84.7485 130.487 84.7485C131.603 84.7485 132.703 84.8779 133.787 85.1367C134.871 85.3794 135.825 85.7433 136.65 86.2286L135.17 89.7955C133.553 88.922 131.983 88.4853 130.463 88.4853C129.508 88.4853 128.813 88.6308 128.376 88.922C127.939 89.197 127.721 89.561 127.721 90.0139C127.721 90.4669 127.98 90.8066 128.497 91.033C129.015 91.2595 129.848 91.4941 130.997 91.7367C132.291 92.0117 133.358 92.311 134.2 92.6345C135.057 92.9419 135.793 93.4433 136.408 94.1389C137.039 94.8183 137.354 95.7485 137.354 96.9294C137.354 97.9485 137.071 98.8705 136.505 99.6955C135.939 100.521 135.089 101.184 133.957 101.685C132.825 102.171 131.45 102.413 129.832 102.413Z" fill="#2DA965"/>
<mask id="path-3-inside-1" fill="white">
<path d="M126.936 1.61768L105.031 69.5589H80.2912L69.2411 33.2589L59.8535 2.4265V1.61768H80.4867L92.4168 40.7324L105.031 1.61768H126.936Z"/>
</mask>
<path d="M69.2411 33.2589L69.6135 32.1042C69.1117 31.9424 68.5629 32.1231 68.2555 32.5515C67.9481 32.9798 67.9525 33.5577 68.2664 33.9813L69.2411 33.2589ZM81.3472 70.1561L88.2086 58.0237L86.0965 56.8293L79.2351 68.9616L81.3472 70.1561ZM110.531 25.3994L127.905 2.3479L125.967 0.887449L108.593 23.9389L110.531 25.3994ZM103.841 1.85166L108.372 24.9031L110.753 24.4352L106.222 1.38369L103.841 1.85166ZM92.7892 39.5777L69.6135 32.1042L68.8688 34.4135L92.0445 41.8871L92.7892 39.5777ZM88.1273 56.7041L70.2159 32.5365L68.2664 33.9813L86.1779 58.1489L88.1273 56.7041ZM108.733 23.7838L91.5873 39.847L93.2463 41.6178L110.392 25.5545L108.733 23.7838ZM88.3096 57.7914L93.5739 41.0973L91.2598 40.3675L85.9955 57.0616L88.3096 57.7914ZM87.421 58.6097L101.682 55.3744L101.145 53.008L86.8842 56.2433L87.421 58.6097ZM102.583 54.514L110.732 24.992L108.393 24.3463L100.244 53.8684L102.583 54.514ZM106.212 69.2808L102.594 53.9132L100.232 54.4692L103.851 69.8369L106.212 69.2808ZM102.422 53.517L93.4255 40.0582L91.4082 41.4066L100.405 54.8654L102.422 53.517ZM126.936 1.61768L129.245 2.36224C129.483 1.62391 129.354 0.816273 128.897 0.189197C128.441 -0.437879 127.712 -0.808795 126.936 -0.808795V1.61768ZM105.031 69.5589V71.9853C106.085 71.9853 107.018 71.3059 107.341 70.3034L105.031 69.5589ZM80.2912 69.5589L77.9699 70.2655C78.2809 71.2871 79.2232 71.9853 80.2912 71.9853V69.5589ZM69.2411 33.2589L71.5625 32.5522L71.5624 32.5521L69.2411 33.2589ZM80.4867 1.61768L82.8077 0.90979C82.4962 -0.111213 81.5542 -0.808795 80.4867 -0.808795V1.61768ZM92.4168 40.7324L90.0959 41.4403C90.4052 42.4545 91.3372 43.1503 92.3975 43.1588C93.4578 43.1672 94.4007 42.4863 94.7262 41.4772L92.4168 40.7324ZM105.031 1.61768V-0.808795C103.978 -0.808795 103.045 -0.129426 102.722 0.872905L105.031 1.61768ZM59.8535 2.4265H57.427C57.427 2.66599 57.4625 2.90416 57.5323 3.13326L59.8535 2.4265ZM59.8535 1.61768V-0.808795C58.5134 -0.808795 57.427 0.277573 57.427 1.61768L59.8535 1.61768ZM124.626 0.873114L102.722 68.8143L107.341 70.3034L129.245 2.36224L124.626 0.873114ZM105.031 67.1324H80.2912V71.9853H105.031V67.1324ZM82.6125 68.8522L71.5625 32.5522L66.9198 33.9655L77.9699 70.2655L82.6125 68.8522ZM78.1658 2.32556L90.0959 41.4403L94.7377 40.0245L82.8077 0.90979L78.1658 2.32556ZM94.7262 41.4772L107.341 2.36245L102.722 0.872905L90.1075 39.9876L94.7262 41.4772ZM105.031 4.04415H126.936V-0.808795H105.031V4.04415ZM62.28 2.4265V1.61768H57.427V2.4265H62.28ZM59.8535 4.04415H80.4867V-0.808795H59.8535V4.04415ZM71.5624 32.5521L62.1748 1.71974L57.5323 3.13326L66.9199 33.9656L71.5624 32.5521Z" fill="#2DA965" mask="url(#path-3-inside-1)"/>
<path d="M12.99 2.83091H34.1852L45.8481 40.605L46.9751 44.2551L48.1607 40.6236L60.4988 2.83091H79.1144L68.4472 32.8527L68.4408 32.8705L68.4351 32.8886L57.0715 68.3456H34.1066L12.99 2.83091Z" fill="#2DA965" stroke="#2DA965" stroke-width="2.42647"/>
<circle cx="92.2071" cy="40.4412" r="3.63971" transform="rotate(-180 92.2071 40.4412)" fill="#2DA965" stroke="#2DA965" stroke-width="0.808824"/>
<circle cx="109.193" cy="24.2649" r="2.83088" transform="rotate(-180 109.193 24.2649)" fill="#2DA965" stroke="#2DA965" stroke-width="0.808824"/>
<circle cx="87.3546" cy="56.6177" r="3.63971" transform="rotate(-180 87.3546 56.6177)" fill="#2DA965" stroke="#2DA965" stroke-width="0.808824"/>
<circle cx="101.105" cy="54.1912" r="2.83088" transform="rotate(-180 101.105 54.1912)" fill="#2DA965" stroke="#2DA965" stroke-width="0.808824"/>
<circle cx="81.2875" cy="68.3456" r="2.42647" transform="rotate(-180 81.2875 68.3456)" fill="#2DA965" stroke="#2DA965" stroke-width="0.808824"/>
<path d="M103.935 65.9191C102.595 65.9191 101.509 67.0055 101.509 68.3456C101.509 69.6857 102.595 70.7721 103.935 70.7721C105.275 70.7721 106.361 69.6857 106.361 68.3456C106.361 67.0055 105.275 65.9191 103.935 65.9191Z" fill="#2DA965" stroke="#2DA965" stroke-width="0.808824"/>
<circle cx="124.964" cy="2.83097" r="2.42647" transform="rotate(-180 124.964 2.83097)" fill="#2DA965" stroke="#2DA965" stroke-width="0.808824"/>
<circle cx="105.552" cy="2.83097" r="2.42647" transform="rotate(-180 105.552 2.83097)" fill="#2DA965" stroke="#2DA965" stroke-width="0.808824"/>
<circle cx="79.2649" cy="3.23539" r="2.83088" transform="rotate(-180 79.2649 3.23539)" fill="#2DA965" stroke="#2DA965" stroke-width="0.808824"/>
<path d="M69.1554 28.7134C67.3686 28.7134 65.9202 30.1619 65.9202 31.9487C65.9202 33.7355 67.3686 35.184 69.1554 35.184C70.9422 35.184 72.3907 33.7355 72.3907 31.9487C72.3907 30.1619 70.9422 28.7134 69.1554 28.7134Z" fill="#2DA965" stroke="#2DA965" stroke-width="0.808824"/>
</svg>
