<svg width="324" height="259" viewBox="0 0 324 259" fill="none" xmlns="http://www.w3.org/2000/svg">
<path d="M66.8747 203.33L53.9244 243.265H41.8297L34.185 218.962L26.198 243.265H14.1034L1.15304 203.33H12.7913L20.8353 228.832L29.2787 203.33H39.6618L47.7059 229.06L56.0923 203.33H66.8747ZM70.9222 203.33H82.2181V243.265H70.9222V203.33ZM105.658 228.775L101.436 233.281V243.265H90.2546V203.33H101.436V219.932L116.897 203.33H129.334L113.018 221.016L130.19 243.265H117.068L105.658 228.775ZM133.154 203.33H144.449V243.265H133.154V203.33ZM152.486 203.33H163.782V234.308H182.837V243.265H152.486V203.33ZM219.369 234.537V243.265H187.307V203.33H218.627V212.059H198.488V218.791H216.231V227.234H198.488V234.537H219.369ZM252.338 222.442H262.322V238.987C260.04 240.622 257.415 241.877 254.449 242.752C251.482 243.627 248.515 244.064 245.549 244.064C241.365 244.064 237.6 243.189 234.253 241.44C230.906 239.652 228.282 237.18 226.38 234.023C224.478 230.866 223.528 227.291 223.528 223.298C223.528 219.304 224.478 215.729 226.38 212.572C228.282 209.416 230.925 206.962 234.31 205.213C237.695 203.425 241.517 202.531 245.777 202.531C249.504 202.531 252.851 203.159 255.818 204.414C258.785 205.669 261.257 207.476 263.234 209.834L256.046 216.338C253.346 213.371 250.113 211.888 246.348 211.888C242.925 211.888 240.167 212.934 238.075 215.025C235.983 217.079 234.938 219.837 234.938 223.298C234.938 225.504 235.413 227.481 236.364 229.231C237.315 230.942 238.646 232.293 240.357 233.281C242.069 234.232 244.028 234.708 246.233 234.708C248.401 234.708 250.436 234.27 252.338 233.396V222.442ZM269.483 203.33H280.779V243.265H269.483V203.33ZM302.85 244.064C299.617 244.064 296.479 243.665 293.437 242.866C290.394 242.067 287.922 241.002 286.02 239.671L289.728 231.342C291.516 232.521 293.589 233.472 295.947 234.194C298.305 234.917 300.625 235.278 302.907 235.278C307.243 235.278 309.411 234.194 309.411 232.026C309.411 230.885 308.783 230.049 307.528 229.516C306.311 228.946 304.333 228.356 301.595 227.748C298.59 227.101 296.08 226.416 294.064 225.694C292.048 224.933 290.318 223.735 288.873 222.1C287.427 220.464 286.705 218.258 286.705 215.482C286.705 213.048 287.37 210.861 288.701 208.921C290.033 206.943 292.01 205.384 294.635 204.243C297.297 203.102 300.549 202.531 304.39 202.531C307.015 202.531 309.601 202.836 312.149 203.444C314.697 204.015 316.941 204.871 318.881 206.012L315.401 214.398C311.598 212.344 307.908 211.317 304.333 211.317C302.089 211.317 300.454 211.66 299.427 212.344C298.4 212.991 297.887 213.846 297.887 214.911C297.887 215.976 298.495 216.775 299.712 217.307C300.929 217.84 302.888 218.391 305.588 218.962C308.631 219.608 311.141 220.312 313.119 221.073C315.135 221.795 316.865 222.974 318.31 224.61C319.794 226.207 320.535 228.394 320.535 231.171C320.535 233.567 319.87 235.735 318.539 237.674C317.208 239.614 315.211 241.173 312.548 242.352C309.886 243.493 306.653 244.064 302.85 244.064Z" fill="#2DA965"/>
<mask id="path-2-inside-1" fill="white">
<path d="M296.986 3.80347L245.962 163.544H188.332L162.592 78.1968L140.725 5.70514V3.80347H188.788L216.578 95.7682L245.962 3.80347H296.986Z"/>
</mask>
<path d="M162.592 78.1968L163.475 75.4843C162.297 75.101 161.006 75.5216 160.281 76.5254C159.555 77.5291 159.56 78.8866 160.293 79.8851L162.592 78.1968ZM190.821 164.938L206.804 136.413L201.827 133.624L185.844 162.149L190.821 164.938ZM258.802 59.7077L299.272 5.51016L294.701 2.09677L254.231 56.2943L258.802 59.7077ZM243.162 4.3487L253.716 58.5463L259.316 57.4558L248.762 3.25823L243.162 4.3487ZM217.46 93.0558L163.475 75.4843L161.709 80.9092L215.695 98.4807L217.46 93.0558ZM206.614 133.33L164.891 76.5085L160.293 79.8851L202.016 136.707L206.614 133.33ZM254.556 55.9285L214.618 93.6956L218.537 97.8408L258.476 60.0736L254.556 55.9285ZM207.038 135.869L219.3 96.6188L213.855 94.9176L201.592 134.168L207.038 135.869ZM204.952 137.799L238.171 130.193L236.897 124.631L203.678 132.238L204.952 137.799ZM240.285 128.164L259.268 58.7535L253.765 57.2486L234.782 126.66L240.285 128.164ZM248.74 162.896L240.312 126.764L234.756 128.06L243.184 164.192L248.74 162.896ZM239.912 125.837L218.956 94.1932L214.199 97.3432L235.156 128.987L239.912 125.837ZM296.986 3.80347L302.421 5.53936C302.975 3.80452 302.668 1.90936 301.593 0.43866C300.519 -1.03204 298.808 -1.90154 296.986 -1.90154V3.80347ZM245.962 163.544V169.249C248.444 169.249 250.641 167.644 251.397 165.28L245.962 163.544ZM188.332 163.544L182.87 165.191C183.597 167.6 185.816 169.249 188.332 169.249V163.544ZM162.592 78.1968L168.054 76.5495L168.054 76.5492L162.592 78.1968ZM188.788 3.80347L194.249 2.15322C193.521 -0.254413 191.303 -1.90154 188.788 -1.90154V3.80347ZM216.578 95.7682L211.116 97.4185C211.839 99.8101 214.034 101.453 216.532 101.473C219.031 101.493 221.251 99.8845 222.012 97.5046L216.578 95.7682ZM245.962 3.80347V-1.90154C243.48 -1.90154 241.283 -0.297014 240.528 2.06709L245.962 3.80347ZM140.725 5.70514H135.02C135.02 6.26328 135.102 6.8184 135.263 7.35276L140.725 5.70514ZM140.725 3.80347V-1.90154C137.574 -1.90154 135.02 0.652678 135.02 3.80347L140.725 3.80347ZM291.552 2.06758L240.528 161.808L251.397 165.28L302.421 5.53936L291.552 2.06758ZM245.962 157.839H188.332V169.249H245.962V157.839ZM193.794 161.896L168.054 76.5495L157.13 79.8441L182.87 165.191L193.794 161.896ZM183.327 5.45371L211.116 97.4185L222.039 94.118L194.249 2.15322L183.327 5.45371ZM222.012 97.5046L251.396 5.53984L240.528 2.06709L211.143 94.0318L222.012 97.5046ZM245.962 9.50847H296.986V-1.90154H245.962V9.50847ZM146.43 5.70514V3.80347H135.02V5.70514H146.43ZM140.725 9.50847H188.788V-1.90154H140.725V9.50847ZM168.054 76.5492L146.187 4.05752L135.263 7.35276L157.13 79.8444L168.054 76.5492Z" fill="#2DA965" mask="url(#path-2-inside-1)"/>
<path d="M159.703 77.2492L159.688 77.2909L159.675 77.3331L133.198 160.691H79.7348L30.5297 6.65585H79.8695L107.044 95.4617L109.696 104.128L112.485 95.5052L141.233 6.65585H184.562L159.703 77.2492Z" fill="#2DA965" stroke="#2DA965" stroke-width="5.70501"/>
<circle cx="216.791" cy="95.0836" r="8.55751" transform="rotate(-180 216.791 95.0836)" fill="#2DA965" stroke="#2DA965" stroke-width="1.90167"/>
<circle cx="256.727" cy="57.0502" r="6.65584" transform="rotate(-180 256.727 57.0502)" fill="#2DA965" stroke="#2DA965" stroke-width="1.90167"/>
<circle cx="205.381" cy="133.117" r="8.55751" transform="rotate(-180 205.381 133.117)" fill="#2DA965" stroke="#2DA965" stroke-width="1.90167"/>
<circle cx="237.709" cy="127.412" r="6.65584" transform="rotate(-180 237.709 127.412)" fill="#2DA965" stroke="#2DA965" stroke-width="1.90167"/>
<circle cx="191.118" cy="160.691" r="5.70501" transform="rotate(-180 191.118 160.691)" fill="#2DA965" stroke="#2DA965" stroke-width="1.90167"/>
<path d="M244.365 154.986C241.214 154.986 238.66 157.54 238.66 160.691C238.66 163.842 241.214 166.396 244.365 166.396C247.516 166.396 250.07 163.842 250.07 160.691C250.07 157.54 247.516 154.986 244.365 154.986Z" fill="#2DA965" stroke="#2DA965" stroke-width="1.90167"/>
<circle cx="293.808" cy="6.65586" r="5.70501" transform="rotate(-180 293.808 6.65586)" fill="#2DA965" stroke="#2DA965" stroke-width="1.90167"/>
<circle cx="248.169" cy="6.65586" r="5.70501" transform="rotate(-180 248.169 6.65586)" fill="#2DA965" stroke="#2DA965" stroke-width="1.90167"/>
<circle cx="186.364" cy="7.60676" r="6.65584" transform="rotate(-180 186.364 7.60676)" fill="#2DA965" stroke="#2DA965" stroke-width="1.90167"/>
<path d="M162.593 67.5093C158.392 67.5093 154.987 70.915 154.987 75.116C154.987 79.3171 158.392 82.7227 162.593 82.7227C166.794 82.7227 170.2 79.3171 170.2 75.116C170.2 70.915 166.794 67.5093 162.593 67.5093Z" fill="#2DA965" stroke="#2DA965" stroke-width="1.90167"/>
</svg>
