<?xml version="1.0" encoding="UTF-8" standalone="no"?>
<svg
   xmlns:dc="http://purl.org/dc/elements/1.1/"
   xmlns:cc="http://creativecommons.org/ns#"
   xmlns:rdf="http://www.w3.org/1999/02/22-rdf-syntax-ns#"
   xmlns:svg="http://www.w3.org/2000/svg"
   xmlns="http://www.w3.org/2000/svg"
   viewBox="0 0 281.46973 200.72025"
   height="200.72025"
   width="281.46973"
   xml:space="preserve"
   version="1.1"
   id="svg2"><metadata
     id="metadata8"><rdf:RDF><cc:Work
         rdf:about=""><dc:format>image/svg+xml</dc:format><dc:type
           rdf:resource="http://purl.org/dc/dcmitype/StillImage" /><dc:title></dc:title></cc:Work></rdf:RDF></metadata><defs
     id="defs6" /><g
     transform="matrix(1.25,0,0,-1.25,-8.2802817,267.13625)"
     id="g10"><g
       transform="scale(0.1,0.1)"
       id="g12"><path
         id="path14"
         style="fill:#7cd07f;fill-opacity:0.94117647;fill-rule:evenodd;stroke:none"
         d="m 1135.94,1956.99 -70.19,0 c -2.36,0 -4.76,-0.21 -7.2,-0.63 -4.04,12.31 -15.62,21.19 -29.27,21.19 -17.01,0 -30.811,-13.79 -30.811,-30.8 0,-11.09 5.871,-20.82 14.661,-26.24 L 736.781,1352.46 535.27,1922.55 c -3.446,9.18 -10.622,17.22 -21.532,24.11 -10.906,6.89 -20.953,10.33 -30.14,10.33 l -361.684,0 c -19.523,0 -34.7343,-6.89 -45.6445,-20.67 -10.9101,-13.77 -12.914,-30.42 -6.0273,-49.94 L 531.824,618.746 c 3.446,-9.187 10.336,-17.223 20.668,-24.113 10.336,-6.891 20.094,-10.332 29.281,-10.332 l 196.344,0 c 9.188,0 18.946,3.156 29.281,9.472 10.332,6.313 17.223,13.493 20.668,21.528 l 339.064,738.869 22.12,-46.93 c -14.84,-10.31 -24.57,-27.49 -24.57,-46.94 0,-31.54 25.58,-57.12 57.12,-57.12 5.33,0 10.49,0.73 15.39,2.1 l 258.39,-551.952 c -17.54,-12.051 -29.05,-32.254 -29.05,-55.14 0,-36.918 29.94,-66.86 66.86,-66.86 32,0 58.76,22.504 65.32,52.539 l 150.08,0 c 6.81,-15.898 22.61,-27.039 41,-27.039 24.64,0 44.61,19.973 44.61,44.606 0,12.777 -5.38,24.3 -13.99,32.433 l 178.27,472.933 c 8.19,-14.17 23.51,-23.71 41.05,-23.71 26.17,0 47.39,21.23 47.39,47.39 0,26.17 -21.22,47.39 -47.39,47.39 -6.3,0 -12.32,-1.24 -17.82,-3.47 l 244.98,718.13 c 1.07,-0.08 2.16,-0.12 3.26,-0.12 26.42,0 47.85,21.43 47.85,47.86 0,26.42 -21.43,47.85 -47.85,47.85 -20.38,0 -37.79,-12.76 -44.69,-30.73 l -347.1,0 c -5.5,22.3 -25.63,38.85 -49.62,38.85 -28.21,0 -51.1,-22.89 -51.1,-51.1 0,-16.08 7.44,-30.42 19.05,-39.79 l -181.88,-488.14 c -3.26,0.54 -6.61,0.83 -10.02,0.83 -6.95,0 -13.62,-1.18 -19.83,-3.34 l -239.64,480.28 c 14.9,11.65 24.48,29.79 24.48,50.16 0,35.13 -28.48,63.61 -63.61,63.61 -31.08,0 -56.95,-22.29 -62.51,-51.76 l -107.74,0 0,0 z m 900.52,-256.11 c 10.63,0 20.49,-3.24 28.67,-8.79 l 167.79,218.12 c -5.83,7.21 -9.6,16.15 -10.44,25.92 l -343.43,0 c -1.66,-9.29 -5.82,-17.7 -11.76,-24.53 l 147.29,-215.64 c 6.63,3.15 14.05,4.92 21.88,4.92 z m 43.5,-24.27 c 4.82,-7.8 7.6,-16.99 7.6,-26.82 0,-24.05 -16.62,-44.22 -39,-49.66 l -32.36,-376.74 227,665.43 -163.24,-212.21 z m -52.78,-77.08 c -10.1,1.86 -19.16,6.68 -26.25,13.55 l -341,-230.79 c 3.36,-7.52 5.23,-15.85 5.23,-24.61 0,-8.55 -1.78,-16.68 -4.98,-24.04 l 325.22,-200.55 2.3,6.75 39.48,459.69 z m -38.12,31.16 c -2.38,5.9 -3.69,12.34 -3.69,19.1 0,12.71 4.65,24.33 12.33,33.27 l -147.38,215.76 c -6.55,-3.07 -13.86,-4.78 -21.58,-4.78 -4.5,0 -8.87,0.59 -13.03,1.68 l -180.95,-485.63 c 4.88,-2.8 9.33,-6.25 13.22,-10.25 l 341.08,230.85 z m -12.53,-517.02 -328.08,202.31 c -10.99,-11.5 -26.49,-18.68 -43.66,-18.68 -1.68,0 -3.36,0.08 -5.01,0.21 l -32.41,-105.93 c 17.57,-8.88 29.63,-27.09 29.63,-48.12 0,-15.86 -6.86,-30.12 -17.77,-39.98 l 142.86,-220.484 c 7.68,3.84 16.34,6.004 25.51,6.004 11.75,0 22.67,-3.551 31.76,-9.641 l 197.17,234.311 z m -698.83,134.81 120.58,-45.15 -61.99,278.68 c -1.36,-0.11 -2.74,-0.17 -4.13,-0.17 -9.86,0 -19.05,2.79 -26.86,7.63 l -120.93,-122.11 24.26,-51.46 c 4.23,1 8.64,1.53 13.17,1.53 31.54,0 57.13,-25.59 57.13,-57.13 0,-4.05 -0.43,-8.01 -1.23,-11.82 z m 87.38,245.39 162.62,-298.78 c 4.89,1.46 10.06,2.25 15.43,2.25 1.28,0 2.56,-0.05 3.82,-0.14 l 32.35,105.74 c -20.6,9.61 -34.88,30.51 -34.88,54.74 0,18.76 8.57,35.53 22.01,46.6 l -239.81,480.6 c -1.48,-0.5 -3,-0.95 -4.53,-1.35 l 22.16,-300.94 c 22.38,-5.43 39,-25.61 39,-49.65 0,-15.67 -7.06,-29.7 -18.17,-39.07 z m 124.26,-347.25 -61.91,23.18 112.33,-505.054 c 31.65,-2.996 56.87,-28.055 60.13,-59.617 l 145.45,0 c 1.88,22.902 21.07,40.91 44.45,40.91 4.14,0 8.14,-0.562 11.93,-1.617 L 1957.85,1058.61 1794.5,864.492 c 6.44,-9.25 10.23,-20.488 10.23,-32.617 0,-31.543 -25.59,-57.125 -57.13,-57.125 -31.54,0 -57.12,25.582 -57.12,57.125 0,14.711 5.56,28.125 14.7,38.25 l -144.17,222.505 c -5.6,-1.97 -11.62,-3.05 -17.88,-3.05 -29.75,0 -53.88,24.13 -53.88,53.88 0,1.06 0.03,2.12 0.09,3.16 z m 29.04,-483.268 -114.61,515.308 -134.24,50.26 c -3.61,-5.47 -8.13,-10.3 -13.36,-14.24 l 258.54,-552.278 c 1.21,0.352 2.43,0.668 3.67,0.95 z m -96.44,531.118 72.82,-27.26 c 3.42,6.96 8.3,13.07 14.24,17.94 l -143.71,264.02 56.65,-254.7 z M 1238.03,942.898 c 18.29,0 33.13,-14.835 33.13,-33.128 0,-18.29 -14.84,-33.125 -33.13,-33.125 -18.29,0 -33.13,14.835 -33.13,33.125 0,18.293 14.84,33.128 33.13,33.128 z m 71.4,1194.192 c 14.59,0 26.43,-11.84 26.43,-26.42 0,-14.59 -11.84,-26.42 -26.43,-26.42 -14.58,0 -26.41,11.83 -26.41,26.42 0,14.58 11.83,26.42 26.41,26.42 z m 210.98,-178.93 c 19.73,0 35.74,-16 35.74,-35.74 0,-19.74 -16.01,-35.74 -35.74,-35.74 -19.75,0 -35.75,16 -35.75,35.74 0,19.74 16,35.74 35.75,35.74 z m -230.44,-454.05 -0.17,0.25 0.16,-0.25 0.01,0 z m 957.46,-15.7 c 14.84,0 26.88,-12.03 26.88,-26.87 0,-14.84 -12.04,-26.88 -26.88,-26.88 -14.84,0 -26.87,12.04 -26.87,26.88 0,14.84 12.03,26.87 26.87,26.87" /></g></g></svg>