<svg width="158" height="158" viewBox="0 0 158 158" fill="none" xmlns="http://www.w3.org/2000/svg">
<path d="M158 3.18441e-05L113.76 2.41089e-05L113.76 34.76L158 34.76L158 3.18441e-05Z" fill="#E6E6E6"/>
<path d="M0 158H44.24V123.24H0V158Z" fill="#E6E6E6"/>
<path d="M101.12 7.73517e-06L56.88 0L56.88 70.31L101.12 70.31L101.12 7.73517e-06Z" fill="#E6E6E6"/>
<path d="M56.88 158H101.12L101.12 87.69H56.88L56.88 158Z" fill="#E6E6E6"/>
<path d="M44.24 7.73517e-06L1.52588e-05 0L0 105.86L44.24 105.86L44.24 7.73517e-06Z" fill="#E6E6E6"/>
<path d="M113.76 158H158L158 52.14L113.76 52.14L113.76 158Z" fill="#E6E6E6"/>
</svg>
