<svg width="713" height="645" viewBox="0 0 713 645" fill="none" xmlns="http://www.w3.org/2000/svg">
<path d="M552 0.000341342L433 0.000321076V272H552L552 0.000341342Z" fill="white"/>
<path d="M416 0.000263452L297 0.000325708L297 153L416 153L416 0.000263452Z" fill="white"/>
<path d="M297 408H416L416 170L297 170L297 408Z" fill="white"/>
<path d="M433 408H552L552 289H433L433 408Z" fill="white"/>
<path d="M280 2.02656e-05L161 0V272H280V2.02656e-05Z" fill="white"/>
<path d="M161 408H280V289H161V408Z" fill="white"/>
<path d="M44.6586 575.372C32.8594 575.372 23.6212 571.942 16.9442 565.082C10.3129 558.177 6.99719 548.687 6.99719 536.613C6.99719 524.22 10.0842 514.478 16.2582 507.39C22.4322 500.301 30.9157 496.757 41.7088 496.757C51.7243 496.757 59.6362 499.798 65.4443 505.881C71.2525 511.963 74.1565 520.332 74.1565 530.988V539.7H23.5984C23.827 547.063 25.8164 552.734 29.5666 556.713C33.3167 560.646 38.5989 562.613 45.4132 562.613C49.895 562.613 54.0567 562.201 57.8983 561.378C61.7857 560.509 65.9474 559.091 70.3835 557.125V570.227C66.4505 572.102 62.4717 573.429 58.4471 574.206C54.4226 574.984 49.8264 575.372 44.6586 575.372ZM41.7088 508.968C36.5866 508.968 32.4706 510.591 29.3608 513.838C26.2966 517.085 24.4673 521.819 23.8728 528.038H58.3099C58.2185 521.773 56.7093 517.039 53.7823 513.838C50.8554 510.591 46.8309 508.968 41.7088 508.968ZM90.1019 543.199V529.479H125.362V543.199H90.1019ZM210.113 574H193.924V527.215C193.924 521.407 192.826 517.085 190.631 514.25C188.436 511.369 185.006 509.928 180.341 509.928C174.121 509.928 169.548 511.963 166.621 516.033C163.74 520.058 162.299 526.781 162.299 536.202V574H146.178V498.129H158.801L161.064 508.076H161.888C163.991 504.463 167.033 501.673 171.011 499.707C175.036 497.74 179.449 496.757 184.251 496.757C195.913 496.757 203.642 500.736 207.438 508.693H208.536C210.777 504.943 213.932 502.016 218.002 499.912C222.073 497.809 226.737 496.757 231.997 496.757C241.052 496.757 247.638 499.043 251.754 503.617C255.915 508.19 257.996 515.164 257.996 524.54V574H241.875V527.215C241.875 521.407 240.755 517.085 238.514 514.25C236.319 511.369 232.889 509.928 228.224 509.928C221.958 509.928 217.362 511.894 214.435 515.828C211.554 519.715 210.113 525.706 210.113 533.801V574ZM352.008 535.927C352.008 548.321 348.83 557.994 342.473 564.945C336.116 571.897 327.267 575.372 315.925 575.372C308.836 575.372 302.571 573.772 297.128 570.57C291.686 567.369 287.501 562.773 284.574 556.782C281.648 550.791 280.184 543.839 280.184 535.927C280.184 523.625 283.34 514.021 289.651 507.115C295.962 500.21 304.857 496.757 316.336 496.757C327.312 496.757 336.002 500.301 342.404 507.39C348.807 514.433 352.008 523.945 352.008 535.927ZM296.785 535.927C296.785 553.443 303.257 562.201 316.199 562.201C329.004 562.201 335.407 553.443 335.407 535.927C335.407 518.594 328.959 509.928 316.062 509.928C309.293 509.928 304.377 512.169 301.313 516.651C298.294 521.133 296.785 527.558 296.785 535.927ZM441.561 574H425.372V527.352C425.372 521.498 424.183 517.131 421.805 514.25C419.472 511.369 415.745 509.928 410.623 509.928C403.808 509.928 398.824 511.94 395.668 515.965C392.512 519.989 390.935 526.735 390.935 536.202V574H374.814V498.129H387.436L389.7 508.076H390.523C392.81 504.463 396.057 501.673 400.264 499.707C404.472 497.74 409.136 496.757 414.259 496.757C432.46 496.757 441.561 506.018 441.561 524.54V574ZM484.329 574H468.208V498.129H484.329V574ZM467.248 478.029C467.248 475.148 468.025 472.93 469.58 471.375C471.181 469.82 473.445 469.042 476.372 469.042C479.207 469.042 481.402 469.82 482.957 471.375C484.558 472.93 485.358 475.148 485.358 478.029C485.358 480.773 484.558 482.945 482.957 484.546C481.402 486.101 479.207 486.878 476.372 486.878C473.445 486.878 471.181 486.101 469.58 484.546C468.025 482.945 467.248 480.773 467.248 478.029ZM539.925 562.338C543.858 562.338 547.792 561.721 551.725 560.486V572.628C549.941 573.406 547.631 574.046 544.796 574.549C542.006 575.098 539.102 575.372 536.084 575.372C520.809 575.372 513.171 567.323 513.171 551.225V510.34H502.813V503.205L513.926 497.306L519.414 481.253H529.361V498.129H550.97V510.34H529.361V550.951C529.361 554.838 530.321 557.719 532.242 559.594C534.209 561.424 536.77 562.338 539.925 562.338ZM638.465 535.927C638.465 548.321 635.287 557.994 628.93 564.945C622.573 571.897 613.723 575.372 602.381 575.372C595.293 575.372 589.027 573.772 583.585 570.57C578.143 567.369 573.958 562.773 571.031 556.782C568.104 550.791 566.641 543.839 566.641 535.927C566.641 523.625 569.797 514.021 576.108 507.115C582.419 500.21 591.314 496.757 602.793 496.757C613.769 496.757 622.458 500.301 628.861 507.39C635.264 514.433 638.465 523.945 638.465 535.927ZM583.242 535.927C583.242 553.443 589.713 562.201 602.656 562.201C615.461 562.201 621.864 553.443 621.864 535.927C621.864 518.594 615.415 509.928 602.519 509.928C595.75 509.928 590.834 512.169 587.77 516.651C584.751 521.133 583.242 527.558 583.242 535.927ZM699.755 496.757C703.002 496.757 705.677 496.985 707.781 497.443L706.203 512.466C703.917 511.917 701.539 511.643 699.069 511.643C692.621 511.643 687.384 513.747 683.36 517.954C679.381 522.162 677.391 527.627 677.391 534.349V574H661.27V498.129H673.893L676.019 511.506H676.843C679.358 506.978 682.628 503.388 686.652 500.736C690.723 498.083 695.09 496.757 699.755 496.757Z" fill="white"/>
<path d="M625.44 605.344C628.964 605.344 631.616 606.457 633.393 608.683C635.186 610.894 636.083 614.132 636.083 618.399C636.083 622.588 635.14 625.819 633.254 628.091C631.384 630.364 628.748 631.5 625.347 631.5C623.554 631.5 621.938 631.129 620.501 630.387C619.063 629.645 617.927 628.594 617.092 627.233H616.883L616.234 631.036H614.796V594.956H617.092V604.022C617.092 605.382 617.061 606.635 616.999 607.779L616.93 609.75H617.092C618.05 608.235 619.202 607.122 620.547 606.41C621.907 605.699 623.538 605.344 625.44 605.344ZM625.393 607.431C622.425 607.431 620.3 608.281 619.017 609.981C617.734 611.682 617.092 614.488 617.092 618.399V618.793C617.092 622.596 617.757 625.324 619.086 626.978C620.431 628.632 622.518 629.459 625.347 629.459C628.099 629.459 630.17 628.501 631.561 626.584C632.953 624.652 633.648 621.908 633.648 618.352C633.648 611.071 630.897 607.431 625.393 607.431ZM654.69 631.5C651.026 631.5 648.167 630.372 646.111 628.115C644.07 625.858 643.05 622.696 643.05 618.631C643.05 614.611 644.039 611.396 646.018 608.984C647.997 606.557 650.663 605.344 654.018 605.344C656.986 605.344 659.328 606.38 661.044 608.451C662.76 610.523 663.618 613.336 663.618 616.892V618.747H645.461C645.492 622.209 646.296 624.853 647.873 626.677C649.465 628.501 651.738 629.413 654.69 629.413C656.128 629.413 657.388 629.313 658.47 629.112C659.567 628.911 660.951 628.478 662.62 627.813V629.9C661.198 630.518 659.884 630.936 658.678 631.152C657.473 631.384 656.143 631.5 654.69 631.5ZM654.018 607.384C651.591 607.384 649.643 608.188 648.174 609.796C646.706 611.388 645.848 613.692 645.6 616.706H661.183C661.183 613.784 660.549 611.504 659.281 609.866C658.014 608.211 656.259 607.384 654.018 607.384ZM678.654 629.459C680.107 629.459 681.374 629.336 682.456 629.088V630.944C681.343 631.315 680.06 631.5 678.607 631.5C676.381 631.5 674.735 630.905 673.668 629.715C672.617 628.524 672.091 626.654 672.091 624.103V607.825H668.358V606.48L672.091 605.437L673.251 599.732H674.433V605.831H681.83V607.825H674.433V623.778C674.433 625.711 674.774 627.141 675.454 628.068C676.134 628.996 677.201 629.459 678.654 629.459ZM704.635 631.036L704.055 627.048H703.869C702.602 628.671 701.295 629.823 699.951 630.503C698.621 631.168 697.044 631.5 695.22 631.5C692.747 631.5 690.822 630.866 689.446 629.599C688.07 628.331 687.383 626.576 687.383 624.335C687.383 621.877 688.403 619.968 690.443 618.607C692.499 617.247 695.467 616.528 699.348 616.451L704.148 616.312V614.642C704.148 612.246 703.661 610.437 702.687 609.216C701.713 607.995 700.144 607.384 697.98 607.384C695.645 607.384 693.226 608.034 690.722 609.332L689.864 607.338C692.631 606.039 695.367 605.39 698.072 605.39C700.839 605.39 702.903 606.109 704.264 607.547C705.639 608.984 706.327 611.226 706.327 614.271V631.036H704.635ZM695.359 629.413C698.049 629.413 700.167 628.648 701.713 627.117C703.274 625.572 704.055 623.431 704.055 620.694V618.213L699.649 618.399C696.109 618.569 693.582 619.125 692.067 620.068C690.567 620.996 689.817 622.449 689.817 624.428C689.817 626.004 690.297 627.233 691.255 628.115C692.229 628.98 693.597 629.413 695.359 629.413Z" fill="white"/>
</svg>
