<svg width="231" height="267" viewBox="0 0 231 267" fill="none" xmlns="http://www.w3.org/2000/svg">
<path d="M194 3.18441e-05L149.76 2.41089e-05L149.76 34.76L194 34.76L194 3.18441e-05Z" fill="#E6E6E6"/>
<path d="M36 158H80.24V123.24H36V158Z" fill="#E6E6E6"/>
<path d="M137.12 7.73517e-06L92.88 0L92.88 70.31L137.12 70.31L137.12 7.73517e-06Z" fill="#E6E6E6"/>
<path d="M92.88 158H137.12L137.12 87.69L92.88 87.69L92.88 158Z" fill="#E6E6E6"/>
<path d="M80.24 7.73517e-06L36 0L36 105.86L80.24 105.86L80.24 7.73517e-06Z" fill="#E6E6E6"/>
<path d="M149.76 158H194L194 52.14L149.76 52.14L149.76 158Z" fill="#E6E6E6"/>
<path d="M38.8904 203.15H40.5838C42.1665 203.15 43.3507 202.84 44.1365 202.221C44.9223 201.59 45.3152 200.677 45.3152 199.481C45.3152 198.275 44.9832 197.384 44.3191 196.809C43.6661 196.233 42.6368 195.945 41.2312 195.945H38.8904V203.15ZM50.5115 199.299C50.5115 201.911 49.6925 203.909 48.0545 205.292C46.4275 206.675 44.1089 207.367 41.0984 207.367H38.8904V216H33.7439V191.729H41.4969C44.4409 191.729 46.6766 192.365 48.2039 193.638C49.7423 194.899 50.5115 196.786 50.5115 199.299ZM68.1822 216L67.2027 213.477H67.0699C66.2177 214.55 65.3378 215.297 64.4303 215.718C63.5338 216.127 62.3606 216.332 60.9107 216.332C59.1288 216.332 57.7232 215.823 56.6939 214.805C55.6757 213.786 55.1666 212.337 55.1666 210.455C55.1666 208.485 55.8528 207.035 57.2252 206.105C58.6087 205.165 60.6894 204.645 63.4674 204.545L66.6881 204.445V203.632C66.6881 201.75 65.7252 200.81 63.7994 200.81C62.3163 200.81 60.5732 201.258 58.5699 202.154L56.8932 198.734C59.0292 197.617 61.3977 197.058 63.9986 197.058C66.4889 197.058 68.398 197.6 69.7262 198.685C71.0543 199.769 71.7184 201.418 71.7184 203.632V216H68.1822ZM66.6881 207.4L64.7291 207.467C63.2571 207.511 62.1614 207.777 61.442 208.264C60.7226 208.751 60.3629 209.492 60.3629 210.488C60.3629 211.916 61.1819 212.63 62.8199 212.63C63.9931 212.63 64.9283 212.292 65.6256 211.617C66.3339 210.942 66.6881 210.046 66.6881 208.928V207.4ZM78.432 192.642C78.432 190.993 79.3506 190.168 81.1879 190.168C83.0251 190.168 83.9437 190.993 83.9437 192.642C83.9437 193.427 83.7113 194.042 83.2465 194.484C82.7927 194.916 82.1065 195.132 81.1879 195.132C79.3506 195.132 78.432 194.302 78.432 192.642ZM83.7113 216H78.6479V197.439H83.7113V216ZM107.873 216H102.81V205.159C102.81 203.82 102.572 202.818 102.096 202.154C101.62 201.479 100.862 201.142 99.8215 201.142C98.4048 201.142 97.3811 201.618 96.7502 202.569C96.1193 203.51 95.8039 205.076 95.8039 207.268V216H90.7404V197.439H94.6086L95.2893 199.813H95.5715C96.1359 198.917 96.9107 198.242 97.8957 197.788C98.8918 197.323 100.021 197.091 101.282 197.091C103.441 197.091 105.079 197.677 106.196 198.851C107.314 200.013 107.873 201.695 107.873 203.897V216ZM122.473 200.693C121.399 200.693 120.558 201.036 119.949 201.723C119.34 202.398 118.992 203.361 118.903 204.611H126.009C125.987 203.361 125.66 202.398 125.029 201.723C124.398 201.036 123.546 200.693 122.473 200.693ZM123.187 216.332C120.198 216.332 117.863 215.507 116.181 213.858C114.498 212.209 113.657 209.874 113.657 206.853C113.657 203.743 114.432 201.341 115.981 199.647C117.542 197.943 119.695 197.091 122.439 197.091C125.062 197.091 127.104 197.838 128.565 199.332C130.026 200.826 130.757 202.89 130.757 205.524V207.981H118.787C118.842 209.42 119.269 210.544 120.065 211.352C120.862 212.16 121.98 212.563 123.419 212.563C124.537 212.563 125.594 212.447 126.59 212.215C127.586 211.982 128.626 211.612 129.711 211.103V215.021C128.826 215.463 127.879 215.79 126.872 216C125.865 216.221 124.636 216.332 123.187 216.332ZM141.637 216H136.574V190.168H141.637V216ZM165.076 216.332C162.895 216.332 161.18 215.485 159.929 213.792C158.69 212.099 158.07 209.752 158.07 206.753C158.07 203.709 158.701 201.341 159.962 199.647C161.235 197.943 162.984 197.091 165.208 197.091C167.544 197.091 169.326 197.998 170.554 199.813H170.72C170.466 198.43 170.338 197.196 170.338 196.111V190.168H175.418V216H171.534L170.554 213.593H170.338C169.187 215.419 167.433 216.332 165.076 216.332ZM166.852 212.298C168.147 212.298 169.093 211.922 169.691 211.169C170.3 210.416 170.632 209.138 170.687 207.334V206.786C170.687 204.794 170.377 203.366 169.757 202.503C169.149 201.64 168.152 201.208 166.769 201.208C165.64 201.208 164.76 201.689 164.129 202.652C163.51 203.604 163.2 204.993 163.2 206.819C163.2 208.646 163.515 210.018 164.146 210.937C164.777 211.844 165.679 212.298 166.852 212.298ZM194.201 216L193.222 213.477H193.089C192.237 214.55 191.357 215.297 190.449 215.718C189.553 216.127 188.38 216.332 186.93 216.332C185.148 216.332 183.742 215.823 182.713 214.805C181.695 213.786 181.186 212.337 181.186 210.455C181.186 208.485 181.872 207.035 183.244 206.105C184.628 205.165 186.709 204.645 189.487 204.545L192.707 204.445V203.632C192.707 201.75 191.744 200.81 189.819 200.81C188.335 200.81 186.592 201.258 184.589 202.154L182.912 198.734C185.048 197.617 187.417 197.058 190.018 197.058C192.508 197.058 194.417 197.6 195.745 198.685C197.073 199.769 197.738 201.418 197.738 203.632V216H194.201ZM192.707 207.4L190.748 207.467C189.276 207.511 188.181 207.777 187.461 208.264C186.742 208.751 186.382 209.492 186.382 210.488C186.382 211.916 187.201 212.63 188.839 212.63C190.012 212.63 190.947 212.292 191.645 211.617C192.353 210.942 192.707 210.046 192.707 208.928V207.4ZM8.56602 245.15H10.2594C11.8421 245.15 13.0263 244.84 13.8121 244.221C14.5979 243.59 14.9908 242.677 14.9908 241.481C14.9908 240.275 14.6588 239.384 13.9947 238.809C13.3417 238.233 12.3124 237.945 10.9068 237.945H8.56602V245.15ZM20.1871 241.299C20.1871 243.911 19.3681 245.909 17.7301 247.292C16.1031 248.675 13.7844 249.367 10.774 249.367H8.56602V258H3.41953V233.729H11.1725C14.1165 233.729 16.3521 234.365 17.8795 235.638C19.4179 236.899 20.1871 238.786 20.1871 241.299ZM37.8578 258L36.8783 255.477H36.7455C35.8933 256.55 35.0134 257.297 34.1059 257.718C33.2094 258.127 32.0362 258.332 30.5863 258.332C28.8044 258.332 27.3988 257.823 26.3695 256.805C25.3513 255.786 24.8422 254.337 24.8422 252.455C24.8422 250.485 25.5284 249.035 26.9008 248.105C28.2842 247.165 30.365 246.645 33.143 246.545L36.3637 246.445V245.632C36.3637 243.75 35.4008 242.81 33.475 242.81C31.9919 242.81 30.2488 243.258 28.2455 244.154L26.5688 240.734C28.7048 239.617 31.0733 239.058 33.6742 239.058C36.1645 239.058 38.0736 239.6 39.4018 240.685C40.7299 241.769 41.3939 243.418 41.3939 245.632V258H37.8578ZM36.3637 249.4L34.4047 249.467C32.9327 249.511 31.837 249.777 31.1176 250.264C30.3982 250.751 30.0385 251.492 30.0385 252.488C30.0385 253.916 30.8575 254.63 32.4955 254.63C33.6687 254.63 34.6039 254.292 35.3012 253.617C36.0095 252.942 36.3637 252.046 36.3637 250.928V249.4ZM58.6828 239.091C59.369 239.091 59.939 239.141 60.3928 239.24L60.0109 243.988C59.6014 243.878 59.1034 243.822 58.5168 243.822C56.9009 243.822 55.6392 244.237 54.7316 245.067C53.8352 245.897 53.3869 247.06 53.3869 248.554V258H48.3234V239.439H52.1584L52.9055 242.561H53.1545C53.73 241.52 54.5048 240.685 55.4787 240.054C56.4637 239.412 57.5318 239.091 58.6828 239.091ZM73.2822 254.298C74.1676 254.298 75.2301 254.104 76.4697 253.717V257.485C75.208 258.05 73.6585 258.332 71.8213 258.332C69.7959 258.332 68.3184 257.823 67.3887 256.805C66.4701 255.775 66.0107 254.237 66.0107 252.189V243.241H63.5869V241.1L66.376 239.406L67.8369 235.488H71.0742V239.439H76.2705V243.241H71.0742V252.189C71.0742 252.909 71.2734 253.44 71.6719 253.783C72.0814 254.126 72.6182 254.298 73.2822 254.298ZM81.7225 234.642C81.7225 232.993 82.6411 232.168 84.4783 232.168C86.3156 232.168 87.2342 232.993 87.2342 234.642C87.2342 235.427 87.0018 236.042 86.5369 236.484C86.0831 236.916 85.3969 237.132 84.4783 237.132C82.6411 237.132 81.7225 236.302 81.7225 234.642ZM87.0018 258H81.9383V239.439H87.0018V258ZM101.568 258.332C95.7906 258.332 92.902 255.161 92.902 248.819C92.902 245.665 93.6878 243.258 95.2594 241.598C96.831 239.926 99.0833 239.091 102.016 239.091C104.163 239.091 106.089 239.511 107.794 240.353L106.299 244.271C105.503 243.95 104.761 243.689 104.075 243.49C103.389 243.28 102.702 243.175 102.016 243.175C99.3821 243.175 98.065 245.045 98.065 248.786C98.065 252.416 99.3821 254.231 102.016 254.231C102.99 254.231 103.892 254.104 104.722 253.85C105.552 253.584 106.382 253.174 107.213 252.621V256.954C106.393 257.474 105.563 257.834 104.722 258.033C103.892 258.232 102.841 258.332 101.568 258.332ZM113.013 234.642C113.013 232.993 113.932 232.168 115.769 232.168C117.606 232.168 118.525 232.993 118.525 234.642C118.525 235.427 118.292 236.042 117.828 236.484C117.374 236.916 116.688 237.132 115.769 237.132C113.932 237.132 113.013 236.302 113.013 234.642ZM118.292 258H113.229V239.439H118.292V258ZM135.515 258.332C133.335 258.332 131.625 257.541 130.385 255.958H130.119C130.296 257.507 130.385 258.404 130.385 258.647V266.168H125.321V239.439H129.439L130.153 241.847H130.385C131.569 240.009 133.323 239.091 135.648 239.091C137.839 239.091 139.555 239.938 140.794 241.631C142.034 243.324 142.654 245.676 142.654 248.687C142.654 250.668 142.36 252.389 141.774 253.85C141.198 255.311 140.374 256.423 139.3 257.187C138.226 257.95 136.965 258.332 135.515 258.332ZM134.021 243.142C132.77 243.142 131.857 243.529 131.281 244.304C130.706 245.067 130.407 246.335 130.385 248.105V248.653C130.385 250.646 130.678 252.073 131.265 252.937C131.863 253.8 132.803 254.231 134.087 254.231C136.356 254.231 137.49 252.361 137.49 248.62C137.49 246.794 137.208 245.427 136.644 244.52C136.09 243.601 135.216 243.142 134.021 243.142ZM160.324 258L159.345 255.477H159.212C158.36 256.55 157.48 257.297 156.572 257.718C155.676 258.127 154.503 258.332 153.053 258.332C151.271 258.332 149.865 257.823 148.836 256.805C147.818 255.786 147.309 254.337 147.309 252.455C147.309 250.485 147.995 249.035 149.367 248.105C150.751 247.165 152.831 246.645 155.609 246.545L158.83 246.445V245.632C158.83 243.75 157.867 242.81 155.941 242.81C154.458 242.81 152.715 243.258 150.712 244.154L149.035 240.734C151.171 239.617 153.54 239.058 156.141 239.058C158.631 239.058 160.54 239.6 161.868 240.685C163.196 241.769 163.86 243.418 163.86 245.632V258H160.324ZM158.83 249.4L156.871 249.467C155.399 249.511 154.303 249.777 153.584 250.264C152.865 250.751 152.505 251.492 152.505 252.488C152.505 253.916 153.324 254.63 154.962 254.63C156.135 254.63 157.07 254.292 157.768 253.617C158.476 252.942 158.83 252.046 158.83 250.928V249.4ZM178.327 258.332C172.55 258.332 169.661 255.161 169.661 248.819C169.661 245.665 170.447 243.258 172.018 241.598C173.59 239.926 175.842 239.091 178.775 239.091C180.922 239.091 182.848 239.511 184.553 240.353L183.058 244.271C182.262 243.95 181.52 243.689 180.834 243.49C180.148 243.28 179.461 243.175 178.775 243.175C176.141 243.175 174.824 245.045 174.824 248.786C174.824 252.416 176.141 254.231 178.775 254.231C179.749 254.231 180.651 254.104 181.481 253.85C182.311 253.584 183.141 253.174 183.971 252.621V256.954C183.152 257.474 182.322 257.834 181.481 258.033C180.651 258.232 179.6 258.332 178.327 258.332ZM181.498 262.15C181.498 263.567 181.077 264.591 180.236 265.222C179.406 265.853 178.117 266.168 176.368 266.168C175.505 266.168 174.697 266.052 173.944 265.819V263.03C174.243 263.108 174.641 263.185 175.139 263.263C175.649 263.34 176.041 263.379 176.318 263.379C177.115 263.379 177.513 263.036 177.513 262.35C177.513 261.431 176.595 260.833 174.758 260.557L176.053 258H179.257L178.808 259.013C179.627 259.278 180.28 259.688 180.767 260.241C181.254 260.806 181.498 261.442 181.498 262.15ZM201.775 258L200.796 255.477H200.663C199.81 256.55 198.931 257.297 198.023 257.718C197.127 258.127 195.953 258.332 194.504 258.332C192.722 258.332 191.316 257.823 190.287 256.805C189.268 255.786 188.759 254.337 188.759 252.455C188.759 250.485 189.446 249.035 190.818 248.105C192.201 247.165 194.282 246.645 197.06 246.545L200.281 246.445V245.632C200.281 243.75 199.318 242.81 197.392 242.81C195.909 242.81 194.166 243.258 192.163 244.154L190.486 240.734C192.622 239.617 194.99 239.058 197.591 239.058C200.082 239.058 201.991 239.6 203.319 240.685C204.647 241.769 205.311 243.418 205.311 245.632V258H201.775ZM200.281 249.4L198.322 249.467C196.85 249.511 195.754 249.777 195.035 250.264C194.315 250.751 193.956 251.492 193.956 252.488C193.956 253.916 194.775 254.63 196.413 254.63C197.586 254.63 198.521 254.292 199.218 253.617C199.927 252.942 200.281 252.046 200.281 250.928V249.4ZM195.085 235.654C194.741 235.654 194.409 235.804 194.088 236.103C193.779 236.39 193.552 236.833 193.408 237.431H190.934C191.056 235.826 191.51 234.57 192.296 233.662C193.092 232.755 194.144 232.301 195.45 232.301C195.904 232.301 196.346 232.395 196.778 232.583C197.221 232.76 197.652 232.959 198.073 233.181C198.504 233.391 198.925 233.585 199.335 233.762C199.744 233.939 200.148 234.027 200.546 234.027C200.89 234.027 201.216 233.883 201.526 233.596C201.847 233.308 202.079 232.865 202.223 232.268H204.697C204.575 233.872 204.11 235.129 203.302 236.036C202.505 236.944 201.465 237.397 200.181 237.397C199.727 237.397 199.279 237.309 198.837 237.132C198.405 236.944 197.973 236.744 197.542 236.534C197.121 236.313 196.706 236.114 196.296 235.937C195.887 235.748 195.483 235.654 195.085 235.654ZM216.275 248.687C216.275 250.524 216.574 251.913 217.171 252.854C217.78 253.794 218.765 254.265 220.126 254.265C221.477 254.265 222.445 253.8 223.032 252.87C223.629 251.929 223.928 250.535 223.928 248.687C223.928 246.849 223.629 245.471 223.032 244.553C222.434 243.634 221.454 243.175 220.093 243.175C218.743 243.175 217.769 243.634 217.171 244.553C216.574 245.46 216.275 246.838 216.275 248.687ZM229.108 248.687C229.108 251.708 228.311 254.071 226.717 255.775C225.123 257.48 222.904 258.332 220.06 258.332C218.278 258.332 216.706 257.945 215.345 257.17C213.984 256.384 212.938 255.261 212.207 253.8C211.477 252.339 211.112 250.634 211.112 248.687C211.112 245.654 211.903 243.297 213.486 241.614C215.068 239.932 217.293 239.091 220.16 239.091C221.941 239.091 223.513 239.478 224.874 240.253C226.236 241.028 227.282 242.14 228.012 243.59C228.743 245.04 229.108 246.739 229.108 248.687Z" fill="#E6E6E6"/>
</svg>
