<?xml version="1.0" encoding="UTF-8" standalone="no"?>
<svg xmlns:rdf="http://www.w3.org/1999/02/22-rdf-syntax-ns#" xmlns="http://www.w3.org/2000/svg" xml:space="preserve" height="84.1" width="505.4" version="1.1" xmlns:cc="http://creativecommons.org/ns#" xmlns:dc="http://purl.org/dc/elements/1.1/" viewBox="0 0 505.43225 84.102066"><g transform="matrix(1.25 0 0 -1.25 98.28 85.34)"><g transform="scale(.1)"><g fill-rule="evenodd"><g fill="#cfe41b" transform="matrix(.5958 0 0 .5958 -1444 -574.8)"><path d="m1104 1372h1051c-230-445-821.3-445-1051 0"/><path d="m1497 2081h265.9c12.68 0 23.04-10.37 23.04-23.05v-265.9c0-12.68-10.37-23.06-23.05-23.06h-265.9c-12.67 0-23.04 10.38-23.04 23.06v265.9c0 12.68 10.37 23.04 23.04 23.04"/><path d="m1867 1720h265.9c12.68 0 23.05-10.39 23.05-23.06v-265.9c0-12.69-10.37-23.06-23.05-23.06l-265.9 0.01c-12.68 0-23.05 10.36-23.05 23.04v265.9c0 12.67 10.37 23.04 23.05 23.05"/></g><g fill="#cfe41b"><path d="m119.8 327.1c-22.5 0-41.4 1.985-56.25 5.953-14.85 4.469-27 10.92-36 19.84-8.996 9.43-15.3 21.33-19.35 35.72-3.598 14.89-5.398 33.23-5.398 54.57v222.2h67.96v-219.3c0-9.926 0.8985-18.36 2.246-24.81 1.801-6.941 4.949-12.9 9-16.86 4.051-4.961 9.902-7.938 17.1-9.922 6.754-1.98 15.75-2.98 26.55-2.98l182.3 0.011v-64.5h-188.1"/><path d="m655.3 405h-212.4l-43.66-77.88h-78.75l178.2 312.5c5.399 9.425 11.7 17.36 19.35 23.8 7.656 6.457 18.45 9.426 32.41 9.426 13.95 0.004 24.3-2.976 31.95-9.426 7.652-6.445 13.95-14.39 19.35-23.81l177.3-312.5h-79.2l-44.55 77.88zm-180.5 58.04h148.5l-74.25 133.4-74.26-133.4"/><path d="m808.8 665.4h258.8c17.55 0 32.4-1.497 44.55-3.977 12.15-2.469 22.5-6.945 29.7-12.9 8.1-6.45 13.5-14.39 17.1-23.81 3.6-9.918 5.4-21.83 5.4-36.22v-27.77c0-19.84-3.15-34.24-9.45-42.67s-14.4-14.38-23.85-17.36c5.4-1.488 10.35-3.472 15.3-5.953 4.5-2.969 8.55-6.945 11.7-12.4 3.15-5.453 5.85-12.4 7.65-20.34 1.8-8.93 2.7-19.34 2.7-31.75v-29.76c0-13.39-1.8-24.8-4.95-34.23-3.6-9.422-9-16.86-17.1-22.32-7.2-5.945-17.55-10.42-29.7-12.9-12.15-2.473-27-3.969-44.56-3.969h-263.3v338.3zm68.41-194v-82.84h191.3c13.05 0 22.05 1.98 27.46 5.949 5.85 3.477 8.54 10.91 8.54 21.33l0.01 20.84c0 13.9-2.26 23.31-7.65 27.78-4.5 4.465-13.51 6.946-26.11 6.946l-193.5 0.008zm0 132.4v-77.88h191.7c12.15 0 20.24 1.981 24.75 6.445 4.5 4.469 6.74 11.91 6.74 23.32v21.34c0 10.42-2.69 17.36-8.09 20.83-5.86 3.976-15.75 5.953-30.16 5.953l-185 0.004"/></g><g fill="#fff"><path d="m1581 327.1v134.9h-225v-134.9h-68.4v338.3h68.4v-137.9h225v137.9h67.95v-338.3h-67.95"/><path d="m1786 327.1c-17.55 0-32.4 1.489-43.65 4.965-11.25 3.473-20.26 7.938-27.46 13.89-6.29 6.449-11.25 13.89-13.95 22.82-2.7 8.438-4.05 18.35-4.05 29.27v25.31c0 11.41 1.35 21.32 3.6 29.75 2.71 8.938 7.2 16.37 13.5 22.82 6.31 5.961 14.85 10.42 26.1 13.89 10.81 2.981 24.76 4.465 41.41 4.465h180.5v5.953c0 17.37-3.15 28.77-9.45 34.23-6.3 5.957-17.1 8.929-31.95 8.929l-66.6 0.012v52.58h66.6c19.35 0 36-1.996 49.95-5.965 13.51-3.961 24.76-9.921 33.31-17.86 8.55-8.434 15.3-18.85 18.9-30.76 4.5-12.89 6.3-27.28 6.3-44.64v-65.48c0-19.34-1.81-35.72-5.4-49.11-3.15-13.4-9-23.81-18-32.24-8.1-8.43-19.81-13.89-34.21-17.86-13.95-2.973-31.95-4.965-53.55-4.965h-131.9zm176 121.5h-173.3c-7.65 0-13.95-1.996-18.45-5.465-4.5-3.961-6.75-11.41-6.75-21.83v-18.35c0-9.426 2.25-16.38 7.2-19.85 4.95-3.469 11.7-5.453 20.25-5.453l126 0.004c7.65 0 14.4 0.492 20.25 1.98 5.86 1.496 10.35 3.965 13.95 6.946 3.6 3.976 6.3 8.429 8.1 14.88 1.8 6.458 2.7 14.39 2.7 24.31v22.83"/><path d="m2194 327.1c-22.51 0-41.4 1.985-56.26 5.953-14.85 4.469-27 10.92-36 19.84-9 9.43-15.3 21.33-19.35 35.72-3.6 14.89-5.4 33.23-5.4 54.57v36.21c0 21.33 1.8 39.68 5.4 54.57 4.05 14.89 10.35 26.79 19.35 36.22 9 8.925 21.15 15.38 36 19.84 14.86 3.973 33.75 5.954 56.26 5.954l176.4 0.011v-63.51h-174.2c-10.35 0-19.35-0.992-25.65-2.48-7.2-1.481-12.16-4.465-16.21-8.434-4.04-4.453-6.75-9.922-8.1-17.36-1.34-7.434-2.25-16.37-2.25-27.28l0.01-31.74c0-10.42 0.89-19.36 2.24-26.8 1.36-6.946 4.05-12.4 8.1-16.87 4.06-4.457 9-7.441 16.21-8.925 6.3-1.977 15.3-2.981 25.65-2.981l174.6 0.004v-62.5h-176.9"/><path d="m2629 327.1-141.8 127v-127h-67.5v355.7h67.5v-211.3l140.9 124.5h87.31l-151.7-129.5 155.7-139.4h-90.46"/><path d="m2800 434.2v-12.41c0-8.425 0.44-14.88 1.8-19.84 1.35-4.954 3.14-8.93 6.75-11.41 2.7-2.972 7.19-4.965 12.6-5.957 4.95-0.988 11.7-1.488 19.35-1.488l79.21 0.008v-56.06h-79.21c-38.7 0-66.16 7.938-82.81 24.3-16.65 16.38-24.75 42.16-24.75 77.88v62.02c0 19.34 1.8 36.2 5.4 49.1 3.15 13.9 9 24.31 18 32.74 8.1 7.946 19.8 13.89 33.75 17.36 13.96 3.477 31.96 5.458 53.56 5.458l117.9 0.011c17.55 0 31.95-1.996 43.2-5.469 11.7-3.464 20.7-8.433 27.9-15.38 6.3-5.954 11.25-13.89 13.95-22.82 2.7-9.426 4.05-19.35 4.05-29.76v-88.29h-250.7zm183.6 82.34c0 8.934-2.25 14.88-5.84 17.86-4.5 2.976-11.25 4.465-21.6 4.465l-111.6 0.007c-8.55 0-15.31-0.503-21.15-1.496-5.85-0.492-10.35-2.48-13.96-5.457-3.14-2.968-5.84-7.441-7.2-12.9-1.34-5.449-2.25-13.4-2.25-22.82l0.01-14.38h183.6v34.71"/><path d="m3099 327.1v155.8c0 20.34 2.24 37.2 6.3 51.59 4.05 14.4 10.8 25.8 20.25 34.72 9 9.43 20.7 15.88 35.1 20.34 14.4 4.469 31.95 6.45 52.66 6.45l43.65 0.011v-60.03h-41.86c-9.45 0-17.1-0.996-23.4-2.484-6.3-1.489-11.25-4.465-14.85-8.434-4.05-3.965-6.75-9.426-8.1-16.37-1.8-6.938-2.7-15.88-2.7-26.29v-155.3h-67.05"/></g><g fill="#d3d2d2"><path d="m118.8 43.97c-10.5 0-19.33 0.8437-26.26 2.52-6.934 1.902-12.61 4.625-16.8 8.406-4.203 3.992-7.144 9.035-9.035 15.12-1.68 6.305-2.524 14.07-2.524 23.11l0.0039 44.97c0 9.035 0.8399 16.59 2.52 22.89 1.894 6.305 4.832 11.34 9.035 15.34 4.199 3.781 9.871 6.512 16.8 8.403 6.934 1.691 15.75 2.519 26.26 2.519l99.37 0.004v-27.52h-97.9c-4.832 0-9.031-0.425-11.98-1.054-3.36-0.832-5.672-2.098-7.563-3.988-1.887-1.883-3.148-4.204-3.781-7.356-0.625-2.934-1.047-6.512-1.047-10.93v-42.01c0-4.414 0.418-8.195 1.047-11.14 0.6328-2.934 1.891-5.25 3.781-7.141 1.895-1.879 4.414-3.152 7.563-3.781 3.156-0.6289 7.355-1.051 12.19-1.051l97.69 0.0039v-27.32h-99.37"/><path d="m277.6 43.97c-8.192 0-15.12 0.6289-20.38 2.102-5.25 1.477-9.453 3.363-12.82 5.883-2.937 2.738-5.25 5.883-6.507 9.664-1.262 3.582-1.895 7.773-1.895 12.39v10.72c0 4.836 0.633 9.031 1.68 12.6 1.261 3.789 3.363 6.93 6.304 9.664 2.942 2.527 6.934 4.414 12.18 5.883 5.043 1.269 11.56 1.891 19.33 1.891l84.24 0.007v2.52c0 7.348-1.468 12.18-4.41 14.49-2.941 2.524-7.984 3.781-14.92 3.781h-31.09v22.28h31.09c9.035 0 16.81-0.848 23.32-2.528 6.301-1.683 11.56-4.203 15.55-7.562 3.989-3.566 7.141-7.984 8.825-13.03 2.097-5.461 2.941-11.56 2.941-18.91v-27.73c0-8.188-0.844-15.13-2.523-20.8-1.469-5.668-4.2-10.08-8.403-13.66-3.781-3.566-9.242-5.883-15.96-7.562-6.511-1.254-14.92-2.102-25-2.102h-61.55zm82.14 51.48h-80.88c-3.566 0-6.511-0.8515-8.609-2.32-2.101-1.672-3.152-4.832-3.152-9.242v-7.762c0-3.996 1.051-6.945 3.359-8.414 2.313-1.465 5.465-2.312 9.453-2.312h58.82c3.571 0 6.723 0.211 9.454 0.8399 2.73 0.6367 4.832 1.68 6.511 2.941 1.684 1.688 2.942 3.57 3.782 6.305 0.843 2.73 1.261 6.09 1.261 10.29v9.672zm-15.96 69.12-23.74 31.93-23.32-31.93h-30.25l35.5 47.26c1.894 2.52 4.414 4.617 7.144 6.09 2.731 1.683 6.723 2.523 11.55 2.523 4.836 0.004 8.617-0.843 11.35-2.523 2.73-1.465 5.039-3.574 6.93-6.094l35.72-47.26h-30.88"/><path d="m593.8 43.97v68.49c0 7.144-1.472 11.97-3.996 14.7-2.933 2.531-7.14 3.781-13.23 3.781l-20.38 0.008c-4.621 0-8.406-0.426-11.35-0.848-3.148-0.839-5.461-1.679-7.14-3.359-1.891-1.262-3.153-3.363-3.782-5.465-0.629-2.511-1.054-5.25-1.054-8.824l0.004-68.49h-27.52v68.49c0 3.578-0.422 6.301-0.84 8.82-0.836 2.102-1.89 4.203-3.781 5.465-1.68 1.688-3.992 2.52-7.144 3.359-3.145 0.422-6.934 0.84-11.76 0.84l-19.96 0.008c-6.297 0-10.72-1.269-13.24-3.789-2.726-2.723-3.992-7.562-3.992-14.71l0.004-68.49h-30.46v73.12c0 6.93 0.629 13.02 2.098 18.06 1.477 5.261 3.781 9.457 6.934 12.82 3.152 3.367 7.355 5.883 12.6 7.355 5.258 1.684 11.56 2.52 19.12 2.52l27.52 0.008c5.675 0 10.72-0.43 14.91-1.266 3.996-0.84 7.562-2.101 10.51-3.785 2.73-1.465 5.043-3.57 6.718-6.09 1.895-2.515 3.364-5.461 4.414-8.824 1.891 6.723 5.672 11.77 11.13 14.91 5.676 3.371 14.07 5.043 25.21 5.043l28.37 0.008c7.563 0 13.86-0.848 19.11-2.528 5.254-1.468 9.453-3.992 12.6-7.355 3.152-3.359 5.461-7.563 6.934-12.82 1.468-5.032 2.101-11.13 2.101-18.07v-73.11h-30.67"/><path d="m687.5 43.97c-8.196 0-15.13 0.6289-20.38 2.102-5.25 1.477-9.453 3.363-12.81 5.883-2.937 2.738-5.254 5.883-6.515 9.664-1.258 3.582-1.891 7.773-1.891 12.39l0.004 10.72c0 4.836 0.629 9.031 1.68 12.6 1.265 3.789 3.359 6.93 6.3 9.664 2.946 2.527 6.934 4.414 12.18 5.883 5.047 1.269 11.56 1.891 19.33 1.891l84.25 0.007v2.52c0 7.348-1.469 12.18-4.414 14.49-2.933 2.524-7.98 3.781-14.91 3.781h-31.09v22.28h31.1c9.031 0 16.8-0.848 23.32-2.528 6.305-1.683 11.56-4.203 15.55-7.562 3.992-3.566 7.141-7.984 8.824-13.03 2.106-5.461 2.942-11.56 2.942-18.91v-27.73c0-8.188-0.844-15.13-2.524-20.8-1.472-5.668-4.199-10.08-8.402-13.66-3.777-3.566-9.242-5.883-15.97-7.562-6.507-1.254-14.91-2.102-25-2.102h-61.55zm82.14 51.48h-80.88c-3.574 0-6.519-0.8515-8.617-2.32-2.098-1.672-3.152-4.832-3.152-9.242l0.004-7.762c0-3.996 1.047-6.945 3.355-8.414 2.317-1.465 5.465-2.312 9.457-2.312h58.82c3.575 0 6.723 0.211 9.454 0.8399 2.73 0.6367 4.832 1.68 6.511 2.941 1.688 1.688 2.942 3.57 3.781 6.305 0.84 2.73 1.262 6.09 1.262 10.29v9.672"/><path d="m824.7 43.97v65.97c0 8.618 1.047 15.75 2.938 21.84 1.894 6.098 5.043 10.93 9.453 14.71 4.203 3.992 9.664 6.723 16.39 8.613 6.723 1.895 14.92 2.731 24.58 2.731l20.38 0.008v-25.43h-19.54c-4.41 0-7.984-0.426-10.92-1.055-2.942-0.621-5.254-1.89-6.934-3.566-1.883-1.68-3.152-3.996-3.781-6.938-0.84-2.933-1.262-6.718-1.262-11.13v-65.76h-31.3"/><path d="m943.8 43.97c-8.195 0-15.13 0.6289-20.38 2.102-5.25 1.477-9.453 3.363-12.81 5.883-2.938 2.738-5.254 5.883-6.516 9.664-1.254 3.582-1.89 7.773-1.89 12.39v10.72c0 4.836 0.629 9.031 1.679 12.6 1.262 3.789 3.364 6.93 6.301 9.664 2.949 2.527 6.934 4.414 12.19 5.883 5.043 1.269 11.55 1.891 19.33 1.891l84.25 0.007v2.52c0 7.348-1.48 12.18-4.42 14.49-2.93 2.524-7.98 3.781-14.91 3.781h-31.1v22.28h31.1c9.03 0 16.8-0.848 23.31-2.528 6.31-1.683 11.56-4.203 15.55-7.562 4-3.566 7.15-7.984 8.83-13.03 2.1-5.461 2.94-11.56 2.94-18.91v-27.73c0-8.188-0.84-15.13-2.52-20.8-1.48-5.668-4.21-10.08-8.41-13.66-3.78-3.566-9.24-5.883-15.96-7.562-6.52-1.254-14.92-2.102-25-2.102h-61.56zm82.14 51.48h-80.88c-3.574 0-6.52-0.8515-8.617-2.32-2.098-1.672-3.153-4.832-3.153-9.242l0.004-7.762c0-3.996 1.043-6.945 3.356-8.414 2.312-1.465 5.465-2.312 9.457-2.312h58.83c3.57 0 6.72 0.211 9.45 0.8399 2.73 0.6367 4.83 1.68 6.51 2.941 1.69 1.688 2.94 3.57 3.78 6.305 0.84 2.73 1.27 6.09 1.27 10.29v9.672"/><path d="m1218 43.97c-10.71 0-19.54 0.8437-26.68 2.52-6.93 1.902-12.61 4.625-16.81 8.406-4.19 3.992-7.14 9.035-8.82 15.12-1.89 6.305-2.73 14.07-2.73 23.11l0.01 15.34c0 9.035 0.83 16.81 2.72 23.11 1.69 6.305 4.62 11.34 8.82 15.33 4.21 3.785 9.88 6.516 16.81 8.406 7.14 1.684 15.96 2.52 26.68 2.52l63.24 0.008v36.76h31.31v-101.5c0-9.035-0.85-16.81-2.74-23.11-1.68-6.082-4.62-11.13-8.83-15.12-4.19-3.781-9.87-6.516-16.8-8.406-6.93-1.672-15.76-2.52-26.47-2.52h-39.71zm-23.74 50.01c0-5.039 0.42-9.039 1.26-12.19 0.63-3.141 2.1-5.461 4.2-7.141 2.11-1.684 5.04-2.734 8.41-3.363 3.78-0.625 8.19-0.8399 13.86-0.8399h34.88c4.83 0 8.82 0.4219 12.18 0.8399 2.95 0.8476 5.46 1.891 7.35 3.781 1.9 1.691 3.16 3.992 3.79 7.144 0.63 2.949 1.05 6.719 1.05 11.55v37.19h-59.46c-5.46 0-9.87-0.219-13.65-0.848-3.36-0.625-6.31-1.679-8.41-3.359-2.1-1.676-3.57-3.992-4.2-7.144-0.84-3.149-1.26-7.145-1.26-12.19v-13.44"/><path d="m1390 43.97c-10.51 0-19.34 0.8437-26.27 2.52-6.93 1.902-12.61 4.625-16.81 8.406-4.2 3.992-7.14 9.035-9.03 15.12-1.68 6.305-2.52 14.07-2.52 23.11v15.34c0 9.035 0.84 16.81 2.52 23.11 1.89 6.305 4.83 11.34 9.03 15.33 4.21 3.785 9.88 6.516 16.81 8.406 6.94 1.684 15.76 2.52 26.26 2.52l38.03 0.008c10.71 0 19.53-0.848 26.47-2.528 6.93-1.882 12.6-4.621 16.8-8.613 4.21-3.992 7.15-9.035 9.04-15.34 1.69-6.293 2.52-14.07 2.52-23.1v-15.13c0-9.035-0.84-16.81-2.52-23.11-1.89-6.082-4.83-11.13-9.04-15.12-4.19-3.781-9.87-6.516-16.8-8.406-6.94-1.672-15.76-2.52-26.47-2.52h-38.02zm61.55 63.45c0 4.836-0.42 8.609-1.05 11.76-0.84 3.156-2.32 5.465-4.21 7.144-2.09 1.899-5.04 2.942-8.61 3.781-3.57 0.422-8.19 0.84-13.86 0.84l-29.62 0.008c-5.68 0-10.09-0.426-13.87-0.848-3.36-0.839-6.3-1.894-8.4-3.781-1.89-1.679-3.37-3.992-4.21-7.144-0.63-3.141-1.05-6.934-1.05-11.77l0.01-13.44c0-4.84 0.41-8.621 1.04-11.77 0.84-2.934 2.31-5.254 4.21-7.144 2.1-1.676 5.03-2.941 8.4-3.57 3.78-0.625 8.19-1.051 13.87-1.051h29.62c5.67 0 10.29 0.4219 13.86 1.051 3.57 0.6367 6.52 1.891 8.61 3.57 1.89 1.891 3.37 4.203 4.21 7.144 0.63 3.152 1.05 6.93 1.05 11.76v13.45"/><path d="m1641 74.23c0-5.684-0.42-10.3-1.48-14.3-1.05-3.773-2.94-6.934-5.67-9.242-2.93-2.305-6.93-4.207-11.76-5.043-5.04-1.254-11.56-1.684-19.54-1.684h-97.9v24.58h93.91c4.2 0 7.14 0.6289 8.82 2.098 1.69 1.48 2.52 3.996 2.52 7.984l0.01 3.789c0 4.195-0.85 6.926-2.53 7.766-1.47 1.27-4.2 1.684-7.98 1.684h-63.87c-6.51 0-11.76 0.6289-15.54 1.891-4.2 1.262-7.15 3.148-9.46 5.672-2.31 2.531-3.78 5.671-4.41 9.242-0.84 3.785-1.26 8.191-1.26 13.23v8.617c0 4.836 0.42 9.032 1.68 12.6 0.84 3.578 2.73 6.305 5.04 8.406 2.32 2.313 5.67 3.781 9.66 4.832 4 1.059 9.25 1.469 15.34 1.469l43.28 0.008v-23.74h-35.71c-3.15 0-5.26-0.64-6.52-1.687-1.46-1.047-2.1-3.152-2.1-6.094v-5.246c0-3.152 0.63-5.469 1.89-6.519 1.27-1.039 3.36-1.68 6.09-1.68l61.77 0.008c7.35 0 13.23-0.641 17.85-1.692 4.63-1.254 8.2-3.152 10.93-5.882 2.74-2.52 4.41-5.879 5.46-10.08 1.06-3.988 1.47-9.031 1.47-15.12l0.01-5.871"/><path d="m1745 43.97v143.3h113.4c10.71 0 19.53-0.844 26.68-2.523 6.93-1.887 12.6-4.622 16.8-8.403 4.2-3.992 7.15-9.031 8.83-15.34 1.89-6.297 2.73-13.87 2.73-22.9v-44.96c0-9.035-0.84-16.81-2.73-23.11-1.68-6.082-4.63-11.13-8.83-15.12-4.2-3.781-9.87-6.516-16.8-8.406-7.15-1.672-15.97-2.52-26.69-2.52h-113.4zm136.6 92.66c0 4.41-0.42 7.977-1.05 11.13-0.84 2.941-2.1 5.25-4.2 7.141-1.68 1.687-4.2 2.941-7.35 3.781-3.15 0.64-6.94 1.051-11.77 1.051l-80.25 0.003v-88.44h80.26c4.41 0 7.98 0.4179 11.13 1.047 3.15 0.6289 5.67 1.891 7.56 3.57 1.89 1.895 3.36 4.203 4.2 7.145 1.06 2.941 1.47 6.723 1.47 11.13v42.45"/><path d="m1968 89.35v-5.254c0-3.566 0.21-6.305 0.84-8.406 0.63-2.09 1.47-3.781 3.15-4.828 1.27-1.254 3.36-2.102 5.88-2.524 2.32-0.4218 5.47-0.6289 9.03-0.6289l36.99 0.0079v-23.75h-36.98c-18.07 0-30.88 3.363-38.66 10.29-7.77 6.941-11.56 17.86-11.56 32.98l0.01 26.27c0 8.187 0.84 15.32 2.52 20.79 1.47 5.882 4.2 10.29 8.4 13.86 3.78 3.371 9.25 5.883 15.76 7.351 6.51 1.477 14.92 2.313 25 2.313l55.04 0.008c8.2 0 14.91-0.848 20.17-2.321 5.46-1.46 9.66-3.57 13.02-6.511 2.94-2.508 5.25-5.883 6.51-9.664 1.27-3.985 1.89-8.192 1.89-12.6v-37.39h-117zm85.71 34.88c0 3.781-1.05 6.3-2.73 7.558-2.1 1.262-5.25 1.895-10.08 1.895h-52.1c-3.99 0-7.15-0.215-9.88-0.633-2.72-0.203-4.83-1.055-6.51-2.313-1.47-1.254-2.73-3.152-3.36-5.461-0.63-2.308-1.05-5.671-1.05-9.664v-6.086h85.71v14.7"/><path d="m2201 157.8c10.71 0 19.53-0.848 26.46-2.528 6.94-1.882 12.61-4.621 16.81-8.406 4.21-3.984 7.14-9.031 8.82-15.33 1.89-6.305 2.74-14.08 2.74-23.11v-15.33c0-9.035-0.85-16.81-2.74-23.11-1.68-6.082-4.62-11.13-8.82-15.12-4.2-3.781-9.87-6.516-16.81-8.406-6.93-1.672-15.75-2.52-26.47-2.52h-63.44v-34.03h-31.31v98.53c0 9.035 0.85 16.81 2.74 23.11 1.68 6.305 4.61 11.34 8.82 15.33 4.2 3.785 9.87 6.516 16.8 8.406 6.94 1.684 15.76 2.52 26.47 2.52l39.93 0.008zm23.53-50.21c0 5.039-0.43 9.027-1.27 12.18-0.62 3.152-2.1 5.46-4.2 7.14-2.1 1.684-5.04 2.731-8.4 3.363-3.78 0.637-8.2 0.84-13.66 0.84h-34.87c-4.83 0-9.04-0.422-12.19-1.051-3.15-0.625-5.67-1.894-7.56-3.781-1.89-1.679-3.15-3.992-3.78-7.144-0.63-2.942-1.05-6.723-1.05-11.34v-37.18h59.66c5.47 0 9.88 0.207 13.45 0.625 3.57 0.6328 6.3 1.68 8.4 3.363 2.1 1.68 3.57 3.988 4.2 7.141 0.84 3.156 1.26 7.141 1.26 12.39l0.01 13.45"/><path d="m2334 43.97c-10.51 0-19.33 0.8437-26.26 2.52-6.93 1.902-12.61 4.625-16.81 8.406-4.2 3.992-7.15 9.035-9.04 15.12-1.68 6.305-2.52 14.07-2.52 23.11l0.01 64.72h31.51v-63.87c0-4.84 0.42-8.832 1.26-11.77 1.05-3.148 2.52-5.461 4.41-7.144 1.89-1.676 4.62-2.941 7.77-3.359 3.36-0.8359 7.36-1.055 12.19-1.055l32.77 0.0079c5.05 0 9.25 0.207 12.61 1.047 3.36 0.4258 5.88 1.68 7.98 3.359 1.68 1.691 3.15 3.992 3.78 7.144 0.84 2.949 1.26 6.93 1.26 11.76v63.88h31.09v-64.71c0-9.035-0.84-16.81-2.52-23.11-1.89-6.082-4.83-11.13-9.03-15.12-4.2-3.781-9.87-6.516-17.02-8.406-6.93-1.672-15.75-2.52-26.47-2.52h-36.97"/><path d="m2457 43.97v88.45h-15.97v25.43h15.97v32.14h31.93v-32.14h35.93v-25.43h-35.93v-88.45h-31.93"/><path d="m2568 43.97c-8.2 0-15.13 0.6289-20.38 2.102-5.25 1.477-9.46 3.363-12.82 5.883-2.93 2.738-5.25 5.883-6.51 9.664-1.25 3.582-1.89 7.773-1.89 12.39v10.72c0 4.836 0.63 9.031 1.68 12.6 1.26 3.789 3.36 6.93 6.3 9.664 2.95 2.527 6.94 4.414 12.19 5.883 5.04 1.269 11.55 1.891 19.32 1.891l84.25 0.007v2.52c0 7.348-1.47 12.18-4.41 14.49-2.94 2.524-7.98 3.781-14.92 3.781h-31.09v22.28h31.1c9.03 0 16.8-0.848 23.31-2.528 6.31-1.683 11.56-4.203 15.55-7.562 4-3.566 7.14-7.984 8.82-13.03 2.1-5.461 2.95-11.56 2.95-18.91v-27.73c0-8.188-0.85-15.13-2.52-20.8-1.48-5.668-4.21-10.08-8.41-13.66-3.78-3.566-9.25-5.883-15.97-7.562-6.51-1.254-14.91-2.102-25-2.102h-61.55zm82.14 51.48h-80.88c-3.57 0-6.51-0.8515-8.62-2.32-2.09-1.672-3.15-4.832-3.15-9.242v-7.762c0-3.996 1.05-6.945 3.37-8.414 2.3-1.465 5.46-2.312 9.45-2.312h58.82c3.58 0 6.73 0.211 9.46 0.8399 2.73 0.6367 4.83 1.68 6.51 2.941 1.68 1.688 2.94 3.57 3.78 6.305 0.84 2.73 1.26 6.09 1.26 10.29v9.672"/><path d="m2759 43.97c-10.71 0-19.54 0.8437-26.68 2.52-6.93 1.902-12.61 4.625-16.81 8.406-4.2 3.992-7.15 9.035-8.82 15.12-1.89 6.305-2.74 14.07-2.74 23.11l0.01 15.34c0 9.035 0.84 16.81 2.73 23.11 1.67 6.305 4.62 11.34 8.82 15.33 4.2 3.785 9.87 6.516 16.81 8.406 7.14 1.684 15.96 2.52 26.68 2.52l63.23 0.008v36.76h31.3v-101.5c0-9.035-0.84-16.81-2.73-23.11-1.68-6.082-4.62-11.13-8.82-15.12-4.2-3.781-9.88-6.516-16.81-8.406-6.93-1.672-15.75-2.52-26.47-2.52h-39.7zm-23.74 50.01c0-5.039 0.41-9.039 1.26-12.19 0.63-3.141 2.1-5.461 4.2-7.141 2.1-1.684 5.04-2.734 8.4-3.363 3.79-0.625 8.2-0.8399 13.87-0.8399h34.88c4.82 0 8.82 0.4219 12.18 0.8399 2.94 0.8476 5.46 1.891 7.35 3.781 1.9 1.691 3.15 3.992 3.78 7.144 0.64 2.949 1.05 6.719 1.05 11.55v37.19h-59.45c-5.46 0-9.87-0.219-13.66-0.848-3.36-0.625-6.3-1.679-8.4-3.359-2.1-1.676-3.57-3.992-4.2-7.144-0.84-3.149-1.26-7.145-1.26-12.19v-13.44"/><path d="m2931 43.97c-10.5 0-19.32 0.8437-26.25 2.52-6.94 1.902-12.61 4.625-16.81 8.406-4.2 3.992-7.14 9.035-9.04 15.12-1.67 6.305-2.52 14.07-2.52 23.11l0.01 15.34c0 9.035 0.83 16.81 2.51 23.11 1.9 6.305 4.84 11.34 9.04 15.33 4.2 3.785 9.87 6.516 16.81 8.406 6.93 1.684 15.75 2.52 26.25 2.52l38.04 0.008c10.7 0 19.53-0.848 26.46-2.528 6.93-1.882 12.61-4.621 16.81-8.613s7.14-9.035 9.03-15.34c1.68-6.293 2.52-14.07 2.52-23.1v-15.13c0-9.035-0.84-16.81-2.52-23.11-1.89-6.082-4.83-11.13-9.03-15.12-4.2-3.781-9.88-6.516-16.81-8.406-6.93-1.672-15.76-2.52-26.47-2.52h-38.03zm61.56 63.45c0 4.836-0.42 8.609-1.05 11.76-0.84 3.156-2.31 5.465-4.2 7.144-2.1 1.899-5.04 2.942-8.62 3.781-3.56 0.422-8.19 0.84-13.86 0.84l-29.62 0.008c-5.67 0-10.08-0.426-13.87-0.848-3.35-0.839-6.3-1.894-8.4-3.781-1.89-1.679-3.36-3.992-4.2-7.144-0.63-3.141-1.05-6.934-1.05-11.77v-13.44c0-4.84 0.42-8.621 1.05-11.77 0.84-2.934 2.31-5.254 4.2-7.144 2.1-1.676 5.04-2.941 8.4-3.57 3.79-0.625 8.2-1.051 13.87-1.051h29.62c5.67 0 10.29 0.4219 13.86 1.051 3.58 0.6367 6.52 1.891 8.62 3.57 1.89 1.891 3.36 4.203 4.2 7.144 0.63 3.152 1.05 6.93 1.05 11.76v13.45"/><path d="m3182 74.23c0-5.684-0.42-10.3-1.48-14.3-1.04-3.773-2.93-6.934-5.67-9.242-2.94-2.305-6.93-4.207-11.76-5.043-5.04-1.254-11.55-1.684-19.54-1.684h-97.9v24.58h93.92c4.2 0 7.13 0.6289 8.81 2.098 1.68 1.48 2.52 3.996 2.52 7.984l0.01 3.789c0 4.195-0.85 6.926-2.53 7.766-1.47 1.27-4.2 1.684-7.98 1.684h-63.86c-6.52 0-11.77 0.6289-15.55 1.891-4.2 1.262-7.15 3.148-9.46 5.672-2.3 2.531-3.78 5.671-4.41 9.242-0.83 3.785-1.26 8.191-1.26 13.23v8.617c0 4.836 0.42 9.032 1.68 12.6 0.84 3.578 2.73 6.305 5.04 8.406 2.32 2.313 5.67 3.781 9.67 4.832 3.99 1.059 9.24 1.469 15.33 1.469l43.28 0.008v-23.74h-35.71c-3.15 0-5.26-0.64-6.52-1.687-1.47-1.047-2.09-3.152-2.09-6.094v-5.246c0-3.152 0.62-5.469 1.89-6.519 1.26-1.039 3.36-1.68 6.09-1.68l61.77 0.008c7.35 0 13.23-0.641 17.85-1.692 4.62-1.254 8.19-3.152 10.92-5.882 2.74-2.52 4.42-5.879 5.46-10.08 1.06-3.988 1.48-9.031 1.48-15.12v-5.871"/></g></g></g></g></svg>
