<?xml version="1.0" standalone="no"?>
<!DOCTYPE svg PUBLIC "-//W3C//DTD SVG 20010904//EN"
 "http://www.w3.org/TR/2001/REC-SVG-20010904/DTD/svg10.dtd">
<svg version="1.0" xmlns="http://www.w3.org/2000/svg"
 width="490.000000pt" height="490.000000pt" viewBox="0 0 490.000000 490.000000"
 preserveAspectRatio="xMidYMid meet">
<metadata>
Created by potrace 1.11, written by Peter Selinger 2001-2013
</metadata>
<g transform="translate(0.000000,490.000000) scale(0.100000,-0.100000)"
fill="#000000" stroke="none">
<path d="M3085 4694 c-397 -43 -650 -113 -935 -260 -690 -353 -1180 -1086
-1314 -1964 -9 -58 -19 -117 -21 -132 -4 -25 -1 -27 63 -42 165 -37 514 -45
772 -16 101 12 278 50 346 76 40 15 42 17 63 97 100 367 308 683 579 878 339
243 783 281 889 76 19 -38 19 -129 0 -185 -80 -230 -490 -568 -940 -773 -311
-142 -574 -220 -919 -271 -206 -30 -630 -33 -838 -5 -155 21 -358 64 -510 107
-159 45 -249 37 -300 -27 -27 -35 -21 -76 18 -116 70 -73 335 -214 547 -290
l120 -44 7 -63 c26 -234 132 -513 276 -730 234 -352 600 -617 1020 -740 72
-21 233 -52 239 -47 1 2 -30 14 -70 26 -123 39 -245 109 -367 210 -30 25 -47
36 -37 25 16 -20 16 -22 -14 -48 l-30 -27 -96 51 c-90 48 -207 124 -263 170
l-25 20 30 -12 c32 -12 249 -18 260 -6 4 4 -15 38 -42 75 -117 163 -206 337
-261 513 -34 111 -35 106 12 122 37 14 64 23 166 59 19 7 64 22 100 34 36 12
94 32 130 44 36 13 75 25 87 27 12 2 43 13 69 24 26 11 61 23 79 26 l31 5 12
-148 c41 -514 197 -832 474 -967 105 -51 174 -66 309 -66 281 0 577 138 773
360 115 130 169 350 86 350 -9 0 -22 -11 -28 -25 -22 -48 -95 -136 -155 -186
-117 -98 -263 -169 -434 -211 -127 -31 -325 -31 -442 1 -84 22 -196 73 -239
108 l-23 18 21 79 c12 44 24 84 27 88 3 5 -23 34 -56 65 -72 64 -135 150 -183
248 -52 104 -74 179 -102 341 l-5 31 122 7 c489 28 1037 148 1482 323 677 268
1091 647 1223 1121 24 88 27 114 27 267 0 157 -2 178 -28 269 -63 219 -171
401 -342 572 -248 248 -579 410 -963 470 -96 15 -399 26 -477 18z"/>
<path d="M4042 1794 c-185 -92 -242 -337 -119 -511 69 -98 213 -157 329 -135
79 15 138 44 188 95 37 37 91 123 90 144 -1 4 -10 -9 -21 -29 -10 -21 -34 -53
-53 -71 -33 -33 -35 -34 -89 -26 -30 4 -64 10 -74 13 -16 5 -22 0 -29 -26 -9
-31 -13 -33 -59 -36 -176 -12 -321 159 -285 334 11 53 11 53 56 60 43 6 44 7
44 43 0 59 31 132 65 153 44 27 17 22 -43 -8z"/>
<path d="M3495 628 l-60 -63 63 60 c58 55 67 65 59 65 -1 0 -29 -28 -62 -62z"/>
<path d="M3390 539 c-58 -50 -165 -117 -278 -174 -59 -30 -103 -54 -99 -55 16
0 204 98 272 142 65 43 157 117 145 117 -3 0 -21 -13 -40 -30z"/>
<path d="M2895 279 c-22 -10 -33 -18 -25 -18 20 1 99 38 80 37 -8 0 -33 -8
-55 -19z"/>
<path d="M2268 223 c7 -3 16 -2 19 1 4 3 -2 6 -13 5 -11 0 -14 -3 -6 -6z"/>
<path d="M2658 223 c6 -2 18 -2 25 0 6 3 1 5 -13 5 -14 0 -19 -2 -12 -5z"/>
<path d="M2333 213 c15 -2 37 -2 50 0 12 2 0 4 -28 4 -27 0 -38 -2 -22 -4z"/>
<path d="M2568 213 c12 -2 32 -2 45 0 12 2 2 4 -23 4 -25 0 -35 -2 -22 -4z"/>
</g>
</svg>
