<svg style="isolation:isolate" xmlns="http://www.w3.org/2000/svg" height="128" width="450" version="1.1" viewBox="0 0 450 128">
  <defs>
    <clipPath id="b">
      <rect width="450" height="128"/>
    </clipPath>
  </defs>
  <g clip-path="url(#b)">
    <path d="m0 128h450v-128l-450-.006v128z" fill="#fff"/>
    <path fill="#4dbd38" d="m126.9 123.6h318.7v-119.1l-318.7-.011v119.1z" fill-rule="evenodd"/>
    <g fill="#fff">
      <path d="m161.4 98.6h-4.9v-25.91h5.9c8.5 0 12.5 4.67 12.5 11.89 0 9.48-4.4 14.02-13.5 14.02zm.9-29.14h-10.3v32.44h9.6c11.4 0 18.2-6.47 18.2-17.2 0-7.78-4.5-15.22-17.5-15.22"/>
      <path d="m193.3 86.38h11.2v-3.24h-11.2v-10.46h11.4v-3.23h-15.9v32.45h17.9v-3.28h-13.4v-12.22"/>
      <path d="m222.9 69.45h-8.1v32.45h4.5v-29.21h3.1c4.7 0 6.7 2.59 6.7 6.15 0 4.82-2.7 7.13-7 7.36l-1.5.05v2.96h1.4c7.3 0 11.9-4.95 11.9-10.41 0-6.29-4.2-9.35-11-9.35"/>
      <path d="m262 89.86c0 4.63-2 9.44-8 9.44-5.8 0-8.3-3.51-8.3-10.22v-19.62h-4.4v19.8c0 8.34 3.6 13.14 12.7 13.14 7.7 0 12.2-5.18 12.2-12.44v-20.5h-4.2v20.41"/>
      <path d="m296.8 69.45h-25.1v3.24h10.3v29.11h4.4v-29.11h10.4v-3.24"/>
      <path d="m304.8 89.08c1.8-4.49 3.5-8.98 5.1-14.81h.1c1.6 5.83 3.2 10.32 4.8 14.81h-10zm4.1-19.62l-13.1 32.34h4.3l3.5-9.49h12.3l3.3 9.49h5.1l-12-32.34h-3.4"/>
      <path d="m340.1 98.6h-5v-25.91h5.9c8.5 0 12.5 4.67 12.5 11.89 0 9.48-4.4 14.02-13.4 14.02zm.8-29.14h-10.3v32.44h9.6c11.4 0 18.2-6.47 18.2-17.2 0-7.78-4.5-15.22-17.5-15.22"/>
      <path d="m381.6 99.16c-8.3 0-11.2-7.73-11.2-14.07 0-6.06 3.3-12.95 11.2-12.95 8 0 11.2 6.9 11.2 12.95 0 6.34-2.9 14.07-11.2 14.07zm0-30.26c-9.3 0-16.1 7.12-16.1 16.19 0 9.67 6.2 17.31 16.1 17.31 10 0 16.1-7.63 16.1-17.31 0-9.07-6.8-16.19-16.1-16.19z"/>
      <path d="m415.1 83.56c-4.2-3-6.2-4.72-6.2-7.03 0-2.5 1.8-4.4 5-4.4 2 0 4 1.16 5.6 2.32l2.1-2.32c-1.8-2.03-4.6-3.23-7.9-3.23-5 0-9.2 3.28-9.2 7.63 0 4.58 3 6.57 5.6 8.65 2.6 1.94 7.5 4.58 7.5 8.66 0 3.6-2.5 5.32-5.6 5.32s-5.1-1.48-7-2.82l-2 2.68c2.3 2.28 6 3.38 9.1 3.38 5.1 0 9.9-3.34 9.9-8.47 0-4.17-2.5-7.13-6.9-10.37"/>
      <path d="m167.4 59.12c4.2 0 8.1-1.5 10.3-3.01l-1.8-2.72c-1.9 1.31-4.7 2.44-8.3 2.44-7.1 0-12.8-5.59-12.8-13.91 0-7.7 4.7-13.52 12.8-13.52 3.5 0 7 1.6 8.6 2.86l1.8-2.82c-2.1-1.69-5.4-3.33-10.1-3.33-11.7 0-18.1 8.64-18.1 16.91 0 9.06 5.9 17.1 17.6 17.1"/>
      <path d="m192.9 18.68l4.6 4.56h2.7l-5.8-7.14h-3l-5.9 7.14h2.7l4.7-4.56"/>
      <path d="m187.6 45.58c1.7-4.56 3.5-9.11 5.1-15.03h.1c1.7 5.92 3.3 10.47 4.9 15.03h-10.1zm4.1-19.92l-13.3 32.9h4.4l3.5-9.67h12.5l3.3 9.67h5.3l-12.2-32.9h-3.5"/>
      <path d="m244.8 58.54v-32.86h-4.2c-4.6 8.74-9.2 17.52-13.8 26.78-4.2-9.26-8.4-18.04-12.6-26.78h-4.9v32.86h3.8v-26.77h.1c1.2 4.32 8 18.37 12 26.77h1.9c4.4-8.4 11.8-22.92 13.1-26.77h.1v26.78h4.5"/>
      <path d="m254.2 45.58c1.8-4.56 3.5-9.11 5.2-15.03h.1c1.6 5.92 3.2 10.47 4.8 15.03h-10.1zm7.6-19.92h-3.5l-13.3 32.87h4.4l3.5-9.67h12.5l3.3 9.67h5.3l-12.2-32.89"/>
      <path d="m280.6 28.95h3.8c3.1 0 5.6 1.55 5.6 5.59 0 2.77-1.1 7.09-6.9 7.09h-2.5v-12.68zm0 15.97h4.8l7.5 14.19 4.6-1.41-8.1-14c3.1-2.02 5.5-4.74 5.5-9.58 0-5.68-4.2-8.46-9.5-8.46h-9.4v32.87h4.5v-13.62"/>
      <path d="m306.9 45.58c1.8-4.56 3.5-9.11 5.2-15.03h.1c1.6 5.92 3.2 10.47 4.9 15.03h-10.2zm4.2-19.92l-13.3 32.9h4.4l3.5-9.67h12.4l3.4 9.67h5.2l-12.2-32.9h-3.4"/>
      <path d="m349.4 55.27h-5v-26.3h6c8.6 0 12.6 4.74 12.6 12.07 0 9.63-4.4 14.23-13.6 14.23zm.9-29.59h-10.6v32.86h9.8c11.5 0 18.5-6.52 18.5-17.42 0-7.89-4.6-15.46-17.8-15.46"/>
      <path d="m385.8 55.82c-8.4 0-11.3-7.85-11.3-14.28 0-6.16 3.3-13.16 11.3-13.16 8.1 0 11.4 7 11.4 13.16 0 6.43-2.9 14.28-11.4 14.28zm0-30.72c-9.4 0-16.3 7.24-16.3 16.45 0 9.82 6.3 17.57 16.3 17.57 10.1 0 16.4-7.75 16.4-17.57 0-9.21-6.9-16.45-16.4-16.45z"/>
      <path d="m411.7 55.82c-3 0-5.1-1.5-7.1-2.87l-2 2.73c2.4 2.3 6.1 3.43 9.2 3.43 5.3 0 10.2-3.38 10.2-8.6 0-4.23-2.6-7.23-7.1-10.52-4.2-3.06-6.2-4.79-6.2-7.14 0-2.54 1.8-4.46 5-4.46 2 0 4.1 1.17 5.7 2.35l2.1-2.35c-1.8-2.07-4.6-3.29-8-3.29-5.1 0-9.4 3.33-9.4 7.75 0 4.65 3.1 6.67 5.8 8.78 2.6 1.97 7.5 4.65 7.5 8.79 0 3.66-2.4 5.4-5.7 5.4"/>
    </g>
    <g fill-rule="evenodd">
      <path fill="#4dbd38" d="m122.5 99.35v24.25h-118l-.042-22.5 118-1.75z"/>
      <linearGradient id="a" y1="99.6%" x2="50.01%" x1="50.01%" y2="-.5735%">
        <stop stop-color="#2e3192" offset="0"/>
        <stop stop-color="#00adef" offset="1"/>
        <stop stop-color="#00adef" offset="1"/>
      </linearGradient>
      <path fill="url(#a)" d="m4.473 94.26h118v-89.78l-118.1-.003.073 89.78z"/>
      <path fill="#fff" d="m124 73v26.24l-119.9 1.86v-8.74h7.87l.55-38.66-8.42.56v-2.66l8.09-.11.11-1.56h-8.2v-1.22l8.44.11-1.22-35.44h11.26l.88 23.21-.65 16.43-.11-.10v3.21l.11 20.66.88-8.11 1.87 23.66h7.74l4.63.22v-.56l2.1-.22-.11-.67h1.22l.44.56 1.21 1 42.29 1.22c-2.87-.22-9.38-.56-14.91-3.11-20.98-9.77-23.85-13.88-31.92-19.87l29.81.22 6.08-.78 12.48.44 35.88-.11"/>
    </g>
  </g>
</svg>
